<?xml version="1.0" encoding="UTF-8"?>
<svg id="Layer_2" data-name="Layer 2" xmlns="http://www.w3.org/2000/svg" xmlns:xlink="http://www.w3.org/1999/xlink" viewBox="0 0 124.13 127.72">
  <defs>
    <style>
      .cls-1 {
        fill: #f9f6c1;
      }

      .cls-2 {
        fill: #6f7d9d;
      }

      .cls-3 {
        fill: #1a2e4b;
      }

      .cls-4, .cls-5 {
        fill: #fedec5;
      }

      .cls-4, .cls-5, .cls-6 {
        stroke-miterlimit: 10;
        stroke-width: .25px;
      }

      .cls-4, .cls-6 {
        stroke: #fdd6bc;
      }

      .cls-7 {
        fill: #fffad1;
      }

      .cls-8 {
        fill: #fcdc61;
      }

      .cls-5 {
        stroke: #fedec5;
      }

      .cls-9 {
        fill: #ceca86;
      }

      .cls-6 {
        fill: none;
      }
    </style>
    <symbol id="New_Symbol_12" data-name="New Symbol 12" viewBox="0 0 124.13 127.72">
      <g>
        <rect class="cls-3" x="4.44" y="89.92" width="90.87" height="23.3" rx="11.65" ry="11.65"/>
        <rect class="cls-3" x="16.45" y="96.65" width="65.66" height="23.3" rx="11.65" ry="11.65"/>
        <rect class="cls-3" x="44.24" y="101.47" width="26.03" height="26.25" rx="13.01" ry="13.01"/>
        <rect class="cls-3" x="27.73" y="99.87" width="30.21" height="26.25" rx="13.12" ry="13.12"/>
        <rect class="cls-3" x="40.28" y="85.97" width="57.29" height="14.69" rx="7.35" ry="7.35"/>
        <rect class="cls-3" x="49.25" y="89.7" width="41.39" height="14.69" rx="7.35" ry="7.35"/>
        <rect class="cls-3" x="65.37" y="93.25" width="16.41" height="16.55" rx="8.21" ry="8.21"/>
        <rect class="cls-3" x="55.16" y="91.6" width="19.05" height="16.55" rx="8.27" ry="8.27"/>
        <rect class="cls-3" x="81.9" y="93.42" width="35.94" height="9.22" rx="4.61" ry="4.61"/>
        <rect class="cls-3" x="87.52" y="95.76" width="25.96" height="9.22" rx="4.61" ry="4.61"/>
        <rect class="cls-3" x="97.64" y="97.99" width="10.29" height="10.38" rx="5.15" ry="5.15"/>
        <rect class="cls-3" x="91.23" y="96.95" width="11.95" height="10.38" rx="5.19" ry="5.19"/>
        <rect class="cls-2" x="0" y="44.26" width="95.41" height="37.85" rx="18.93" ry="18.93"/>
        <rect class="cls-2" x="12.62" y="33.32" width="68.93" height="37.85" rx="18.93" ry="18.93"/>
        <rect class="cls-2" x="41.79" y="20.71" width="27.33" height="42.64" rx="13.67" ry="13.67"/>
        <rect class="cls-2" x="24.46" y="23.3" width="31.72" height="42.64" rx="15.86" ry="15.86"/>
        <rect class="cls-1" x="37.63" y="64.66" width="60.15" height="23.86" rx="11.93" ry="11.93"/>
        <rect class="cls-1" x="47.05" y="58.6" width="43.46" height="23.86" rx="11.93" ry="11.93"/>
        <rect class="cls-1" x="63.98" y="49.81" width="17.23" height="26.88" rx="8.62" ry="8.62"/>
        <rect class="cls-1" x="53.26" y="52.49" width="20" height="26.88" rx="10" ry="10"/>
        <rect class="cls-9" x="81.32" y="61.45" width="37.73" height="14.97" rx="7.48" ry="7.48"/>
        <rect class="cls-9" x="87.23" y="57.64" width="27.26" height="14.97" rx="7.48" ry="7.48"/>
        <rect class="cls-9" x="97.85" y="52.13" width="10.81" height="16.86" rx="5.4" ry="5.4"/>
        <rect class="cls-9" x="91.13" y="53.82" width="12.54" height="16.86" rx="6.27" ry="6.27"/>
        <path class="cls-8" d="M103.91,22.68c-7.23.56-7.68,1.02-8.24,8.24-.56-7.23-1.02-7.68-8.24-8.24,7.23-.56,7.68-1.02,8.24-8.24.56,7.23,1.02,7.68,8.24,8.24Z"/>
        <path class="cls-8" d="M40.62,4.57c-4,.31-4.26.56-4.57,4.57-.31-4-.56-4.26-4.57-4.57,4-.31,4.26-.56,4.57-4.57.31,4,.56,4.26,4.57,4.57Z"/>
        <path class="cls-8" d="M67.95,11.89c-3.05.24-3.25.43-3.49,3.49-.24-3.05-.43-3.25-3.49-3.49,3.05-.24,3.25-.43,3.49-3.49.24,3.05.43,3.25,3.49,3.49Z"/>
        <path class="cls-8" d="M124.13,49.6c-5,.39-5.31.7-5.7,5.7-.39-5-.7-5.31-5.7-5.7,5-.39,5.31-.7,5.7-5.7.39,5,.7,5.31,5.7,5.7Z"/>
        <path class="cls-8" d="M15.97,27.66c-5.24.41-5.57.74-5.98,5.98-.41-5.24-.74-5.57-5.98-5.98,5.24-.41,5.57-.74,5.98-5.98.41,5.24.74,5.57,5.98,5.98Z"/>
        <path class="cls-5" d="M61.44,47.22c1.71,2.95,4.82,4.92,8.08,5.12s6.56-1.37,8.58-4.08c.5-.68.95-1.57.65-2.37-.24-.65-.9-1.01-1.3-1.56-.64-.88-.55-2.11-.61-3.22-.18-3.71-2.4-7.23-5.56-8.83-3.16-1.6-7.13-1.2-10.04,1.19-5.93-5.53-9.57-13.94-16.67-17.58-1.57-.81-3.31-1.35-5.05-1.22-.9.07-1.9.39-2.31,1.25-.21.44-.24.96-.22,1.46.11,4.55,2.79,8.7,6.23,11.42s7.57,4.24,11.68,5.55c2.6.84,5.32,1.62,8.01,1.21"/>
        <path class="cls-5" d="M68.36,33.49c2.59-3.3,4.08-7.51,4.41-11.79.32-4.28-.5-8.63-2.17-12.54-.79-1.85-2.02-3.8-3.91-4.07-2-.28-3.82,1.57-4.35,3.64s-.12,4.26.3,6.35c.56,2.79,1.11,5.58,1.67,8.37.57,2.87,1.1,6.06-.34,8.57"/>
        <path class="cls-4" d="M59.18,35.14c-1.07,1.04-1.58,2.63-1.56,4.16s.52,3.04,1.21,4.39c.58,1.14,1.33,2.22,2.35,2.93s2.34,1.01,3.49.56c1.86-.74,2.59-3.07,3.01-5.13.22-1.09.42-2.2.33-3.32s-.5-2.24-1.31-2.95c-1.32-1.17-3.26-.94-4.94-.57-.12.03-.27.09-.28.22s.26.1.18,0"/>
        <path class="cls-5" d="M70.76,50.34c1.08,1.48,2.95,2.05,4.71,2.15s3.53-.19,5.29-.01c.83.08,1.79.38,2.09,1.21.33.9-.32,1.87-1.01,2.5-2.05,1.9-4.77,2.82-7.48,3.14s-5.44.1-8.16-.02c-.67-.03-1.38-.04-1.96.33-.55.36-.87,1-1.16,1.61-1.11,2.35-2.28,4.82-4.33,6.3-1.38,1-3.04,1.45-4.58,2.13-5.87,2.61-9.81,8.46-13.19,14.19-.84,1.41-1.66,2.85-2.68,4.12-.19.24-.42.49-.72.54-.29.04-.57-.13-.81-.31-2.66-1.96-3.94-5.8-3.04-9.1.5-1.86,1.63-3.72,1.13-5.58-.58-2.16-2.96-3-4.93-3.82-5.57-2.31-10.22-7.02-12.67-12.82-.46-1.1-.86-2.28-.76-3.48s.79-2.41,1.89-2.73c.65-.19,1.35-.04,2.01.11,3.68.84,7.46,1.81,11.16,1.1.85-.16,1.79-.49,2.2-1.3.24-.48-.36-1.39-.14-1.88.48-1.08,1.35-2.16,3.3-1.77,1.1.22,2.2,2.01,3.01,2.83.4.4.8.82,1.29,1.1.57.32,1.22.43,1.87.45,2.6.11,5.22-1.02,7-3.03,1.29-1.45,2.13-3.29,3.18-4.95s2.44-3.24,4.27-3.71"/>
        <path class="cls-4" d="M71.56,49.85l.61.48c.26.21.53.42.81.59.36.21.75.37,1.16.45.07.01.16.01.18-.05"/>
        <path class="cls-4" d="M35,49.61c.23.83.89,1.45,1.6,1.86.56.32,1.17.53,1.79.62"/>
        <path class="cls-4" d="M64.15,31.58c-.22.74-.57,1.42-1.05,2.01"/>
        <path class="cls-4" d="M69.81,31.36c-.13.72-.58,1.31-1.04,1.86-.02.02-.03.04-.06.04s-.05-.03-.03-.05"/>
        <path class="cls-7" d="M59.82,45.97c1.71,2.95,4.82,4.92,8.08,5.12s6.56-1.37,8.58-4.08c.5-.68.95-1.57.65-2.37-.24-.65-.9-1.01-1.3-1.56-.64-.88-.55-2.11-.61-3.22-.18-3.71-2.4-7.23-5.56-8.83-3.16-1.6-7.13-1.2-10.04,1.19-5.93-5.53-9.57-13.94-16.67-17.58-1.57-.81-3.31-1.35-5.05-1.22-.9.07-1.9.39-2.31,1.25-.21.44-.24.96-.22,1.46.11,4.55,2.79,8.7,6.23,11.42s7.57,4.24,11.68,5.55c2.6.84,5.32,1.62,8.01,1.21"/>
        <path class="cls-7" d="M66.74,32.24c2.59-3.3,4.08-7.51,4.41-11.79.32-4.28-.5-8.63-2.17-12.54-.79-1.85-2.02-3.8-3.91-4.07-2-.28-3.82,1.57-4.35,3.64s-.12,4.26.3,6.35c.56,2.79,1.11,5.58,1.67,8.37.57,2.87,1.1,6.06-.34,8.57"/>
        <path class="cls-7" d="M57.56,33.89c-1.07,1.04-1.58,2.63-1.56,4.16s.52,3.04,1.21,4.39c.58,1.14,1.33,2.22,2.35,2.93s2.34,1.01,3.49.56c1.86-.74,2.59-3.07,3.01-5.13.22-1.09.42-2.2.33-3.32s-.5-2.24-1.31-2.95c-1.32-1.17-3.26-.94-4.94-.57-.12.03-.27.09-.28.22s.26.1.18,0"/>
        <path class="cls-7" d="M70.33,48.46c1.08,1.48,2.95,2.05,4.71,2.15s3.53-.19,5.29-.01c.83.08,1.79.38,2.09,1.21.33.9-.32,1.87-1.01,2.5-2.05,1.9-4.77,2.82-7.48,3.14s-5.44.1-8.16-.02c-.67-.03-1.38-.04-1.96.33-.55.36-.87,1-1.16,1.61-1.11,2.35-2.28,4.82-4.33,6.3-1.38,1-3.04,1.45-4.58,2.13-5.87,2.61-9.81,8.46-13.19,14.19-.84,1.41-1.66,2.85-2.68,4.12-.19.24-.42.49-.72.54-.29.04-.57-.13-.81-.31-2.66-1.96-3.94-5.8-3.04-9.1.5-1.86,1.63-3.72,1.13-5.58-.58-2.16-2.96-3-4.93-3.82-5.57-2.31-10.22-7.02-12.67-12.82-.46-1.1-.86-2.28-.76-3.48s.79-2.41,1.89-2.73c.65-.19,1.35-.04,2.01.11,3.68.84,7.46,1.81,11.16,1.1.85-.16,1.79-.49,2.2-1.3.24-.48-.36-1.39-.14-1.88.48-1.08,1.35-2.16,3.3-1.77,1.1.22,2.2,2.01,3.01,2.83.4.4.8.82,1.29,1.1.57.32,1.22.43,1.87.45,2.6.11,5.22-1.02,7-3.03,1.29-1.45,2.13-3.29,3.18-4.95s2.44-3.24,4.27-3.71"/>
        <path class="cls-6" d="M61.48,32.34"/>
        <path class="cls-6" d="M62.53,30.33"/>
        <path class="cls-6" d="M67.06,31.96"/>
        <path class="cls-6" d="M68.19,30.11"/>
      </g>
    </symbol>
  </defs>
  <g id="Layer_20" data-name="Layer 20">
    <use width="124.13" height="127.72" xlink:href="#New_Symbol_12"/>
  </g>
</svg>