<?xml version="1.0" encoding="UTF-8"?>
<svg id="Layer_2" data-name="Layer 2" xmlns="http://www.w3.org/2000/svg" xmlns:xlink="http://www.w3.org/1999/xlink" viewBox="0 0 119.05 124.89">
  <defs>
    <style>
      .cls-1 {
        fill: #fedec5;
      }

      .cls-2 {
        fill: #8f869e;
      }

      .cls-3 {
        fill: #1a2e4b;
      }

      .cls-4 {
        fill: #fffad1;
      }

      .cls-5 {
        fill: #1a469d;
      }

      .cls-6 {
        fill: #fcdc61;
      }

      .cls-7 {
        fill: #b1a8d3;
      }

      .cls-8 {
        fill: #92836d;
      }
    </style>
    <symbol id="New_Symbol_13" data-name="New Symbol 13" viewBox="0 0 119.05 124.89">
      <g>
        <rect class="cls-3" x="4.44" y="87.09" width="90.87" height="23.3" rx="11.65" ry="11.65"/>
        <rect class="cls-3" x="16.45" y="93.82" width="65.66" height="23.3" rx="11.65" ry="11.65"/>
        <rect class="cls-3" x="44.24" y="98.64" width="26.03" height="26.25" rx="13.01" ry="13.01"/>
        <rect class="cls-3" x="27.73" y="97.04" width="30.21" height="26.25" rx="13.12" ry="13.12"/>
        <rect class="cls-3" x="40.28" y="83.14" width="57.29" height="14.69" rx="7.35" ry="7.35"/>
        <rect class="cls-3" x="49.25" y="86.87" width="41.39" height="14.69" rx="7.35" ry="7.35"/>
        <rect class="cls-3" x="65.37" y="90.43" width="16.41" height="16.55" rx="8.21" ry="8.21"/>
        <rect class="cls-3" x="55.16" y="88.77" width="19.05" height="16.55" rx="8.27" ry="8.27"/>
        <rect class="cls-3" x="81.9" y="90.59" width="35.94" height="9.22" rx="4.61" ry="4.61"/>
        <rect class="cls-3" x="87.52" y="92.94" width="25.96" height="9.22" rx="4.61" ry="4.61"/>
        <rect class="cls-3" x="97.64" y="95.16" width="10.29" height="10.38" rx="5.15" ry="5.15"/>
        <rect class="cls-3" x="91.23" y="94.13" width="11.95" height="10.38" rx="5.19" ry="5.19"/>
        <rect class="cls-7" x="0" y="41.43" width="95.41" height="37.85" rx="18.93" ry="18.93"/>
        <rect class="cls-7" x="12.62" y="30.49" width="68.93" height="37.85" rx="18.93" ry="18.93"/>
        <rect class="cls-7" x="41.79" y="17.88" width="27.33" height="42.64" rx="13.67" ry="13.67"/>
        <rect class="cls-7" x="24.46" y="20.48" width="31.72" height="42.64" rx="15.86" ry="15.86"/>
        <rect class="cls-5" x="47.05" y="55.77" width="43.46" height="23.86" rx="11.93" ry="11.93"/>
        <rect class="cls-5" x="63.98" y="46.98" width="17.23" height="26.88" rx="8.62" ry="8.62"/>
        <path class="cls-5" d="M57.81,75.39h0c-5.05-2.24-7.32-8.15-5.08-13.2l2.79-6.29c2.24-5.05,8.15-7.32,13.2-5.08h0c5.05,2.24,7.32,8.15,5.08,13.2l-2.79,6.29c-2.24,5.05-8.15,7.32-13.2,5.08Z"/>
        <rect class="cls-8" x="81.32" y="58.62" width="37.73" height="14.97" rx="7.48" ry="7.48"/>
        <rect class="cls-8" x="87.23" y="54.82" width="27.26" height="14.97" rx="7.48" ry="7.48"/>
        <rect class="cls-8" x="97.85" y="49.3" width="10.81" height="16.86" rx="5.4" ry="5.4"/>
        <rect class="cls-8" x="91.13" y="50.99" width="12.54" height="16.86" rx="6.27" ry="6.27"/>
        <path class="cls-6" d="M109.82,17.7"/>
        <path class="cls-6" d="M109.82,17.7"/>
        <path class="cls-6" d="M104.98,15.77c-7.23.56-7.68,1.02-8.24,8.24-.56-7.23-1.02-7.68-8.24-8.24,7.23-.56,7.68-1.02,8.24-8.24.56,7.23,1.02,7.68,8.24,8.24Z"/>
        <path class="cls-6" d="M117.59,37.47c-5,.39-5.31.7-5.7,5.7-.39-5-.7-5.31-5.7-5.7,5-.39,5.31-.7,5.7-5.7.39,5,.7,5.31,5.7,5.7Z"/>
        <path class="cls-6" d="M12.78,29.73c-5.24.41-5.57.74-5.98,5.98-.41-5.24-.74-5.57-5.98-5.98,5.24-.41,5.57-.74,5.98-5.98.41,5.24.74,5.57,5.98,5.98Z"/>
        <path class="cls-6" d="M37.4,4.57c-4,.31-4.26.56-4.57,4.57-.31-4-.56-4.26-4.57-4.57,4-.31,4.26-.56,4.57-4.57.31,4,.56,4.26,4.57,4.57Z"/>
        <path class="cls-6" d="M63.91,8.17c-3.05.24-3.25.43-3.49,3.49-.24-3.05-.43-3.25-3.49-3.49,3.05-.24,3.25-.43,3.49-3.49.24,3.05.43,3.25,3.49,3.49Z"/>
        <path class="cls-1" d="M84.04,53.29"/>
        <path class="cls-1" d="M38.87,36.92c-2.55-1.29-4.58-3.58-5.56-6.26-.61-1.68-.83-3.49-1.5-5.14-.08-.2-.18-.41-.3-.61-.44-.71-1.49-.55-1.7.26-.72,2.73-.63,6.61.55,9.29,1.18,2.67,3.71,6.64,5.48,8.95,1.24,1.62,2.5.94,3.82,2.5"/>
        <path class="cls-1" d="M40.64,43.69c-2.97.18-6.36-.9-8.65-2.96-1.96-1.76-3.8-3.75-6.37-4.35-.53-.12-1.18-.16-1.43.51-.1.26-.09.54,0,.81,1.12,3.73,3.23,7.06,5.31,10.35,1.74,2.74,3.5,5.51,5.82,7.78,2.17,2.12,4.77,3.75,7.46,5.14,4.12,2.14,8.52,3.78,13.08,4.65,2.53.48,5.09.72,7.66.93,9.2.76,19,.99,27.04-3.57.77-.44,1.55-.95,1.9-1.81.15-.38.15-.56.01-.95-.34-.95-1.37-1.07-2.26-1.13-1.72-.1-3.39-.13-5.1.08-1.12.14-2.24.13-3.37,0-1.31-.14-2.65-.78-3.12-2.08-.22-.61-.28-.69.06-1.24.56-.91.74-1.32,1.61-1.35,2.87-.11,6.7-.74,9.16-2.23.8-.48,1.58-1.18,1.92-2.01.2-.48-.21-.99-.73-.9l-7.88,1.36c-.83.14-1.67.29-2.51.27-1.15-.02-2.27-.34-3.37-.66-2.97-.86-5.94-1.72-8.91-2.57-4.59-1.32-9.23-2.67-13.32-5.14"/>
        <path class="cls-1" d="M55.01,41.3c2.05,0,4.09-.46,5.94-1.32,2.47-1.15,4.54-2.98,6.58-4.79,3.49-3.09,6.99-6.21,9.94-9.82.98-1.21,1.94-2.56,2.08-4.11.02-.24.01-.5-.14-.68-.14-.17-.38-.23-.6-.27-2.06-.35-4.15.38-6.05,1.26-5.31,2.45-10.04,6.18-13.66,10.78-1.92,2.44-3.72,5.27-6.62,6.39"/>
        <path class="cls-1" d="M57.17,35.56c.06-1.89-1.56-3.48-3.34-4.13s-3.72-.62-5.59-.84-3.86-.79-5.04-2.27c-.16-.2-.31-.42-.55-.51-.5-.19-.97.33-1.25.79-.96,1.58-1.78,3.24-2.44,4.97-.51,1.33-.94,2.73-.94,4.16,0,1.36.35,2.69.77,3.98.6,1.86,1.32,3.7,2.42,5.31,3,4.35,8.92,6.43,13.98,4.92"/>
        <path class="cls-1" d="M54.12,42.37c4.31,2.48,9.68,1.68,14.57.8,5.18-.93,10.5-1.9,15-4.64.34-.21.69-.44.91-.77.42-.63.27-1.52-.18-2.12s-1.15-.98-1.85-1.26c-3.05-1.21-6.52-.89-9.66.04s-6.08,2.45-9.14,3.65c-2.91,1.14-5.94,2-9.01,2.55"/>
        <path class="cls-1" d="M55.71,42.41c4.65,3.8,10.44,5.97,16.28,7.38,1.5.36,3.02.68,4.55.79,1.23.09,2.47.05,3.71,0,1.83-.06,3.65-.13,5.48-.19.63-.02,1.32-.03,1.85.32s.75,1.21.26,1.62"/>
        <circle class="cls-1" cx="57.28" cy="45.63" r="4.25"/>
        <ellipse class="cls-1" cx="80.29" cy="51.52" rx="1.28" ry="4.89" transform="translate(18.42 124.14) rotate(-82.26)"/>
        <path class="cls-4" d="M86.04,51.75"/>
        <path class="cls-4" d="M40.88,35.38c-2.55-1.29-4.58-3.58-5.56-6.26-.61-1.68-.83-3.49-1.5-5.14-.08-.2-.18-.41-.3-.61-.44-.71-1.49-.55-1.7.26-.72,2.73-.63,6.61.55,9.29,1.18,2.67,3.71,6.64,5.48,8.95,1.24,1.62,2.5.94,3.82,2.5"/>
        <path class="cls-4" d="M42.65,42.15c-2.97.18-6.36-.9-8.65-2.96-1.96-1.76-3.8-3.75-6.37-4.35-.53-.12-1.18-.16-1.43.51-.1.26-.09.54,0,.81,1.12,3.73,3.23,7.06,5.31,10.35,1.74,2.74,3.5,5.51,5.82,7.78,2.17,2.12,4.77,3.75,7.46,5.14,4.12,2.14,8.52,3.78,13.08,4.65,2.53.48,5.09.72,7.66.93,9.2.76,19,.99,27.04-3.57.77-.44,1.55-.95,1.9-1.81.15-.38.15-.56.01-.95-.34-.95-1.37-1.07-2.26-1.13-1.72-.1-3.39-.13-5.1.08-1.12.14-2.24.13-3.37,0-1.31-.14-2.65-.78-3.12-2.08-.22-.61-.28-.69.06-1.24.56-.91.74-1.32,1.61-1.35,2.87-.11,6.7-.74,9.16-2.23.8-.48,1.58-1.18,1.92-2.01.2-.48-.21-.99-.73-.9l-7.88,1.36c-.83.14-1.67.29-2.51.27-1.15-.02-2.27-.34-3.37-.66-2.97-.86-5.94-1.72-8.91-2.57-4.59-1.32-9.23-2.67-13.32-5.14"/>
        <path class="cls-4" d="M57.02,39.76c2.05,0,4.09-.46,5.94-1.32,2.47-1.15,4.54-2.98,6.58-4.79,3.49-3.09,6.99-6.21,9.94-9.82.98-1.21,1.94-2.56,2.08-4.11.02-.24.01-.5-.14-.68-.14-.17-.38-.23-.6-.27-2.06-.35-4.15.38-6.05,1.26-5.31,2.45-10.04,6.18-13.66,10.78-1.92,2.44-3.72,5.27-6.62,6.39"/>
        <path class="cls-4" d="M59.18,34.03c.06-1.89-1.56-3.48-3.34-4.13s-3.72-.62-5.59-.84-3.86-.79-5.04-2.27c-.16-.2-.31-.42-.55-.51-.5-.19-.97.33-1.25.79-.96,1.58-1.78,3.24-2.44,4.97-.51,1.33-.94,2.73-.94,4.16,0,1.36.35,2.69.77,3.98.6,1.86,1.32,3.7,2.42,5.31,3,4.35,8.92,6.43,13.98,4.92"/>
        <path class="cls-4" d="M56.13,40.83c4.31,2.48,9.68,1.68,14.57.8,5.18-.93,10.5-1.9,15-4.64.34-.21.69-.44.91-.77.42-.63.27-1.52-.18-2.12s-1.15-.98-1.85-1.26c-3.05-1.21-6.52-.89-9.66.04s-6.08,2.45-9.14,3.65c-2.91,1.14-5.94,2-9.01,2.55"/>
        <path class="cls-4" d="M57.71,40.87c4.65,3.8,10.44,5.97,16.28,7.38,1.5.36,3.02.68,4.55.79,1.23.09,2.47.05,3.71,0,1.83-.06,3.65-.13,5.48-.19.63-.02,1.32-.03,1.85.32s.75,1.21.26,1.62"/>
        <circle class="cls-4" cx="59.29" cy="44.1" r="4.25"/>
        <ellipse class="cls-4" cx="82.3" cy="49.98" rx="1.28" ry="4.89" transform="translate(21.68 124.79) rotate(-82.26)"/>
        <rect class="cls-2" x="37.43" y="61.51" width="60.15" height="23.86" rx="11.93" ry="11.93"/>
        <rect class="cls-2" x="44.95" y="60.53" width="43.46" height="23.86" rx="11.93" ry="11.93"/>
        <rect class="cls-2" x="57.01" y="50.58" width="34.56" height="28.87" rx="8.62" ry="8.62"/>
        <rect class="cls-2" x="46.66" y="48.76" width="20" height="26.88" rx="10" ry="10"/>
        <rect class="cls-8" x="80.52" y="58.61" width="37.73" height="14.97" rx="7.48" ry="7.48"/>
        <rect class="cls-8" x="90.77" y="51.27" width="12.54" height="16.86" rx="6.27" ry="6.27"/>
        <rect class="cls-2" x="58.77" y="43.31" width="20" height="26.88" rx="10" ry="10"/>
      </g>
    </symbol>
  </defs>
  <g id="Layer_23" data-name="Layer 23">
    <use width="119.05" height="124.89" xlink:href="#New_Symbol_13"/>
  </g>
</svg>