<?xml version="1.0" encoding="UTF-8"?>
<svg id="Layer_2" data-name="Layer 2" xmlns="http://www.w3.org/2000/svg" xmlns:xlink="http://www.w3.org/1999/xlink" viewBox="0 0 139.92 108.59">
  <defs>
    <style>
      .cls-1 {
        fill: #122540;
      }

      .cls-2 {
        fill: #fbc6bb;
      }

      .cls-3 {
        fill: #231f20;
      }

      .cls-4 {
        fill: url(#linear-gradient);
      }

      .cls-5 {
        fill: #1a2e4b;
        stroke: #1a2e4b;
        stroke-dasharray: 0 0 0 0 0 0;
        stroke-linecap: round;
        stroke-linejoin: round;
        stroke-width: .4px;
      }

      .cls-6 {
        fill: #fffad1;
      }

      .cls-7 {
        fill: #fcdc61;
      }

      .cls-8 {
        fill: #fff;
        stroke: #231f20;
      }

      .cls-8, .cls-9 {
        stroke-miterlimit: 10;
      }

      .cls-10 {
        fill: #f0f2b8;
      }

      .cls-11 {
        fill: #d4bc39;
      }

      .cls-9 {
        fill: #fedec5;
        stroke: #fedec5;
        stroke-width: .25px;
      }
    </style>
    <linearGradient id="linear-gradient" x1="47.47" y1="47.46" x2="89.58" y2="89.57" gradientUnits="userSpaceOnUse">
      <stop offset="0" stop-color="#faf9db"/>
      <stop offset=".31" stop-color="#fdf395"/>
      <stop offset="1" stop-color="#fddc61"/>
    </linearGradient>
    <symbol id="New_Symbol_14" data-name="New Symbol 14" viewBox="0 0 139.92 108.59">
      <g>
        <path class="cls-9" d="M34.11,43.37"/>
        <path class="cls-9" d="M60.75,68.3c-.39.8.72,2.4.62,2.28-.2-.26-1.48-.9-1.56-1.97s.05-1.76.37-1.82,2.98-3.47.57,1.52Z"/>
        <path class="cls-9" d="M55.76,63.1c.2-.34.43-.69.78-.86.18-.09.39-.12.59-.14.27-.03.54-.03.8.04.52.14.92.55,1.27.97-.32.07-.64-.09-.96-.16-.7-.17-1.43.07-2.15.15-.05,0-.14-.02-.18.01s-.15-.08-.13-.03"/>
        <ellipse class="cls-9" cx="54.44" cy="64.63" rx=".55" ry="1.6" transform="translate(-16.95 109.84) rotate(-82.24)"/>
        <path class="cls-6" d="M36.35,40.88"/>
        <path class="cls-6" d="M63.38,60.06c2.96,2.83-2.08,8-6.67,8.84s-9.28,11.24-9.76-6.36c-.12-4.43,2.27-8.55,6.86-9.42,6.19-1.17,8.51,5.92,9.57,6.93Z"/>
        <path class="cls-6" d="M43.82,45.05c4.74,6.75,7.94,10.92,6.44,12.32s-4.94-2.01-11.87-7.25c-5.9-4.46-7.94-10.92-6.44-12.32s7.64,1.22,11.87,7.25Z"/>
        <path class="cls-6" d="M65.48,78.91c-1.74,7.18-3.12,8.02-14.26,9.85-11.44,1.87-11.27-9.72-6.52-16.86,6.23-9.36,7.83-10.34,12.82-9.13,4.99,1.21,9.71,8.96,7.97,16.14Z"/>
        <path class="cls-6" d="M59.77,41.4c-.77,8.21-1.04,13.46-3.09,13.56s-2.46-4.73-4.33-13.22c-1.6-7.23,1.04-13.46,3.09-13.56,2.05-.1,5.02,5.89,4.33,13.22Z"/>
        <path class="cls-6" d="M67.55,83.13c2.38,2.65-2,3.2-4.94,3.8-9.21,1.91-7.06-.57-6.06-1.92,1.19-1.61,2.02-3.18,4.96-4.06s4.39.33,6.04,2.17Z"/>
        <path class="cls-6" d="M46.09,85.92c.36,1.95-.93,3.83-2.89,4.19s-4.47,1.06-4.19-2.89c.14-1.94,1.41-3.3,2.89-4.19,1.7-1.03,3.83.93,4.19,2.89Z"/>
        <path class="cls-6" d="M47.95,67.98c-.12,1.36-.48,2.01-.77,2-.56,0-1,.55-.4-1.31.78-2.43.58-3.23.86-3.21s.43,1.15.31,2.51Z"/>
        <path class="cls-6" d="M62.99,65.8c-.39.8.72,2.4.62,2.28-.2-.26-1.48-.9-1.56-1.97s.05-1.76.37-1.82,2.98-3.47.57,1.52Z"/>
        <rect class="cls-6" x="16.17" y="8.13" width="33.01" height="12.89" rx="6.44" ry="6.44"/>
        <rect class="cls-6" x="20.68" y="4.4" width="19.23" height="12.89" rx="6.44" ry="6.44"/>
        <rect class="cls-6" x="30.05" y="2.38" width="14.91" height="12.89" rx="6.44" ry="6.44"/>
        <path class="cls-6" d="M30.29,12.92l-.68-.1c-3.52-.53-5.95-3.81-5.42-7.33h0C24.72,1.97,28-.46,31.52.07l.68.1c3.52.53,5.95,3.81,5.42,7.33h0c-.53,3.52-3.81,5.95-7.33,5.42Z"/>
        <rect class="cls-10" x="6.15" y="8" width="27.1" height="8.51" rx="4.25" ry="4.25"/>
        <rect class="cls-10" x="7.27" y="5.54" width="17.53" height="8.51" rx="4.25" ry="4.25"/>
        <path class="cls-10" d="M25.59,12.42l-5.05.54c-2.34.25-4.43-1.44-4.69-3.78h0c-.25-2.34,1.44-4.43,3.78-4.69l5.05-.54c2.34-.25,4.43,1.44,4.69,3.78h0c.25,2.34-1.44,4.43-3.78,4.69Z"/>
        <path class="cls-10" d="M16.03,11.16l-.62-.07c-3.21-.35-5.42-2.51-4.94-4.84h0c.48-2.32,3.47-3.93,6.68-3.58l.62.07c3.21.35,5.42,2.51,4.94,4.84h0c-.48,2.32-3.47,3.93-6.68,3.58Z"/>
        <path class="cls-6" d="M11.33,51.6h2.9c1.63,0,2.95,1.32,2.95,2.95h0c0,1.63-1.32,2.95-2.95,2.95h-2.9c-1.63,0-2.95-1.32-2.95-2.95h0c0-1.63,1.32-2.95,2.95-2.95Z"/>
        <path class="cls-6" d="M17.04,52.68l.4.05c2.08.24,3.51,1.75,3.2,3.36h0c-.31,1.61-2.25,2.73-4.33,2.48l-.4-.05c-2.08-.24-3.51-1.75-3.2-3.36h0c.31-1.61,2.25-2.73,4.33-2.48Z"/>
        <path class="cls-6" d="M11.54,54.39l.62.09c3.22.47,5.11,2.12,4.22,3.68h0c-.89,1.57-4.23,2.46-7.45,1.99l-.62-.09c-3.22-.47-5.11-2.12-4.22-3.68h0c.89-1.57,4.23-2.46,7.45-1.99Z"/>
        <rect class="cls-10" x="0" y="55.78" width="19.47" height="6.11" rx="3.06" ry="3.06"/>
        <rect class="cls-10" x=".8" y="54.02" width="12.6" height="6.11" rx="3.06" ry="3.06"/>
        <path class="cls-10" d="M7.09,58.06l-.44-.05c-2.31-.25-3.9-1.81-3.55-3.48h0c.35-1.67,2.5-2.82,4.8-2.57l.44.05c2.31.25,3.9,1.81,3.55,3.48h0c-.35,1.67-2.5,2.82-4.8,2.57Z"/>
        <path class="cls-10" d="M109.21,96.63h12.41c1.82,0,3.3-1.48,3.3-3.3h0c0-1.82-1.48-3.3-3.3-3.3h-12.41c-1.82,0-3.3,1.48-3.3,3.3h0c0,1.82,1.48,3.3,3.3,3.3Z"/>
        <path class="cls-10" d="M114.62,94.73h4.63c1.82,0,3.3-1.48,3.3-3.3h0c0-1.82-1.48-3.3-3.3-3.3h-4.63c-1.82,0-3.3,1.48-3.3,3.3h0c0,1.82,1.48,3.3,3.3,3.3Z"/>
        <path class="cls-10" d="M111.67,93.69h2.11c1.82,0,3.3-1.48,3.3-3.3h0c0-1.82-1.48-3.3-3.3-3.3h-2.11c-1.82,0-3.3,1.48-3.3,3.3h0c0,1.82,1.48,3.3,3.3,3.3Z"/>
        <path class="cls-10" d="M117.01,92.48l.39-.06c2.05-.31,3.43-2.02,3.08-3.81h0c-.35-1.79-2.29-2.99-4.33-2.68l-.39.06c-2.05.31-3.43,2.02-3.08,3.81h0c.35,1.79,2.29,2.99,4.33,2.68Z"/>
        <rect class="cls-10" x="104.88" y="91.07" width="35.04" height="6.59" rx="3.3" ry="3.3"/>
        <rect class="cls-10" x="109.25" y="89.16" width="20.7" height="6.59" rx="3.3" ry="3.3"/>
        <rect class="cls-10" x="119.33" y="88.13" width="16.04" height="6.59" rx="3.3" ry="3.3"/>
        <path class="cls-10" d="M118.99,90.7l-.73-.06c-3.78-.31-6.32-2.02-5.68-3.81h0c.64-1.79,4.22-2.99,7.99-2.68l.73.06c3.78.31,6.32,2.02,5.68,3.81h0c-.64,1.79-4.22,2.99-7.99,2.68Z"/>
        <ellipse class="cls-1" cx="63.48" cy="103.97" rx="32.7" ry="4.62"/>
        <path class="cls-4" d="M101.46,61.11c0,18.12-12.04,33.42-28.58,38.44-3.72,1.12-7.67,1.73-11.76,1.73-3.83,0-7.53-.53-11.04-1.52h-.01c-7.74-2.2-14.54-6.64-19.63-12.57,4.16,1.22,8.59,1.77,13.16,1.56,22.25-1.03,39.46-19.84,38.43-42-.43-9.28-3.99-17.67-9.62-24.22,16.79,4.87,29.05,20.3,29.05,38.58Z"/>
        <ellipse class="cls-11" cx="89.66" cy="58.41" rx="4.14" ry="4.15"/>
        <ellipse class="cls-7" cx="89.29" cy="58.94" rx="4.14" ry="4.15"/>
        <circle class="cls-11" cx="86.29" cy="77.28" r="3.25"/>
        <circle class="cls-7" cx="86" cy="77.7" r="3.25"/>
        <circle class="cls-11" cx="68.89" cy="90.12" r="2.51"/>
        <circle class="cls-7" cx="68.66" cy="90.44" r="2.51"/>
        <path class="cls-7" d="M120.6,22.97c-7.23.56-7.68,1.02-8.24,8.24-.56-7.23-1.02-7.68-8.24-8.24,7.23-.56,7.68-1.02,8.24-8.24.56,7.23,1.02,7.68,8.24,8.24Z"/>
        <path class="cls-8" d="M2.47,13.56"/>
        <path class="cls-3" d="M66.82,49.92c.29,0,.58-.5.87-.5-.29,0-.58.5-.87.5h0Z"/>
        <path class="cls-5" d="M57.99,60.6c.2-.34.43-.69.78-.86.18-.09.39-.12.59-.14.27-.03.54-.03.8.04.52.14.92.55,1.27.97-.32.07-.64-.09-.96-.16-.7-.17-1.43.07-2.15.15-.05,0-.14-.02-.18.01s-.15-.08-.13-.03"/>
        <ellipse class="cls-2" cx="56.67" cy="62.13" rx=".55" ry="1.6" transform="translate(-12.55 109.89) rotate(-82.24)"/>
      </g>
    </symbol>
  </defs>
  <g id="Layer_14" data-name="Layer 14">
    <use width="139.92" height="108.59" xlink:href="#New_Symbol_14"/>
  </g>
</svg>