<?xml version="1.0" encoding="UTF-8"?>
<svg id="Layer_2" data-name="Layer 2" xmlns="http://www.w3.org/2000/svg" xmlns:xlink="http://www.w3.org/1999/xlink" viewBox="0 0 155.83 93.67">
  <defs>
    <style>
      .cls-1 {
        fill: #122540;
      }

      .cls-2 {
        fill: none;
      }

      .cls-3 {
        fill: #fbc6bb;
      }

      .cls-4 {
        stroke: #1a2e4b;
        stroke-linecap: round;
        stroke-linejoin: round;
        stroke-width: .4px;
      }

      .cls-4, .cls-5 {
        fill: #1a2e4b;
      }

      .cls-6 {
        fill: url(#linear-gradient);
      }

      .cls-7 {
        fill: #fffad1;
      }

      .cls-8 {
        fill: #fcdc61;
      }

      .cls-9 {
        fill: #f0f2b8;
      }

      .cls-10 {
        fill: #d4bc39;
      }
    </style>
    <linearGradient id="linear-gradient" x1="64.15" y1="30.33" x2="106.25" y2="72.43" gradientUnits="userSpaceOnUse">
      <stop offset="0" stop-color="#faf9db"/>
      <stop offset=".31" stop-color="#fdf395"/>
      <stop offset="1" stop-color="#fddc61"/>
    </linearGradient>
    <symbol id="New_Symbol_15" data-name="New Symbol 15" viewBox="0 0 155.83 93.67">
      <g>
        <path class="cls-7" d="M52.89,23.8"/>
        <path class="cls-7" d="M79.92,42.99c1.64,3.9-2.08,8-6.67,8.84s-7.74,9.85-10.43-6.29c-.73-4.37,2.94-8.62,7.53-9.49,6.19-1.17,9,5.59,9.57,6.93Z"/>
        <path class="cls-7" d="M60.36,27.98c4.74,6.75,7.94,10.92,6.44,12.32s-4.94-2.01-11.87-7.25c-5.9-4.46-7.94-10.92-6.44-12.32s7.64,1.22,11.87,7.25Z"/>
        <path class="cls-7" d="M82.02,61.83c-1.74,7.18-3.12,8.02-14.26,9.85-11.44,1.87-11.27-9.72-6.52-16.86,6.23-9.36,7.83-10.34,12.82-9.13,4.99,1.21,9.71,8.96,7.97,16.14Z"/>
        <path class="cls-7" d="M76.31,24.33c-.77,8.21-1.04,13.46-3.09,13.56s-2.46-4.73-4.33-13.22c-1.6-7.23,1.04-13.46,3.09-13.56,2.05-.1,5.02,5.89,4.33,13.22Z"/>
        <path class="cls-7" d="M84.09,66.05c2.38,2.65-2,3.2-4.94,3.8-9.21,1.91-7.06-.57-6.06-1.92,1.19-1.61,2.02-3.18,4.96-4.06s4.39.33,6.04,2.17Z"/>
        <path class="cls-7" d="M62.63,68.85c.36,1.95-.93,3.83-2.89,4.19s-4.47,1.06-4.19-2.89c.14-1.94,1.41-3.3,2.89-4.19,1.7-1.03,3.83.93,4.19,2.89Z"/>
        <path class="cls-7" d="M64.49,50.91c-.12,1.36-.48,2.01-.77,2-.56,0-1,.55-.4-1.31.78-2.43.58-3.23.86-3.21s.43,1.15.31,2.51Z"/>
        <path class="cls-7" d="M79.53,48.72c-.22.86.72,2.4.62,2.28-.2-.26-1.48-.9-1.56-1.97s.05-1.76.37-1.82,1.87-3.45.57,1.52Z"/>
        <rect class="cls-7" x="10.02" y="47.26" width="33.01" height="12.89" rx="6.44" ry="6.44"/>
        <rect class="cls-7" x="14.53" y="43.53" width="19.23" height="12.89" rx="6.44" ry="6.44"/>
        <rect class="cls-7" x="23.9" y="41.51" width="14.91" height="12.89" rx="6.44" ry="6.44"/>
        <path class="cls-7" d="M24.13,52.04l-.68-.1c-3.52-.53-5.95-3.81-5.42-7.33h0c.53-3.52,3.81-5.95,7.33-5.42l.68.1c3.52.53,5.95,3.81,5.42,7.33h0c-.53,3.52-3.81,5.95-7.33,5.42Z"/>
        <path class="cls-7" d="M122.04,13.88h13.88c2.35,0,4.25-1.9,4.25-4.25h0c0-2.35-1.9-4.25-4.25-4.25h-13.88c-2.35,0-4.25,1.9-4.25,4.25h0c0,2.35,1.9,4.25,4.25,4.25Z"/>
        <path class="cls-7" d="M129.02,11.42h5.98c2.35,0,4.25-1.9,4.25-4.25h0c0-2.35-1.9-4.25-4.25-4.25h-5.98c-2.35,0-4.25,1.9-4.25,4.25h0c0,2.35,1.9,4.25,4.25,4.25Z"/>
        <path class="cls-7" d="M125.22,10.08h2.72c2.35,0,4.25-1.9,4.25-4.25h0c0-2.35-1.9-4.25-4.25-4.25h-2.72c-2.35,0-4.25,1.9-4.25,4.25h0c0,2.35,1.9,4.25,4.25,4.25Z"/>
        <path class="cls-7" d="M132.02,8.53l.51-.07c2.65-.35,4.48-2.51,4.08-4.84h0c-.4-2.32-2.87-3.93-5.52-3.58l-.51.07c-2.65.35-4.48,2.51-4.08,4.84h0c.4,2.32,2.87,3.93,5.52,3.58Z"/>
        <path class="cls-7" d="M126.73,78.91h12.41c1.82,0,3.3-1.48,3.3-3.3h0c0-1.82-1.48-3.3-3.3-3.3h-12.41c-1.82,0-3.3,1.48-3.3,3.3h0c0,1.82,1.48,3.3,3.3,3.3Z"/>
        <path class="cls-7" d="M132.14,77.01h4.63c1.82,0,3.3-1.48,3.3-3.3h0c0-1.82-1.48-3.3-3.3-3.3h-4.63c-1.82,0-3.3,1.48-3.3,3.3h0c0,1.82,1.48,3.3,3.3,3.3Z"/>
        <path class="cls-7" d="M129.19,75.97h2.11c1.82,0,3.3-1.48,3.3-3.3h0c0-1.82-1.48-3.3-3.3-3.3h-2.11c-1.82,0-3.3,1.48-3.3,3.3h0c0,1.82,1.48,3.3,3.3,3.3Z"/>
        <path class="cls-7" d="M134.53,74.76l.39-.06c2.05-.31,3.43-2.02,3.08-3.81h0c-.35-1.79-2.29-2.99-4.33-2.68l-.39.06c-2.05.31-3.43,2.02-3.08,3.81h0c.35,1.79,2.29,2.99,4.33,2.68Z"/>
        <rect class="cls-9" x="0" y="47.13" width="27.1" height="8.51" rx="4.25" ry="4.25"/>
        <rect class="cls-9" x="1.12" y="44.66" width="17.53" height="8.51" rx="4.25" ry="4.25"/>
        <path class="cls-9" d="M19.44,51.54l-5.05.54c-2.34.25-4.43-1.44-4.69-3.78h0c-.25-2.34,1.44-4.43,3.78-4.69l5.05-.54c2.34-.25,4.43,1.44,4.69,3.78h0c.25,2.34-1.44,4.43-3.78,4.69Z"/>
        <path class="cls-9" d="M9.87,50.29l-.62-.07c-3.21-.35-5.42-2.51-4.94-4.84h0c.48-2.32,3.47-3.93,6.68-3.58l.62.07c3.21.35,5.42,2.51,4.94,4.84h0c-.48,2.32-3.47,3.93-6.68,3.58Z"/>
        <path class="cls-9" d="M129.82,22.29h20.32c3.14,0,5.69-2.55,5.69-5.69h0c0-3.14-2.55-5.69-5.69-5.69h-20.32c-3.14,0-5.69,2.55-5.69,5.69h0c0,3.14,2.55,5.69,5.69,5.69Z"/>
        <path class="cls-9" d="M139.71,19h9.13c3.14,0,5.69-2.55,5.69-5.69h0c0-3.14-2.55-5.69-5.69-5.69h-9.13c-3.14,0-5.69,2.55-5.69,5.69h0c0,3.14,2.55,5.69,5.69,5.69Z"/>
        <path class="cls-9" d="M134.33,17.21h6.65c3.14,0,5.69-2.55,5.69-5.69v-2.21c0-3.14-2.55-5.69-5.69-5.69h-6.65c-3.14,0-5.69,2.55-5.69,5.69v2.21c0,3.14,2.55,5.69,5.69,5.69Z"/>
        <path class="cls-2" d="M68.32,43.39c-.21-.01-.43,0-.64.01.1.23.36.34.6.41.4.12.81.22,1.23.28-.03-.37-.32-.67-.62-.9-.1-.07-.2-.14-.31-.17s-.25,0-.33.09c-.08.09-.1.24-.21.27"/>
        <path class="cls-9" d="M134.2,75.26h8.26c1.56,0,2.82-1.26,2.82-2.82h0c0-1.56-1.26-2.82-2.82-2.82h-8.26c-1.56,0-2.82,1.26-2.82,2.82h0c0,1.56,1.26,2.82,2.82,2.82Z"/>
        <path class="cls-9" d="M138.53,73.63h3.36c1.56,0,2.82-1.26,2.82-2.82h0c0-1.56-1.26-2.82-2.82-2.82h-3.36c-1.56,0-2.82,1.26-2.82,2.82h0c0,1.56,1.26,2.82,2.82,2.82Z"/>
        <path class="cls-9" d="M136.72,72.74h1.18c1.86,0,3.36-1.51,3.36-3.36h0c0-1.86-1.51-3.36-3.36-3.36h-1.18c-1.86,0-3.36,1.51-3.36,3.36h0c0,1.86,1.51,3.36,3.36,3.36Z"/>
        <ellipse class="cls-1" cx="80.58" cy="89.05" rx="32.7" ry="4.62"/>
        <path class="cls-6" d="M118.12,43.97c0,20.86-15.96,38.01-36.4,39.98-.02,0-.03,0-.05,0h-.05c-1.26.12-2.54.18-3.83.18-.81,0-1.61-.02-2.41-.08h-.06c-11.28-.67-21.31-5.97-28.21-14.01,4.16,1.22,8.59,1.77,13.16,1.56,22.25-1.03,39.46-19.84,38.43-42-.43-9.27-3.98-17.66-9.61-24.21,16.78,4.87,29.03,20.29,29.03,38.57Z"/>
        <ellipse class="cls-10" cx="106.33" cy="41.27" rx="4.14" ry="4.15"/>
        <ellipse class="cls-8" cx="105.96" cy="41.8" rx="4.14" ry="4.15"/>
        <circle class="cls-10" cx="102.96" cy="60.14" r="3.25"/>
        <circle class="cls-8" cx="102.67" cy="60.56" r="3.25"/>
        <circle class="cls-10" cx="85.55" cy="72.97" r="2.51"/>
        <circle class="cls-8" cx="85.33" cy="73.29" r="2.51"/>
        <path class="cls-8" d="M38.99,17.4c-7.23.56-7.68,1.02-8.24,8.24-.56-7.23-1.02-7.68-8.24-8.24,7.23-.56,7.68-1.02,8.24-8.24.56,7.23,1.02,7.68,8.24,8.24Z"/>
        <path class="cls-4" d="M77.51,41.74c-.43-.1-.88-.16-1.32-.18-.15,0-.3,0-.45.02-.38.08-.67.38-.85.71s-.24.71-.31,1.08c-.05.28-.1.56-.15.84-.01.06-.02.13.01.18.05.09.18.08.29.06.73-.14,1.48-.31,2.07-.74s.92-1.29.71-1.98"/>
        <path class="cls-4" d="M64.55,45.11c.31-.32.65-.6,1.01-.86.12-.09.25-.17.39-.22.36-.13.77-.04,1.09.15s.58.47.84.75c.19.21.38.42.58.63.04.05.09.1.09.16,0,.1-.11.16-.21.2-.68.27-1.4.53-2.13.48s-1.46-.6-1.65-1.3"/>
        <ellipse class="cls-3" cx="63.57" cy="47.26" rx=".55" ry="1.6" transform="translate(7.48 103.19) rotate(-81.54)"/>
        <ellipse class="cls-3" cx="79.51" cy="42.84" rx="1.6" ry=".55" transform="translate(-8.48 63.22) rotate(-41.36)"/>
        <ellipse class="cls-5" cx="71.92" cy="46.84" rx=".4" ry="1.66" transform="translate(7.86 103.95) rotate(-74.79)"/>
        <ellipse class="cls-5" cx="71.94" cy="46.86" rx="1.66" ry=".4" transform="translate(-9.31 74.59) rotate(-51.92)"/>
      </g>
    </symbol>
  </defs>
  <g id="Layer_18" data-name="Layer 18">
    <use width="155.83" height="93.67" xlink:href="#New_Symbol_15"/>
  </g>
</svg>