<?xml version="1.0" encoding="UTF-8"?>
<svg id="Layer_2" data-name="Layer 2" xmlns="http://www.w3.org/2000/svg" xmlns:xlink="http://www.w3.org/1999/xlink" viewBox="0 0 97.24 106.07">
  <defs>
    <style>
      .cls-1 {
        fill: #122540;
      }

      .cls-2 {
        fill: #fdf497;
      }

      .cls-3 {
        fill: url(#linear-gradient);
      }

      .cls-4 {
        fill: #fffad1;
      }

      .cls-5 {
        fill: #fcdc61;
      }

      .cls-6 {
        fill: none;
        stroke: #d8dadf;
        stroke-miterlimit: 10;
      }

      .cls-7 {
        fill: #d4bc39;
      }
    </style>
    <linearGradient id="linear-gradient" x1="38.98" y1="34.2" x2="88.88" y2="84.09" gradientUnits="userSpaceOnUse">
      <stop offset="0" stop-color="#faf9db"/>
      <stop offset=".31" stop-color="#fdf395"/>
      <stop offset="1" stop-color="#fddc61"/>
    </linearGradient>
    <symbol id="New_Symbol_16" data-name="New Symbol 16" viewBox="0 0 97.24 106.07">
      <g>
        <ellipse class="cls-1" cx="62.26" cy="101.45" rx="32.7" ry="4.62"/>
        <path class="cls-3" d="M97.24,59.14c0,22.19-18.06,40.18-40.33,40.18-.94,0-1.88-.03-2.8-.1V19.07c.92-.07,1.86-.1,2.8-.1,22.27,0,40.33,17.99,40.33,40.17Z"/>
        <ellipse class="cls-7" cx="85.44" cy="56.45" rx="4.14" ry="4.15"/>
        <ellipse class="cls-5" cx="85.08" cy="56.98" rx="4.14" ry="4.15"/>
        <circle class="cls-7" cx="82.08" cy="75.32" r="3.25"/>
        <circle class="cls-5" cx="81.79" cy="75.73" r="3.25"/>
        <ellipse class="cls-7" cx="63.07" cy="52.93" rx="1.65" ry="1.7"/>
        <ellipse class="cls-5" cx="62.92" cy="53.15" rx="1.65" ry="1.7"/>
        <ellipse class="cls-7" cx="67.73" cy="43.69" rx="3.3" ry="3.4"/>
        <ellipse class="cls-5" cx="67.44" cy="44.13" rx="3.3" ry="3.4"/>
        <circle class="cls-7" cx="64.67" cy="88.15" r="2.51"/>
        <circle class="cls-5" cx="64.45" cy="88.47" r="2.51"/>
        <path class="cls-6" d="M60.88,66.84"/>
        <path class="cls-4" d="M59.01,65.88"/>
        <path class="cls-4" d="M56.53,64.75"/>
        <path class="cls-4" d="M54.24,66.65c.04,2.92.29,7.92-.07,10.79-.33,2.6-.75,5.41-2.55,7.12-.32.31-.72.58-1.17.52-.68-.09-1.08-.87-1.36-1.54-.76-1.81-.92-3.34-1.1-5.29-.11-1.19-.03-2.18.08-3.35.14-1.46.47-2.84.94-4.2.72-2.08,1.39-4.37,2.87-5.72-2.43-1.15-4.17-3.93-4.18-6.7-.22.4-.68.55-1.1.68-4.56,1.36-9.19,2.48-13.88,3.36-.81.15-2.71.68-3.37.1-.54-.48-.33-1.23-.2-1.93s1.13-1.78,1.55-2.32c3.9-5.07,10.19-5.35,16.8-2.59,1.25.44,2.41-1.81,3.43-2.58.66-.5,2.16-1.28,3.35-.62"/>
        <path class="cls-4" d="M53.68,55.99c-.02.86.34,1.71.94,2.33s1.41,1.02,2.26,1.15c.78.12,1.72-.05,2.09-.75.29-.54.13-1.23-.24-1.72s-.92-.8-1.47-1.06c-.2-.1-.41-.19-.59-.32-.2-.14-.37-.33-.55-.49-.46-.41-1.04-.7-1.64-.83-.43-.09-.95-.07-1.21.29"/>
        <path class="cls-4" d="M54.5,69.16c.25.1.63.34.9.35.57.02,1.06.26,1.64.28.52.02,1.13,0,1.45-.42.21-.27.23-.66.12-.99s-.34-.6-.58-.85c-.35-.36-.76-.67-1.22-.87-.96-.42-1.15-.84-1.81-1.58-.49-.54-1.06-.83-1.54-.16-.75,1.06-.18,3.72,1.04,4.22Z"/>
        <rect class="cls-2" x="61.49" y="48.63" width="1.45" height="2.2"/>
        <path class="cls-5" d="M17.99,10.58c-7.23.56-7.68,1.02-8.24,8.24-.56-7.23-1.02-7.68-8.24-8.24,7.23-.56,7.68-1.02,8.24-8.24.56,7.23,1.02,7.68,8.24,8.24Z"/>
        <path class="cls-5" d="M37.63,28.22c-4.86.38-5.17.69-5.55,5.55-.38-4.86-.69-5.17-5.55-5.55,4.86-.38,5.17-.69,5.55-5.55.38,4.86.69,5.17,5.55,5.55Z"/>
        <path class="cls-5" d="M15.79,82.27c-6.92.54-7.36.98-7.9,7.9-.54-6.92-.98-7.36-7.9-7.9,6.92-.54,7.36-.98,7.9-7.9.54,6.92.98,7.36,7.9,7.9Z"/>
        <path class="cls-5" d="M51.55,3.53c-3.09.24-3.29.44-3.53,3.53-.24-3.09-.44-3.29-3.53-3.53,3.09-.24,3.29-.44,3.53-3.53.24,3.09.44,3.29,3.53,3.53Z"/>
      </g>
    </symbol>
  </defs>
  <g id="Layer_5" data-name="Layer 5">
    <use width="97.24" height="106.07" xlink:href="#New_Symbol_16"/>
  </g>
</svg>