<?xml version="1.0" encoding="UTF-8"?>
<svg id="Layer_2" data-name="Layer 2" xmlns="http://www.w3.org/2000/svg" xmlns:xlink="http://www.w3.org/1999/xlink" viewBox="0 0 95.76 113.09">
  <defs>
    <style>
      .cls-1 {
        fill: #122540;
      }

      .cls-2 {
        fill: #fbc6bb;
      }

      .cls-3 {
        fill: url(#linear-gradient);
      }

      .cls-4 {
        stroke: #1a2e4b;
        stroke-dasharray: 0 0 0 0 0 0;
        stroke-linecap: round;
        stroke-linejoin: round;
        stroke-width: .4px;
      }

      .cls-4, .cls-5 {
        fill: #1a2e4b;
      }

      .cls-6 {
        fill: #fffad1;
      }

      .cls-7 {
        fill: #fcdc61;
      }

      .cls-8 {
        fill: #d4bc39;
      }
    </style>
    <linearGradient id="linear-gradient" x1="37.5" y1="40.73" x2="87.4" y2="90.63" gradientUnits="userSpaceOnUse">
      <stop offset="0" stop-color="#faf9db"/>
      <stop offset=".31" stop-color="#fdf395"/>
      <stop offset="1" stop-color="#fddc61"/>
    </linearGradient>
    <symbol id="New_Symbol_17" data-name="New Symbol 17" viewBox="0 0 95.76 113.09">
      <g>
        <ellipse class="cls-1" cx="59.56" cy="108.47" rx="32.7" ry="4.62"/>
        <path class="cls-3" d="M95.76,65.68c0,22.19-18.06,40.18-40.33,40.18-.94,0-1.88-.03-2.8-.1V25.61c.92-.07,1.86-.1,2.8-.1,22.27,0,40.33,17.99,40.33,40.17Z"/>
        <ellipse class="cls-8" cx="83.96" cy="62.98" rx="4.14" ry="4.15"/>
        <ellipse class="cls-7" cx="83.6" cy="63.52" rx="4.14" ry="4.15"/>
        <circle class="cls-8" cx="80.6" cy="81.85" r="3.25"/>
        <circle class="cls-7" cx="80.31" cy="82.27" r="3.25"/>
        <ellipse class="cls-8" cx="61.59" cy="59.47" rx="1.65" ry="1.7"/>
        <ellipse class="cls-7" cx="61.44" cy="59.68" rx="1.65" ry="1.7"/>
        <ellipse class="cls-8" cx="66.25" cy="50.23" rx="3.3" ry="3.4"/>
        <ellipse class="cls-7" cx="65.96" cy="50.67" rx="3.3" ry="3.4"/>
        <circle class="cls-8" cx="63.19" cy="94.69" r="2.51"/>
        <circle class="cls-7" cx="62.97" cy="95.01" r="2.51"/>
        <path class="cls-6" d="M50.82,76.36c.04.77-.31,1.55-.15,2.3.14.65.64,1.16,1.12,1.63.71.68,1.45,1.37,2.37,1.72.49.19,1.03.27,1.54.14s.96-.53,1.07-1.04c.15-.7-.34-1.38-.9-1.81s-1.25-.73-1.74-1.24c-.4-.42-.65-.97-.97-1.46s-.75-.96-1.32-1.09-1.27.25-1.3.83"/>
        <path class="cls-6" d="M50.55,71.62c-.2,1.15.26,2.39,1.15,3.15s2.19,1,3.29.61c.63-.22,1.26-.84,1.02-1.46-.11-.3-.4-.49-.65-.68-.33-.25-.63-.54-.9-.85-.45-.52-.81-1.11-1.31-1.57s-1.2-.79-1.86-.63-1.15.99-.79,1.57"/>
        <path class="cls-6" d="M30.68,67.87c.05,1.9.1,4.05,1.29,5.54.78.98,1.82,1.9,1.92,3.15.03.41-.03.85.19,1.19.19.29.54.42.87.52,3.03.89,6.47.22,8.94-1.74s3.91-5.15,3.73-8.3c-.02-.28-.04-.57-.15-.83-.16-.4,2-1.29,1.7-1.6-.92-1-.02-2.19-1.17-2.92-2.38-1.52-6.81-.76-8.01-1.42"/>
        <path class="cls-6" d="M45.39,64.66c1.9-2.53,5.54-6.96,7.22-9.63.12,4.9.03,10.34.14,15.24"/>
        <path class="cls-6" d="M24.54,59.23c4.75,4.13,7.88,6.64,7.03,7.95s-4.03-.58-10.12-3.2c-5.19-2.23-7.88-6.64-7.03-7.95s5.88-.49,10.12,3.2Z"/>
        <path class="cls-6" d="M47.73,65c-2.42,2.35-3.73,5.73-3.83,9.1-.01.42,0,.85.16,1.23.15.35.41.63.68.89,1.5,1.42,3.49,2.31,5.55,2.47.3.02.62.03.89-.09.37-.17.6-.55.72-.94.14-.44.75-.54.76-1.01.03-.88-.03-2.2,0-3.09.03-1,.85-.56.51-1.51-.25-.71-.64-2.81-.86-3.53-.18-.59-1.54-1.2-1.91-1.69-.27-.36-.68-.58-1.08-.78-.92-.48-1.83-.95-2.75-1.43"/>
        <path class="cls-6" d="M44.17,66.46c-2.26,3.3-.43,5.76-6.38,8.26-1.06.44-8.87.23-7.57-7.28.68-3.97,2.06-6.54,6.66-6.78,8.11-.43,8.05,4.7,7.3,5.8Z"/>
        <path class="cls-6" d="M38.94,51.23c.07,6.29.28,10.3-1.27,10.54s-2.24-3.4-4.33-9.69c-1.78-5.36-.28-10.3,1.27-10.54,1.55-.23,4.28,4.07,4.33,9.69Z"/>
        <path class="cls-6" d="M41.53,61.9c1.04-.07,2.97,2.06,4,1.94,1.64-.19,2.94-3.19,3.95-2.98-.03-.12-.05-.23-.08-.35"/>
        <path class="cls-7" d="M32.4,93.6c-2.97.23-3.16.42-3.39,3.39-.23-2.97-.42-3.16-3.39-3.39,2.97-.23,3.16-.42,3.39-3.39.23,2.97.42,3.16,3.39,3.39Z"/>
        <path class="cls-7" d="M22.38,34.8c-5.67.44-6.03.8-6.47,6.47-.44-5.67-.8-6.03-6.47-6.47,5.67-.44,6.03-.8,6.47-6.47.44,5.67.8,6.03,6.47,6.47Z"/>
        <path class="cls-7" d="M42.51,26.1c-1.77.14-1.88.25-2.02,2.02-.14-1.77-.25-1.88-2.02-2.02,1.77-.14,1.88-.25,2.02-2.02.14,1.77.25,1.88,2.02,2.02Z"/>
        <path class="cls-7" d="M11.01,75.43c-4.82.38-5.13.68-5.5,5.5-.38-4.82-.68-5.13-5.5-5.5,4.82-.38,5.13-.68,5.5-5.5.38,4.82.68,5.13,5.5,5.5Z"/>
        <path class="cls-7" d="M61.86,7.59c-6.65.52-7.07.94-7.59,7.59-.52-6.65-.94-7.07-7.59-7.59,6.65-.52,7.07-.94,7.59-7.59.52,6.65.94,7.07,7.59,7.59Z"/>
        <path class="cls-4" d="M33.1,73.55c.23-.21.4-.29.72-.31.18-.01.36.09.51.19.55.38.98.94,1.23,1.56-.51.11-1.06.02-1.51-.24s-.79-.7-.94-1.2"/>
        <path class="cls-4" d="M33.1,73.55c.23-.21.4-.29.72-.31.18-.01.36.09.51.19.55.38.98.94,1.23,1.56-.51.11-1.06.02-1.51-.24s-.79-.7-.94-1.2"/>
        <path class="cls-4" d="M40.11,70.02c-.39.03-.61.11-.91.37-.18.15-.26.39-.31.61-.19.82-.13,1.67.16,2.41.56-.36.99-.92,1.18-1.54s.15-1.3-.12-1.86"/>
        <ellipse class="cls-2" cx="33.29" cy="75.94" rx=".45" ry="1" transform="translate(-46.76 97.53) rotate(-81.42)"/>
        <ellipse class="cls-2" cx="42.26" cy="71.33" rx="1.6" ry=".55" transform="translate(-39.93 60.45) rotate(-51.81)"/>
        <ellipse class="cls-5" cx="37.83" cy="75.66" rx=".31" ry="1.28" transform="translate(-45.1 92.32) rotate(-74.79)"/>
        <ellipse class="cls-5" cx="37.84" cy="75.67" rx="1.28" ry=".31" transform="translate(-45.06 58.79) rotate(-51.92)"/>
      </g>
    </symbol>
  </defs>
  <g id="Layer_18" data-name="Layer 18">
    <use width="95.76" height="113.09" xlink:href="#New_Symbol_17"/>
  </g>
</svg>