<?xml version="1.0" encoding="UTF-8"?>
<svg id="Layer_2" data-name="Layer 2" xmlns="http://www.w3.org/2000/svg" xmlns:xlink="http://www.w3.org/1999/xlink" viewBox="0 0 71.21 123.79">
  <defs>
    <style>
      .cls-1 {
        fill: #122540;
      }

      .cls-2 {
        fill: #1f3453;
      }

      .cls-3 {
        fill: url(#linear-gradient);
      }

      .cls-4 {
        fill: #fffad1;
      }

      .cls-5 {
        fill: #fcdc61;
      }

      .cls-6 {
        fill: #d4bc39;
      }
    </style>
    <linearGradient id="linear-gradient" x1="9.15" y1="54.15" x2="59.34" y2="104.34" gradientUnits="userSpaceOnUse">
      <stop offset="0" stop-color="#faf9db"/>
      <stop offset=".31" stop-color="#fdf395"/>
      <stop offset="1" stop-color="#fddc61"/>
    </linearGradient>
    <symbol id="New_Symbol_2" data-name="New Symbol 2" viewBox="0 0 71.21 123.79">
      <g>
        <ellipse class="cls-1" cx="33.68" cy="119.17" rx="32.7" ry="4.62"/>
        <path class="cls-3" d="M71.21,75.88c0,18.58-12.66,34.2-29.85,38.8-3.34.89-6.86,1.37-10.49,1.37-3.31,0-6.54-.4-9.62-1.16h-.02c-8.42-2.05-15.81-6.75-21.23-13.15,17.62-1.49,31.81-14.16,35.78-30.6-.33-.31-.54-.76-.54-1.26,0-.39.13-.75.35-1.04.18-.33.46-.6.8-.75.44-2.67.6-5.43.47-8.24-.43-9.17-3.9-17.48-9.42-23.99,1.13-.1,2.27-.15,3.43-.15,22.28,0,40.34,17.98,40.34,40.17Z"/>
        <ellipse class="cls-6" cx="59.41" cy="73.18" rx="4.14" ry="4.15"/>
        <ellipse class="cls-5" cx="59.04" cy="73.71" rx="4.14" ry="4.15"/>
        <circle class="cls-6" cx="56.04" cy="92.05" r="3.25"/>
        <circle class="cls-5" cx="55.76" cy="92.47" r="3.25"/>
        <circle class="cls-6" cx="27.4" cy="95.72" r="3.42"/>
        <circle class="cls-5" cx="27.1" cy="96.16" r="3.42"/>
        <path class="cls-6" d="M38.69,69.67c0,.42-.15.8-.4,1.1-.29.37-.75.6-1.25.6-.46,0-.88-.19-1.19-.51h0c-.29-.31-.47-.73-.47-1.19,0-.3.08-.59.21-.83.18-.33.46-.6.8-.75.2-.08.42-.13.65-.13.91,0,1.65.76,1.65,1.71Z"/>
        <ellipse class="cls-6" cx="41.7" cy="60.43" rx="3.3" ry="3.4"/>
        <ellipse class="cls-5" cx="41.41" cy="60.86" rx="3.3" ry="3.4"/>
        <circle class="cls-6" cx="38.64" cy="104.89" r="2.51"/>
        <circle class="cls-5" cx="38.42" cy="105.21" r="2.51"/>
        <path class="cls-2" d="M36.39,68.09c-.01.06-.01.12-.03.18-.14.87-.31,1.73-.51,2.58h0c-.02.11-.04.19-.07.29-.33-.31-.54-.76-.54-1.26,0-.39.13-.75.35-1.04.18-.33.46-.6.8-.75Z"/>
        <path class="cls-4" d="M38.89,17.78c-1,1.02-3.13,4.42-3.02,5.85.09,1.1.54,2.19.31,3.28-.19.92-.85,1.72-.89,2.65-.06,1.42,1.31,2.47,2.62,3.02,2.85,1.18,6.18,1.18,9.03,0"/>
        <path class="cls-4" d="M38.61,17.94c.29-3.53.99-7.07,2.55-10.25S45.19,1.7,48.37.16c.2-.1.41-.19.63-.15.34.06.54.4.68.72,1.37,3.14.74,6.87-.91,9.87-1.16,2.12-2.78,3.94-4.38,5.47-.57.54-.33,1.48.42,1.7,0,0,.02,0,.03,0,.51.15,1.17.55,1.69,1.01.45.4,1.15.28,1.49-.21,3.24-4.81,8.43-8.44,14.14-8.95.67-.06,1.21.53,1.1,1.19-.2,1.19-.76,2.32-1.49,3.29-.98,1.31-2.26,2.36-3.55,3.35-2.07,1.59-4.4,3.12-6.72,3.67-.57.13-.91.71-.74,1.27.51,1.6,1.04,3.25,1.08,4.89.01.61.03.95-.15,1.53s-1.08,1.42-1.63,1.69"/>
        <path class="cls-4" d="M37.85,40.29c.76,6.32-.17,12.83-2.68,18.67-.23.54-.47,1.21-.12,1.69.11.16.28.27.44.36,1.59.91,3.86.36,4.86-1.18.38-.58.62-1.31,1.23-1.63.29-.15.63-.19.95-.25,1.07-.19,2.41-.38,3.41-.79,2.13-.88,3.84-1.07,5.97-1.96.18,1.47,0,2.24.88,3.45.15.2.64.41.88.46.33.07,1.15-.43,1.39-.67,1.88-1.92,2.57-4.77,2.44-7.46s-1-5.28-1.87-7.83c-1.45-4.3-4.85-7.96-4.95-13.63"/>
        <path class="cls-4" d="M37.42,31.47c-1.66-.02-4.01,1.31-5.05,2.36s-1.54,2.42-1.57,3.77c0,.18,0,.38.15.52.27.24.77.12,1.09-.08.86-.55,2.8-1.86,3.9-1.92"/>
        <path class="cls-4" d="M56.6,49.88c.77.47,2.86,1.32,3.75,1.15,1.02-.19,1.71-1.25,1.77-2.29s-.39-2.04-.93-2.92c-.43-.7-1.01-1.41-1.82-1.54-.6-.1-1.21.14-1.69.51s-1.54,1.23-1.9,1.71"/>
        <path class="cls-4" d="M50.87,25.89c0,4.74-3.34,9.4-7.28,9.4s-6.98-4.66-6.98-9.4,1.3-8.59,7.13-8.58c3.94,0,7.13,3.84,7.13,8.58Z"/>
        <path class="cls-4" d="M42.71,33.11c2.85,2.06,4.07,5.22,2.74,7.07s-6,4.23-7.78-.11c-1.66-4.04-3.87-5.48-2.53-7.33s4.73-1.69,7.58.37Z"/>
        <polygon class="cls-4" points="10.63 14.98 11.19 14.43 32.38 35.62 31.82 36.17 10.63 14.98"/>
        <rect class="cls-4" x="10.63" y="14.99" width=".3" height="44.42"/>
        <path class="cls-5" d="M11.19,59.43l.73,2.25c.18.54.68.91,1.25.91h2.37c.38,0,.54.49.23.71l-1.92,1.39c-.46.34-.65.93-.48,1.47l.73,2.25c.12.36-.3.66-.61.44l-1.92-1.39c-.46-.34-1.09-.34-1.55,0l-1.92,1.39c-.31.22-.72-.08-.61-.44l.73-2.25c.18-.54-.02-1.14-.48-1.47l-1.92-1.39c-.31-.22-.15-.71.23-.71h2.37c.57,0,1.08-.37,1.25-.91l.73-2.25c.12-.36.63-.36.75,0Z"/>
      </g>
    </symbol>
  </defs>
  <g id="Layer_11" data-name="Layer 11">
    <use width="71.21" height="123.79" xlink:href="#New_Symbol_2"/>
  </g>
</svg>