<?xml version="1.0" encoding="UTF-8"?>
<svg id="Layer_2" data-name="Layer 2" xmlns="http://www.w3.org/2000/svg" xmlns:xlink="http://www.w3.org/1999/xlink" viewBox="0 0 71.21 131.37">
  <defs>
    <style>
      .cls-1 {
        fill: #122540;
      }

      .cls-2 {
        fill: #fbc6bb;
      }

      .cls-3 {
        fill: #1f3453;
      }

      .cls-4 {
        fill: url(#linear-gradient);
      }

      .cls-5 {
        stroke: #1a2e4b;
        stroke-dasharray: 0 0 0 0 0 0;
        stroke-linecap: round;
        stroke-linejoin: round;
        stroke-width: .4px;
      }

      .cls-5, .cls-6 {
        fill: #1a2e4b;
      }

      .cls-7 {
        fill: #fffad1;
      }

      .cls-8 {
        fill: #fcdc61;
      }

      .cls-9 {
        fill: #d4bc39;
      }
    </style>
    <linearGradient id="linear-gradient" x1="9.15" y1="61.73" x2="59.34" y2="111.92" gradientUnits="userSpaceOnUse">
      <stop offset="0" stop-color="#faf9db"/>
      <stop offset=".31" stop-color="#fdf395"/>
      <stop offset="1" stop-color="#fddc61"/>
    </linearGradient>
    <symbol id="New_Symbol_3" data-name="New Symbol 3" viewBox="0 0 71.21 131.37">
      <g>
        <ellipse class="cls-1" cx="33.68" cy="126.75" rx="32.7" ry="4.62"/>
        <path class="cls-4" d="M71.21,83.46c0,18.58-12.66,34.2-29.85,38.8-3.34.89-6.86,1.37-10.49,1.37-3.31,0-6.54-.4-9.62-1.16h-.02c-8.42-2.05-15.81-6.75-21.23-13.15,17.62-1.49,31.81-14.16,35.78-30.6-.33-.31-.54-.76-.54-1.26,0-.39.13-.75.35-1.04.18-.33.46-.6.8-.75.44-2.67.6-5.43.47-8.24-.43-9.17-3.9-17.48-9.42-23.99,1.13-.1,2.27-.15,3.43-.15,22.28,0,40.34,17.98,40.34,40.17Z"/>
        <ellipse class="cls-9" cx="59.41" cy="80.76" rx="4.14" ry="4.15"/>
        <ellipse class="cls-8" cx="59.04" cy="81.29" rx="4.14" ry="4.15"/>
        <circle class="cls-9" cx="56.04" cy="99.63" r="3.25"/>
        <circle class="cls-8" cx="55.76" cy="100.05" r="3.25"/>
        <circle class="cls-9" cx="27.4" cy="103.3" r="3.42"/>
        <circle class="cls-8" cx="27.1" cy="103.74" r="3.42"/>
        <path class="cls-9" d="M38.69,77.25c0,.42-.15.8-.4,1.1-.29.37-.75.6-1.25.6-.46,0-.88-.19-1.19-.51h0c-.29-.31-.47-.73-.47-1.19,0-.3.08-.59.21-.83.18-.33.46-.6.8-.75.2-.08.42-.13.65-.13.91,0,1.65.76,1.65,1.71Z"/>
        <ellipse class="cls-9" cx="41.7" cy="68.01" rx="3.3" ry="3.4"/>
        <ellipse class="cls-8" cx="41.41" cy="68.44" rx="3.3" ry="3.4"/>
        <circle class="cls-9" cx="38.64" cy="112.46" r="2.51"/>
        <circle class="cls-8" cx="38.42" cy="112.79" r="2.51"/>
        <path class="cls-3" d="M36.39,75.67c-.01.06-.01.12-.03.18-.14.87-.31,1.73-.51,2.58h0c-.02.11-.04.19-.07.29-.33-.31-.54-.76-.54-1.26,0-.39.13-.75.35-1.04.18-.33.46-.6.8-.75Z"/>
        <path class="cls-7" d="M50.97,47c-1.05.89-2.93,1.99-3.98,2.88-.49.42-1.05.85-1.69.83-.83-.03-1.46-.85-1.71-1.68-.5-1.64.89-4.07,2.25-5.01"/>
        <path class="cls-7" d="M39.36,41.81c-.78.37-2.3,1.37-2.82,2.08-.25.34-.42.75-.71,1.06-.84.94-2.52.67-3.26-.4s-1.48-3.91,1.12-5.43"/>
        <path class="cls-7" d="M32.24,20.94c-.5,1.23-.88,3.74-.36,5.15.61,1.66.27,2.34.29,3.84,0,.54.06.84.18,1.37.36,1.48,3.45,2.22,4.91,2.35,3.78.35,7.51-1.15,10.26-3.8"/>
        <path class="cls-7" d="M32.28,21.03c-5.06-2.4-8.92-8.74-9.66-14.81-.1-.79.56-1.29,1.22-.87,4.21,2.73,8.31,7.2,10.19,11.97.24.6.24,1.68.73,1.29,1.14-.92,2.79-1.63,4.07-1.84.65-.11,2.48-.43,3.11-.24s.35-.74.32-1.39c-.08-1.93.29-3.7.9-5.33.79-2.13,1.97-4.08,3.17-5.98.63-1,1.3-2.01,2.17-2.78.46-.41,1.4-1.45,1.7-.88.45.86.76,3.28.7,4.26-.46,6.92-2.16,8.93-5.32,12.51-.3.34.52.97.78,1.36.74,1.09,1.5,2.19,1.98,3.42.57,1.47.99,3.08.73,4.64-.12.71-.36,1.39-.6,2.07-.19.55-.65,1.16-1.09,1.66-.16.18-1.19,1.01-1.39.86"/>
        <path class="cls-7" d="M46.03,30.32c.56,2.5,3.9,4.68,5.3,6.81,2.15,3.27,4.29,6.54,6.48,9.78,1.02,1.51,2.06,3.02,3.32,4.32,1.2,1.23,2.59,2.27,3.55,3.71s1,4.77.05,6.17"/>
        <path class="cls-7" d="M60.17,53.64c0-1.19.44-4.12,1.2-4.99.88-1,2.47-1.03,3.64-.36s1.96,1.86,2.56,3.09c.48.97.86,2.11.49,3.11-.28.74-.94,1.25-1.65,1.52s-2.34.86-3.1.92"/>
        <path class="cls-7" d="M34.09,32.85c20.97,4.82-.04,6.28-.88,8.12"/>
        <path class="cls-7" d="M41.96,42.57c-1.99-.62-3.78-1.61-5.62-2.61-.86-.47-1.88-.88-2.74-.46.02-.08.43-.29.45-.37"/>
        <path class="cls-7" d="M63.08,57.67"/>
        <path class="cls-7" d="M51.98,50.52c-2.61-1.43-4.73-3.43-7.6-4.16-1.02-.26-2.24-.8-3.13-1.13-1.65-.62-4.82-.72-5.82-1.37-.55-.36,1.07-1.11,1.07-1.77,0-.61-2.32-1.64-1.99-2.14.88-1.33,4.44-2.16,5.35-3.47.41-.59-3.94-2.25-3.32-2.59.5-.27,4.7-1.21,5.26-1.28,1.77-.24,2.25-1.42,4.02-1.66-.31-3.03,7.72,9.1,9.78,12.67.92,1.59,1.84,3.18,2.73,4.78.39.7.78,1.41,1.24,2.06.58.83,1.28,1.56,1.93,2.34,1.43,1.73,2.59,3.67,3.74,5.61.18.3-.34.78-.32,1.13.03.59.29.89-.13,1.28-.08.07.06.82-.04.79-.05-.02-.42-.61-.46-.65-2.34-2.41-4.74-4.82-7.07-7.22"/>
        <polygon class="cls-7" points="11.63 23.45 12.18 22.9 33.37 44.09 32.82 44.64 11.63 23.45"/>
        <rect class="cls-7" x="11.62" y="23.46" width=".3" height="44.42"/>
        <path class="cls-8" d="M12.19,67.9l.73,2.25c.18.54.68.91,1.25.91h2.37c.38,0,.54.49.23.71l-1.92,1.39c-.46.34-.65.93-.48,1.47l.73,2.25c.12.36-.3.66-.61.44l-1.92-1.39c-.46-.34-1.09-.34-1.55,0l-1.92,1.39c-.31.22-.72-.08-.61-.44l.73-2.25c.18-.54-.02-1.14-.48-1.47l-1.92-1.39c-.31-.22-.15-.71.23-.71h2.37c.57,0,1.08-.37,1.25-.91l.73-2.25c.12-.36.63-.36.75,0Z"/>
        <path class="cls-5" d="M41.42,27.86c.09-.62.33-1.22.7-1.74.19-.27.43-.53.72-.68s.66-.21.97-.08c.24.1.43.3.6.5.16.18.31.38.37.61-1.24.14-2.43.67-3.37,1.48-.03.02.12-.18.13-.14s-.14.14-.14.11"/>
        <path class="cls-5" d="M32.91,27c.06-.24.23-.48.54-.53.14-.03.29-.04.43,0,.88.22,1.63,1.04,1.82,2.01-.28-.04-.52-.25-.75-.43-.44-.34-.93-.6-1.44-.76-.17-.06-.52-.11-.59-.29"/>
        <ellipse class="cls-2" cx="32.46" cy="28.94" rx=".5" ry="1" transform="translate(-1.89 55.61) rotate(-79.55)"/>
        <ellipse class="cls-2" cx="46.57" cy="27.13" rx="1.6" ry=".55" transform="translate(-5.33 12.61) rotate(-14.59)"/>
        <ellipse class="cls-6" cx="38.52" cy="30.44" rx=".4" ry="1.66" transform="translate(-7.31 48.04) rotate(-59.32)"/>
        <ellipse class="cls-6" cx="38.54" cy="30.46" rx="1.66" ry=".4" transform="translate(-10.56 28.85) rotate(-36.45)"/>
      </g>
    </symbol>
  </defs>
  <g id="Layer_18" data-name="Layer 18">
    <use width="71.21" height="131.37" xlink:href="#New_Symbol_3"/>
  </g>
</svg>