<?xml version="1.0" encoding="UTF-8"?>
<svg id="Layer_2" data-name="Layer 2" xmlns="http://www.w3.org/2000/svg" xmlns:xlink="http://www.w3.org/1999/xlink" viewBox="0 0 116.23 144">
  <defs>
    <style>
      .cls-1 {
        fill: #122540;
      }

      .cls-2, .cls-3, .cls-4, .cls-5 {
        fill: none;
      }

      .cls-6 {
        fill: #fbc6bb;
      }

      .cls-7 {
        fill: #1a2e4b;
        stroke: #1a2e4b;
      }

      .cls-7, .cls-4 {
        stroke-width: .4px;
      }

      .cls-7, .cls-4, .cls-5 {
        stroke-linecap: round;
        stroke-linejoin: round;
      }

      .cls-8 {
        fill: url(#linear-gradient);
      }

      .cls-3, .cls-5 {
        stroke-width: .5px;
      }

      .cls-3, .cls-9 {
        stroke: #fffad1;
        stroke-miterlimit: 10;
      }

      .cls-10, .cls-9 {
        fill: #fffad1;
      }

      .cls-11 {
        fill: #12243f;
      }

      .cls-4, .cls-5 {
        stroke: #fbf9d2;
      }

      .cls-5 {
        stroke-dasharray: 0 0 0 0 0 0;
      }

      .cls-12 {
        fill: #fcdc61;
      }

      .cls-13 {
        fill: #d4bc39;
      }
    </style>
    <linearGradient id="linear-gradient" x1="43.81" y1="9.37" x2="89.39" y2="54.95" gradientUnits="userSpaceOnUse">
      <stop offset="0" stop-color="#faf9db"/>
      <stop offset=".31" stop-color="#fdf395"/>
      <stop offset="1" stop-color="#fddc61"/>
    </linearGradient>
    <symbol id="New_Symbol" data-name="New Symbol" viewBox="0 0 98.89 144">
      <g>
        <ellipse class="cls-1" cx="46.72" cy="123.51" rx="32.7" ry="4.62"/>
        <ellipse class="cls-8" cx="66.6" cy="32.16" rx="32.29" ry="32.16"/>
        <circle class="cls-13" cx="89.44" cy="30" r="3.32"/>
        <circle class="cls-12" cx="89.15" cy="30.43" r="3.32"/>
        <circle class="cls-13" cx="82.21" cy="42.26" r="2.61"/>
        <circle class="cls-12" cx="81.98" cy="42.6" r="2.61"/>
        <circle class="cls-13" cx="52.46" cy="54.29" r="1.67"/>
        <circle class="cls-12" cx="52.31" cy="54.5" r="1.67"/>
        <circle class="cls-13" cx="52.46" cy="54.29" r="1.67"/>
        <circle class="cls-12" cx="52.31" cy="54.5" r="1.67"/>
        <circle class="cls-13" cx="63.82" cy="48.04" r="2.74"/>
        <circle class="cls-12" cx="63.58" cy="48.4" r="2.74"/>
        <ellipse class="cls-13" cx="43.23" cy="34.15" rx="4.47" ry="4.61"/>
        <ellipse class="cls-12" cx="42.83" cy="34.74" rx="4.47" ry="4.61"/>
        <ellipse class="cls-13" cx="52.23" cy="20.63" rx="2.69" ry="2.77"/>
        <ellipse class="cls-12" cx="52" cy="20.98" rx="2.69" ry="2.77"/>
        <ellipse class="cls-13" cx="71.53" cy="27.19" rx="1.32" ry="1.36"/>
        <ellipse class="cls-12" cx="71.41" cy="27.36" rx="1.32" ry="1.36"/>
        <ellipse class="cls-13" cx="75.26" cy="19.79" rx="2.64" ry="2.72"/>
        <ellipse class="cls-12" cx="75.03" cy="20.14" rx="2.64" ry="2.72"/>
        <circle class="cls-13" cx="76.12" cy="56.83" r="2.01"/>
        <circle class="cls-12" cx="75.94" cy="57.08" r="2.01"/>
        <circle class="cls-13" cx="61.18" cy="37.06" r="1.79"/>
        <circle class="cls-12" cx="61.02" cy="37.29" r="1.79"/>
        <path class="cls-10" d="M29.42,118.82c2.49.02,4.74-1.81,5.9-4.1s1.38-4.99,1.27-7.58c-.08-1.74-.33-3.59-1.4-4.93-.17-.21-.4-.43-.67-.4-.17.02-.32.13-.46.23-1.53,1.08-3.56.76-5.4.95-2.5.26-4.89,1.58-6.5,3.6s-2.42,4.71-2.79,7.69c-1.91,4.59-5.41,8.45-9.71,10.69-1.21.63-2.5,1.15-3.53,2.07s-1.76,2.38-1.41,3.74c.38,1.48,1.94,2.36,3.41,2.39s2.87-.6,4.21-1.25c3.45-1.66,7.13-3.85,8.3-7.62.61-1.97.47-4.23,1.47-6.03"/>
        <path class="cls-10" d="M20.92,110.1c-4.73,4.3-11.03,6.69-17.3,6.55-.49-.01-1-.03-1.43.2-.42.23-.71.67-.87,1.14-.55,1.57.14,3.43,1.41,4.45s2.98,1.31,4.56,1.07,3.07-.93,4.5-1.7c4.18-2.26,8.01-5.2,11.31-8.7"/>
        <path class="cls-10" d="M20.37,116.58c.25,3.26.5,6.53.76,9.79.11,1.37.25,2.84,1.07,3.91.46.59,1.08,1.01,1.7,1.42,1.44.95,2.87,1.9,4.31,2.85.43.29.89.58,1.4.62.88.07,1.65-.62,2.13-1.4s.75-1.67,1.27-2.41c.63-.9,1.61-1.56,1.95-2.61.18-.57.16-1.18.13-1.78-.06-1.19-.12-2.41-.52-3.53-.34-.97-.92-1.82-1.53-2.64-1.09-1.45-2.32-2.83-3.84-3.78-.94-.58-2.05-1-3.11-.73"/>
        <path class="cls-10" d="M20.38,122.1c.04,1.83-.51,2.62-1.99,7.32-.2.62-1.02,2.89-1.04,3.55-.03,1.03,1.23.15,2.21.23s1.93-.5,2.58-1.27,1.05-1.74,1.43-2.69c.98-2.44,1.91-4.9,2.83-7.36"/>
        <path class="cls-10" d="M33.9,126.38c-1.01.96-1.61,2.38-1.61,3.8,0,.7.16,1.43.62,1.93s1.27.71,1.81.3c.33-.25.51-.65.68-1.05.39-.91.77-1.83.95-2.81.03-.19-.03-.48-.21-.43"/>
        <path class="cls-9" d="M25.88,117.65c.46,3.56.44,7.18-.04,10.74-.35,2.58-1,5.22-2.63,7.19s-4.48,3.04-6.71,1.89c-.16-.08-.31-.18-.4-.33-.15-.26-.07-.6.03-.89.8-2.29,2.24-4.27,3.23-6.47,1.6-3.54,2-7.52,2.38-11.41,0,0,12.41-2.45,13.46-3.94.45,1.37,1.31,3.55,1.76,4.92.02.07-.24.34-.18.38.11.08-.57-.79-.44-.84,1.04-.41,3.01-1.03,3.76-2.04.2-.26.49-.57.78-.43.14.06.22.21.28.35.55,1.2.41,2.66-.13,3.87s-2.08,2.13-3.09,2.84c-.47,2.62-.52,5.27-1.41,7.77"/>
        <path class="cls-10" d="M29.48,132.91c1.18-1.13,2.41-2.29,3.92-2.84s3.93-.51,4.93.8c1.13,1.48,1.02,3.84.61,6.85-.28,1.12-.12,2.39.86,2.92.57.31,1.36.59,1.63,1.2.26.58.5,1.13-.03,1.44s-2.23.33-2.84.34c-6.04.12-12.09.24-18.13.36-1.96.04-4.25-.09-5.35-1.78-1.09-1.68-.38-3.94.36-5.82.83-2.09,1.96-4.23,2.79-6.32"/>
        <path class="cls-10" d="M14.58,138.62c-.53-.75-1.15-1.56-2.03-1.71-.68-.12-1.38.2-1.87.71s-.78,1.19-.97,1.88c-.24.87-.3,1.87.19,2.61.65.97,1.96,1.09,3.1,1.11.94.02,2.09-.1,2.46-.99"/>
        <path class="cls-10" d="M19.11,127.85c-.12.88-.53,1.68-.77,2.53s-.31,1.84.2,2.56c.21.3.51.53.82.72,1.09.66,2.59.86,3.52-.03.59-.57.8-1.44.99-2.25.22-1,.45-1.99.67-2.99"/>
        <path class="cls-2" d="M69.87,70.02v.22"/>
        <path class="cls-3" d="M41.42,117.38c4.81.44,9.39-2.43,12.56-6.08,4.56-5.25,6.96-12.31,6.53-19.25-.06-.94-.16-1.9.03-2.82.35-1.67,1.61-2.97,2.65-4.32,3.95-5.1,5.24-12.17,3.34-18.34"/>
        <path class="cls-5" d="M28.55,109.78c-.18-.65.08-1.4.62-1.81s1.34-.44,1.91-.08c-.15.74-.6,1.41-1.22,1.84-.3.2-.69.35-1.02.2-.15-.07-.28-.23-.23-.39.02-.05.05-.1.08-.14.23-.31.5-.6.8-.86.12-.11.3-.21.44-.13.09.05.12.17.13.27,0,.23-.11.45-.27.61s-.36.28-.55.4c-.03.02-.05.03-.08.03-.07-.01-.06-.11-.03-.18.26-.62.74-1.15,1.34-1.46.06.22-.03.46-.16.65-.17.27-.4.5-.66.68-.08.05-.19.1-.27.04-.07-.06-.05-.17-.02-.25.19-.5.58-.92,1.07-1.14.04-.02.09-.04.13-.02.06.03.06.11.04.18-.05.21-.18.41-.36.53.08-.13.16-.26.24-.39.01-.02.03-.05.06-.04s.02.05,0,.05"/>
        <path class="cls-5" d="M20.5,110.7c-2.97,2.85-6.93,4.45-10.92,5.47-1.55.39-3.14.71-4.74.69-1.12-.02-2.32-.18-3.3.36-1,.55-1.52,1.84-1.19,2.93.33,1.1,1.36,1.83,2.38,2.35,1.05.53,2.22.92,3.39.86s2.38-.66,2.93-1.7c-1.49.39-3.06.5-4.59.32-1.2-.14-2.5-.55-3.13-1.59.43.18.8.51,1.03.92.05.09.1.21.04.3-.07.1-.21.09-.32.05-.51-.17-.88-.71-.84-1.25.4.21.65.67.6,1.12-.38-.16-.67-.52-.75-.93-.02-.1-.02-.2.03-.28.15-.22.5-.02.67.19.05.06.1.11.11.19.03.14-.1.27-.24.3s-.28-.04-.39-.12c-.43-.33-.47-1.05-.08-1.42.19.21.3.49.31.78,0,.12,0,.24-.08.33-.16.19-.49.08-.61-.13s-.09-.47-.06-.72c.02-.12.05-.27.17-.31.18-.06.3.18.34.37.04.19.07.39.02.58s-.24.35-.43.31c-.33-.07-.31-.54-.2-.86.03-.08.07-.18.16-.2.1-.02.18.09.23.19.09.19.15.39.21.59.05.21-.03.55-.24.48-.06-.02-.1-.07-.14-.12-.3-.43-.33-1.03-.05-1.48.23,0,.32.39.11.49-.22-.49-.03-1.13.42-1.42.25.43-.09,1.08-.59,1.11-.19-.52.12-1.16.64-1.34-.02.45-.39.86-.84.92.07-.5.43-.94.9-1.12.04.36-.31.71-.67.67.09-.17.26-.29.45-.33,0,.19-.11.38-.29.47.15-.43.42-.82.77-1.12l-.27.17"/>
        <path class="cls-7" d="M29.34,106.45c-.76.09-1.46.57-1.82,1.24-.17.31-.26.65-.34,1-.07.31-.13.63-.04.93.07.23.29.45.52.38.15-.05.23-.19.31-.33.64-1.13,1.46-2.15,2.41-3.03-.39-.33-.99-.36-1.41-.08"/>
        <ellipse class="cls-6" cx="28.12" cy="112.64" rx="1.6" ry=".55" transform="translate(-81.73 75.08) rotate(-57.11)"/>
        <path class="cls-4" d="M66.5,64.46c-.74.13-1.45.43-2.01.93s-.96,1.18-1.05,1.92c-.03.26-.01.54.15.74.11.14.27.22.44.26.35.1.74.04,1.06-.14.13-.08.25-.18.37-.29.82-.79,1.25-1.96,1.13-3.09,0-.09-.03-.18-.11-.22"/>
        <path class="cls-4" d="M66.57,66.16c-.17.62-.34,1.25-.59,1.84-.18.42-.4.82-.65,1.2-.44.68-.96,1.32-1.59,1.83-.11.09-.22.17-.35.21"/>
        <path class="cls-4" d="M66.79,64.41c.82.13,1.62.43,2.25.93s1.08,1.18,1.17,1.92c.03.26.01.54-.17.74-.12.14-.31.22-.5.26-.39.1-.83.04-1.18-.14-.15-.08-.28-.18-.41-.29-.92-.79-1.4-1.96-1.26-3.09.01-.09.03-.18.12-.22"/>
        <path class="cls-4" d="M66.7,66.12c.19.62.38,1.25.66,1.84.2.42.45.82.73,1.2.49.68,1.07,1.32,1.77,1.83.12.09.24.17.39.21"/>
      </g>
    </symbol>
    <symbol id="New_Symbol_19" data-name="New Symbol 19" viewBox="0 0 116.23 144">
      <g>
        <path class="cls-11" d="M45.49,73.24c.53-3.5-.41-7.24.36-10.69,1.7-7.65,11.03-11.72,19.89-13.95,3.77-.95,7.74-1.71,11.79-2.17,3.43-.38,5.45,3.53,2.55,4.94-.08.04-.17.08-.25.12-6.26,3.13-10.53,8.26-14.28,13.47-2.12,2.95-4.17,6.09-4.37,9.67-.26,4.67,2.68,9.61,1.53,14.1-1.51,5.93-9.34,8.59-16.56,9.65-9.03,1.33-18.74,1.33-27.87-1.44-6.26-1.91-13.28-5.68-17.57-10.55-1.83-2.07.08-4.65,2.97-3.96,16.43,3.88,39.09,8.85,41.79-9.18Z"/>
        <use width="98.89" height="144" transform="translate(17.34)" xlink:href="#New_Symbol"/>
      </g>
    </symbol>
  </defs>
  <g id="Layer_28" data-name="Layer 28">
    <use width="116.23" height="144" xlink:href="#New_Symbol_19"/>
  </g>
</svg>