<?xml version="1.0" encoding="UTF-8"?>
<svg id="Layer_2" data-name="Layer 2" xmlns="http://www.w3.org/2000/svg" xmlns:xlink="http://www.w3.org/1999/xlink" viewBox="0 0 92.32 147.4">
  <defs>
    <style>
      .cls-1 {
        fill: #122540;
      }

      .cls-2, .cls-3 {
        fill: none;
      }

      .cls-4 {
        fill: #fbc6bb;
      }

      .cls-5 {
        fill: url(#linear-gradient);
      }

      .cls-6 {
        stroke: #1a2e4b;
      }

      .cls-6, .cls-7 {
        fill: #1a2e4b;
      }

      .cls-6, .cls-3, .cls-8 {
        stroke-linecap: round;
        stroke-linejoin: round;
        stroke-width: .4px;
      }

      .cls-6, .cls-8 {
        stroke-dasharray: 0 0 0 0 0 0;
      }

      .cls-9 {
        fill: #fffad1;
      }

      .cls-10 {
        fill: #12243f;
      }

      .cls-3 {
        stroke: #fbf9d2;
      }

      .cls-11 {
        fill: #fcdc61;
      }

      .cls-12 {
        fill: #d4bc39;
      }

      .cls-8 {
        fill: #1f3453;
        stroke: #1f3453;
      }
    </style>
    <linearGradient id="linear-gradient" x1="21.16" y1="9.37" x2="66.74" y2="54.95" gradientUnits="userSpaceOnUse">
      <stop offset="0" stop-color="#faf9db"/>
      <stop offset=".31" stop-color="#fdf395"/>
      <stop offset="1" stop-color="#fddc61"/>
    </linearGradient>
    <symbol id="Deleted_Symbol" data-name="Deleted Symbol" viewBox="0 0 81.48 147.4">
      <g>
        <ellipse class="cls-1" cx="48.78" cy="126.41" rx="32.7" ry="4.62"/>
        <g id="Layer_4" data-name="Layer 4">
          <ellipse class="cls-5" cx="43.95" cy="32.16" rx="32.29" ry="32.16"/>
          <circle class="cls-12" cx="66.8" cy="30" r="3.32"/>
          <circle class="cls-11" cx="66.5" cy="30.43" r="3.32"/>
          <circle class="cls-12" cx="59.56" cy="42.26" r="2.61"/>
          <circle class="cls-11" cx="59.33" cy="42.6" r="2.61"/>
          <circle class="cls-12" cx="29.81" cy="54.29" r="1.67"/>
          <circle class="cls-11" cx="29.67" cy="54.5" r="1.67"/>
          <circle class="cls-12" cx="29.81" cy="54.29" r="1.67"/>
          <circle class="cls-11" cx="29.67" cy="54.5" r="1.67"/>
          <circle class="cls-12" cx="41.17" cy="48.04" r="2.74"/>
          <circle class="cls-11" cx="40.93" cy="48.4" r="2.74"/>
          <ellipse class="cls-12" cx="20.58" cy="34.15" rx="4.47" ry="4.61"/>
          <ellipse class="cls-11" cx="20.19" cy="34.74" rx="4.47" ry="4.61"/>
          <ellipse class="cls-12" cx="29.59" cy="20.63" rx="2.69" ry="2.77"/>
          <ellipse class="cls-11" cx="29.35" cy="20.98" rx="2.69" ry="2.77"/>
          <ellipse class="cls-12" cx="48.88" cy="27.19" rx="1.32" ry="1.36"/>
          <ellipse class="cls-11" cx="48.77" cy="27.36" rx="1.32" ry="1.36"/>
          <ellipse class="cls-12" cx="52.62" cy="19.79" rx="2.64" ry="2.72"/>
          <ellipse class="cls-11" cx="52.38" cy="20.14" rx="2.64" ry="2.72"/>
          <circle class="cls-12" cx="53.47" cy="56.83" r="2.01"/>
          <circle class="cls-11" cx="53.29" cy="57.08" r="2.01"/>
          <circle class="cls-12" cx="38.53" cy="37.06" r="1.79"/>
          <circle class="cls-11" cx="38.38" cy="37.29" r="1.79"/>
        </g>
        <path class="cls-9" d="M23.37,113.78c-2.24-1.15-4.55-2.17-6.9-3.05-2.78-1.04-5.64-1.88-8.32-3.16s-5.22-3.05-6.87-5.54c-.69-1.05-1.22-2.24-1.28-3.5s.43-2.58,1.44-3.31c.78-.57,1.78-.73,2.75-.73,3.59-.01,6.89,1.93,9.87,3.95,4.93,3.35,9.83,7.42,12.12,12.84,1.96-1.61,5.01-1.68,7.03-.16.43-4.69.74-9.48-.28-14.08s-3.55-9.06-7.6-11.37c-.47-.27-.98-.51-1.51-.54-1.08-.05-2.04.82-2.41,1.85s-.25,2.17-.01,3.23c1.11,4.99,4.66,9.1,6.16,13.98.61,1.96.87,4.02,1.13,6.06"/>
        <path class="cls-9" d="M35.63,111.28c1.77,1.48,3.03,3.59,3.5,5.87.31,1.52.31,3.17,1.11,4.49.27.44.62.84.74,1.34.18.72-.19,1.49-.72,1.98s-1.23.78-1.9,1.05c-2.27.91-4.57,1.83-7,2-3.49.26-7.16-1.2-9.21-4.11s-2.14-7.23.11-9.97"/>
        <path class="cls-9" d="M24.45,127c-.88,2.25-1.78,4.52-3.17,6.48-1.04,1.45-2.36,2.76-2.95,4.45-.41,1.19-.42,2.51.11,4.68l2.24,3.33c.16.24.33.49.56.66.33.25.74.34,1.15.41,6.35,1.1,12.87-.58,19.3-.1.55.04,1.11.09,1.63-.07s1-.63,1-1.18c0-.84-.96-1.29-1.75-1.53,1.2-1.77,2.35-3.87,1.84-5.95-.44-1.77-2.09-3.08-3.88-3.33s-3.62.48-4.94,1.71"/>
        <path class="cls-9" d="M41.14,131.73c-.21.6-5.42,2.94-5.62,3.54"/>
        <path class="cls-9" d="M34.75,124.13c.14.83,3.97-.9,4.8,3.92.02.12.63-.16.75-.2.17-.05.37-.08.54-.14.8-.3,1.57-.68,2.29-1.15.16-.11.36-.22.54-.15.08.03.14.11.2.18.57.77.41,1.92-.16,2.69s-3.82,3.83-4.71,4.16"/>
        <path class="cls-9" d="M18.43,140.18c-.35-.39-.5-.49-.85-.88s-1.35-.86-1.83-.65c-.22.09-.52.38-.67.56-.32.37-.61.77-.87,1.19-.34.56-.64,1.17-.68,1.82-.09,1.28.6,2.91,1.72,3.5s2.13.45,3.31.43c.49-.01,1.86-.15,2.31-.35"/>
        <path class="cls-9" d="M33.65,119.74c2.62,3.54,6.83,11.57,6.12,15.93-.23,1.39-1.81.05-2.83,1-1.57,1.48-6.13.76-7.92-.43s-2.85-3.25-3.39-5.35c-.24-.92-.38-1.87-.71-2.77-.44-1.18-.93-2.45-.99-3.71-.06-1.21.3-2.21,1.15-3.07s1.92-1.46,2.97-2.05c.64-.36,1.31-.73,2.04-.8,1.06-.1,2.14.5,2.63,1.45"/>
        <path class="cls-9" d="M36.47,112.35c-.5-.62-1.02-1.25-1.64-1.74s-1.39-.86-2.19-.86-1.62.4-1.97,1.11c-.12.23-.18.49-.26.74-.04.13-.1.25-.17.36-.12.17-.31.28-.48.4-.14.1-.29.22-.36.38s-.05.38.09.48c.09.07.22.07.33.08.29.01.57.02.86.03.19,0,.38.02.55.09.14.07.26.18.4.25.39.21.87.08,1.28-.09.65-.28,1.26-.65,1.79-1.1"/>
        <path class="cls-9" d="M30.16,108.72c-.33.77-1.85.76-2.56,1.19s-.07.05-.81.42c-.59.3-1.79,1.37-2.24,1.95s-1.2,1-1.25,1.74c-.04.62.33,1.2.83,1.56s1.1.53,1.7.66c1.39.3,2.85.44,4.23.11s2.7-1.18,3.34-2.47c.12-.24.22-.5.17-.77s-.29-.5-.55-.46"/>
        <path class="cls-9" d="M26.37,114.59c.17.01.25.24.19.4s-.21.27-.35.37c-.48.34-1,.68-1.58.74-.11.01-.23.01-.33-.05-.07-.04-.13-.12-.17-.19-.34-.51-.55-1.1-.63-1.71-.03-.25-.04-.49-.09-.74-.05-.25-.14-.49-.16-.74-.02-.31.08-.64.02-1.03-.8.59-1.11,1.77-.71,2.67.14.32.36.59.59.85.17.2.38.39.64.42.37.04.75-.28,1.08-.11"/>
        <path class="cls-9" d="M23.35,112.07c-.22.37-.52.69-.8,1.02s-.42.74-.55,1.15-.24.83.03,1.17c.21.28.57.42.92.42s.69-.16.96-.38c.15-.13.29-.29.36-.48.07-.19.07-.4.04-.61-.05-.42-.19-.84-.39-1.21.08-.04.17-.07.25-.07"/>
        <path class="cls-9" d="M30.9,109.49c-.89-.02-1.68.56-2.55.76"/>
        <path class="cls-9" d="M28.09,110.5c-.27.15-.46.16-.54.46-.04.16-.06.33-.01.49s.18.3.35.32"/>
        <path class="cls-9" d="M28.66,110.03"/>
        <path class="cls-9" d="M29.78,111.92c.41-.09.75-.46.81-.88.03-.19,0-.38-.03-.57-.04-.21-.08-.42-.14-.63-.03-.11-.06-.23-.14-.32-.16-.21-.47-.23-.73-.24-.14,0-.32.01-.39.14-.03.06-.03.14-.05.21"/>
        <path class="cls-9" d="M38.25,122.64c-.13-.86-.4-1.69-.51-2.56-.11-.79-.09-1.61.05-2.39"/>
        <path class="cls-9" d="M38.1,127.17"/>
        <rect class="cls-9" x="44.13" y="64.18" width=".36" height="69.29" rx=".18" ry=".18"/>
        <path class="cls-8" d="M27.05,119.42c.49-.51,1.14-.86,1.84-.99.22-.04.45-.06.66,0,.2.06.38.18.53.32.67.6.64.76,1.05,1.51.02.05.35.88.33.92-.02.03-.05.04-.08.05-.27.08-.56.05-.83,0-.82-.14-1.63-.4-2.38-.76-.43-.21-1.06-.58-1.11-1.05"/>
        <path class="cls-6" d="M36.28,120.37c0-.78.17-1.56.5-2.27.09-.19.2-.39.39-.47.11-.04.24-.04.36-.03.29.03.58.09.85.17.16.05.34.13.4.3-.11.14-.18.32-.26.48-.36.78-1,1.43-1.78,1.81-.08.04-.43.08-.47,0"/>
        <ellipse class="cls-4" cx="39.6" cy="119.96" rx="1" ry=".5" transform="translate(-50.34 31.24) rotate(-27.12)"/>
        <ellipse class="cls-4" cx="26.05" cy="121.86" rx=".55" ry="1.6" transform="translate(-97.78 135.79) rotate(-84.35)"/>
        <ellipse class="cls-7" cx="34.96" cy="122.6" rx=".4" ry="1.66" transform="translate(-92.48 119.14) rotate(-72.53)"/>
        <ellipse class="cls-7" cx="34.98" cy="122.62" rx="1.66" ry=".4" transform="translate(-81.12 69.9) rotate(-49.66)"/>
        <path class="cls-2" d="M47.45,70.06v.22"/>
        <path class="cls-3" d="M44.08,64.5c-.74.13-1.45.43-2.01.93s-.96,1.18-1.05,1.92c-.03.26-.01.54.15.74.11.14.27.22.44.26.35.1.74.04,1.06-.14.13-.08.25-.18.37-.29.82-.79,1.25-1.96,1.13-3.09,0-.09-.03-.18-.11-.22"/>
        <path class="cls-3" d="M44.15,66.2c-.17.62-.34,1.25-.59,1.84-.18.42-.4.82-.65,1.2-.44.68-.96,1.32-1.59,1.83-.11.09-.22.17-.35.21"/>
        <path class="cls-3" d="M44.37,64.45c.82.13,1.62.43,2.25.93s1.08,1.18,1.17,1.92c.03.26.01.54-.17.74-.12.14-.31.22-.5.26-.39.1-.83.04-1.18-.14-.15-.08-.28-.18-.41-.29-.92-.79-1.4-1.96-1.26-3.09.01-.09.03-.18.12-.22"/>
        <path class="cls-3" d="M44.29,66.16c.19.62.38,1.25.66,1.84.2.42.45.82.73,1.2.49.68,1.07,1.32,1.77,1.83.12.09.24.17.39.21"/>
      </g>
    </symbol>
    <symbol id="New_Symbol_18" data-name="New Symbol 18" viewBox="0 0 92.32 147.4">
      <g>
        <path class="cls-10" d="M56.33,71.17c.53-3.5-.41-7.24.36-10.69,1.7-7.65,11.03-11.72,19.89-13.95,3.77-.95,7.74-1.71,11.79-2.17,3.43-.38,5.45,3.53,2.55,4.94-.08.04-.17.08-.25.12-6.26,3.13-10.53,8.26-14.28,13.47-2.12,2.95-4.17,6.09-4.37,9.67-.26,4.67,2.68,9.61,1.53,14.1-1.51,5.93-9.34,8.59-16.56,9.65-9.03,1.33-18.74,1.33-27.87-1.44-6.26-1.91-13.28-5.68-17.57-10.55-1.83-2.07.08-4.65,2.97-3.96,16.43,3.88,39.09,8.85,41.79-9.18Z"/>
        <use width="81.48" height="147.4" xlink:href="#Deleted_Symbol"/>
      </g>
    </symbol>
  </defs>
  <g id="Layer_28" data-name="Layer 28">
    <use width="92.32" height="147.4" xlink:href="#New_Symbol_18"/>
  </g>
</svg>