<?xml version="1.0" encoding="UTF-8"?>
<svg id="Layer_2" data-name="Layer 2" xmlns="http://www.w3.org/2000/svg" xmlns:xlink="http://www.w3.org/1999/xlink" viewBox="0 0 83.73 118.94">
  <defs>
    <style>
      .cls-1 {
        fill: #122540;
      }

      .cls-2 {
        fill: #fbc6bb;
      }

      .cls-3 {
        fill: #1a2e4b;
        stroke: #1a2e4b;
        stroke-width: .4px;
      }

      .cls-3, .cls-4 {
        stroke-linecap: round;
        stroke-linejoin: round;
      }

      .cls-5 {
        fill: #1f3453;
      }

      .cls-6 {
        fill: url(#linear-gradient);
      }

      .cls-7 {
        fill: #fffad1;
      }

      .cls-4 {
        fill: none;
        stroke: #fbf9d2;
        stroke-dasharray: 0 0 0 0 0 0;
        stroke-width: .5px;
      }

      .cls-8 {
        fill: #fcdc61;
      }

      .cls-9 {
        fill: #d4bc39;
      }
    </style>
    <linearGradient id="linear-gradient" x1="17251.53" y1="49.25" x2="17302.2" y2="99.93" gradientTransform="translate(16058.7) rotate(-180) scale(.93 -1)" gradientUnits="userSpaceOnUse">
      <stop offset="0" stop-color="#faf9db"/>
      <stop offset=".31" stop-color="#fdf395"/>
      <stop offset="1" stop-color="#fddc61"/>
    </linearGradient>
    <symbol id="New_Symbol_11" data-name="New Symbol 11" viewBox="0 0 83.73 118.94">
      <g>
        <ellipse class="cls-1" cx="35.86" cy="114.32" rx="31.24" ry="4.62"/>
        <path class="cls-6" d="M0,71.03c0,18.58,12.1,34.2,28.52,38.8,3.19.89,6.55,1.37,10.02,1.37,3.16,0,6.25-.4,9.19-1.16h.02c8.04-2.05,15.11-6.75,20.28-13.15-16.83-1.49-30.39-14.16-34.19-30.6.32-.31.52-.76.52-1.26,0-.39-.12-.75-.33-1.04-.17-.33-.44-.6-.76-.75-.42-2.67-.57-5.43-.45-8.24.41-9.17,3.73-17.48,9-23.99-1.08-.1-2.17-.15-3.28-.15C17.26,30.86,0,48.84,0,71.03Z"/>
        <ellipse class="cls-9" cx="11.27" cy="68.33" rx="3.96" ry="4.15"/>
        <ellipse class="cls-8" cx="11.62" cy="68.86" rx="3.96" ry="4.15"/>
        <ellipse class="cls-9" cx="14.49" cy="87.2" rx="3.11" ry="3.26"/>
        <ellipse class="cls-8" cx="14.76" cy="87.62" rx="3.11" ry="3.26"/>
        <ellipse class="cls-9" cx="41.86" cy="90.87" rx="3.27" ry="3.43"/>
        <ellipse class="cls-8" cx="42.15" cy="91.31" rx="3.27" ry="3.43"/>
        <path class="cls-9" d="M31.07,64.82c0,.42.14.8.38,1.1.28.37.72.6,1.19.6.44,0,.84-.19,1.14-.51h0c.28-.31.45-.73.45-1.19,0-.3-.08-.59-.2-.83-.17-.33-.44-.6-.76-.75-.19-.08-.4-.13-.62-.13-.87,0-1.58.76-1.58,1.71Z"/>
        <ellipse class="cls-9" cx="28.2" cy="55.58" rx="3.15" ry="3.4"/>
        <ellipse class="cls-8" cx="28.48" cy="56.01" rx="3.15" ry="3.4"/>
        <ellipse class="cls-9" cx="31.12" cy="100.04" rx="2.4" ry="2.51"/>
        <ellipse class="cls-8" cx="31.33" cy="100.36" rx="2.4" ry="2.51"/>
        <path class="cls-5" d="M33.27,63.24c0,.06,0,.12.03.18.13.87.3,1.73.49,2.58h0c.02.11.04.19.07.29.32-.31.52-.76.52-1.26,0-.39-.12-.75-.33-1.04-.17-.33-.44-.6-.76-.75Z"/>
        <path class="cls-8" d="M73.91,47.86l-.47,1.29c-.19.52-.68.87-1.24.87h-1.48c-.39,0-.54.51-.21.72l1.03.67c.51.33.73.98.52,1.55l-.4,1.09c-.13.36.27.67.58.46l1.32-.86c.44-.28,1-.28,1.43,0l1.32.86c.32.21.71-.11.58-.46l-.4-1.09c-.21-.58,0-1.22.52-1.55l1.03-.67c.33-.21.18-.72-.21-.72h-1.48c-.55,0-1.05-.35-1.24-.87l-.47-1.29c-.13-.35-.61-.35-.74,0Z"/>
        <path class="cls-8" d="M79.4,58.52l-.47,1.29c-.19.52-.68.87-1.24.87h-1.48c-.39,0-.54.51-.21.72l1.03.67c.51.33.73.98.52,1.55l-.4,1.09c-.13.36.27.67.58.46l1.32-.86c.44-.28,1-.28,1.43,0l1.32.86c.32.21.71-.11.58-.46l-.4-1.09c-.21-.58,0-1.22.52-1.55l1.03-.67c.33-.21.18-.72-.21-.72h-1.48c-.55,0-1.05-.35-1.24-.87l-.47-1.29c-.13-.35-.61-.35-.74,0Z"/>
        <path class="cls-8" d="M73.62,69.36l-.47,1.29c-.19.52-.68.87-1.24.87h-1.48c-.39,0-.54.51-.21.72l1.03.67c.51.33.73.98.52,1.55l-.4,1.09c-.13.36.27.67.58.46l1.32-.86c.44-.28,1-.28,1.43,0l1.32.86c.32.21.71-.11.58-.46l-.4-1.09c-.21-.58,0-1.22.52-1.55l1.03-.67c.33-.21.18-.72-.21-.72h-1.48c-.55,0-1.05-.35-1.24-.87l-.47-1.29c-.13-.35-.61-.35-.74,0Z"/>
        <path class="cls-7" d="M9.47,42.45c-2.28.32-4.3,2.03-4.92,4.19-.27.94-.26,2.04.36,2.8.12.14.26.27.44.31.4.08.72-.3.93-.63,1.56-2.39,3.33-4.66,5.26-6.77"/>
        <path class="cls-7" d="M46.22,15.16c.51,0,.98.35,1.22.79s.33.94.4,1.44c.18,1.19.35,2.41.19,3.6s-.69,2.4-1.68,3.12c-.7.51-1.63.8-2.01,1.56-.21.4-.22.88-.4,1.29-.32.74-1.14,1.17-1.95,1.36-1.72.4-3.55-.08-5.13-.86-3.13-1.54-5.72-4.55-5.72-7.95,0-2.33,1.2-4.54,2.81-6.27,1.05-1.12,2.34-2.11,3.87-2.43,1.21-.25,2.47-.07,3.69.15,1.78.32,3.71.82,4.71,2.28.82,1.2.79,2.75.72,4.19"/>
        <path class="cls-7" d="M45.15,13.78c2.69-4.08,5.79-7.86,9.26-11.26.76-.75,1.55-1.48,2.51-1.95,2.01-.97,4.55-.61,6.68.46.99.5,1.94,1.15,2.62,2.04.25.32.47.71.45,1.1-.02.48-.41.84-.85,1s-.93.14-1.4.14c-2.21,0-4.4.45-6.28,1.47-1.15.62-2.18,1.44-3.2,2.26-1.67,1.34-3.33,2.68-5,4.02-.96.77-1.95,1.57-2.56,2.66,3.61-.48,7.43-.35,10.94,1.12,3.5,1.47,6.63,4.44,7.66,8.11.12.43.16.99-.21,1.18-.11.06-.24.06-.37.07-1.56.06-3.17-.46-4.49-1.44-.73-.54-1.36-1.21-2.02-1.85-1.53-1.47-3.26-2.76-5.18-3.58s-4.05-1.12-5.98-.64"/>
        <path class="cls-7" d="M31.95,22.37c-2.96,1.97-6.1,3.94-9.69,4.4-2.5.32-5.14-.1-7.5.76-1.64.6-2.98,1.78-3.97,3.15-.98,1.37-1.63,2.94-2.17,4.51-.48,1.42-.89,2.91-.7,4.4.21,1.6,1.09,3.04,2.13,4.31,5.63-5.18,12.04-9.97,19.62-11.9,2.32-.59,4.75-.9,7.12-.53.59.09,1.27.21,1.75-.13.44-.31.55-.87.6-1.38.08-.74.1-1.49.07-2.23"/>
        <path class="cls-7" d="M36.97,30.74c.17.22.3.47.44.71.73,1.32,1.47,2.7,1.55,4.2.04.8-.1,1.6-.14,2.4s.04,1.64.49,2.32,1.35,1.11,2.12.83c.16-.06.31-.15.42-.28.11-.13.16-.3.2-.47.6-2.3.38-4.97-.33-7.24-.18-.57-.55-.91-.88-1.41-.52-.77-1.35-1.34-2.01-2.37,2.79.94,5.19,3.28,5.62,6.12.08.53.09,1.1-.17,1.57s-.84.81-1.37.65c-.68-.21-.86-1.04-.98-1.72-.19-1.02-.5-2.01-.92-2.96-.27-.61-.59-1.2-.96-1.75-.83-1.23-1.94-2.27-3.23-3.03l-26.02,4.78"/>
        <path class="cls-7" d="M9.22,34.1c-.35-.36-.76-.68-1.23-.87-1-.42-2.23-.21-3.09.44s-1.35,1.71-1.38,2.77c-.01.51.08,1.04.37,1.47.21.32.53.57.87.76,1.08.6,2.48.62,3.57.05"/>
        <path class="cls-4" d="M39.17,28.26c2.04,1.07,3.5,3.17,3.8,5.46-.4-1.64-1.44-3.11-2.85-4.05-.36-.24-.77-.49-.87-.9.32.26.6.58.82.93.07.12.11.33-.03.36-.04,0-.08,0-.12-.02-.44-.16-.79-.56-.9-1.01-.03-.11-.03-.26.07-.32.1-.06.23,0,.33.07.38.27.67.68.81,1.12-.33-.28-.6-.65-.76-1.05.83.17,1.52.87,1.68,1.7l-.83-1.32c.21.17.36.42.4.69,0,.06.01.12-.02.17-.07.12-.24.09-.37.03-.37-.16-.7-.4-.98-.69.31.45.59.92.84,1.41-.5-.19-.9-.62-1.04-1.14.34.38.61.83.8,1.3-.49-.22-.87-.67-1.02-1.18.22.26.39.56.51.88-.08-.06-.13-.16-.12-.26"/>
        <path class="cls-4" d="M40.75,31.94c.36.76.63,1.56.79,2.38-.31-.72-.44-1.52-.38-2.31.18.05.3.23.38.39.34.65.51,1.39.47,2.12-.12-.02-.19-.14-.25-.25-.35-.68-.58-1.42-.68-2.18.38.78.69,1.64.6,2.5-.28-.22-.36-.65-.19-.95.4.68.55,1.5.41,2.28-.13-.6-.19-1.21-.18-1.83.2.7.33,1.41.39,2.13-.08-.36-.14-.72-.16-1.09l.14,1.47c.11,0,.22.04.31.11.03-.13.02-.26-.03-.38-.04.25-.07.5-.09.75.16.04.22-.19.21-.35-.03-.57-.07-1.13-.1-1.7-.01-.23-.06-.5-.26-.59"/>
        <path class="cls-4" d="M42.96,32.99c-.34-2.24-1.86-4.26-3.92-5.2"/>
        <path class="cls-4" d="M47.46,14.7c.02.33.17.63.3.93.62,1.48.75,3.16.36,4.72s-1.29,2.98-2.54,4c-.4.33-.84.62-1.17,1.02-.38.46-.59,1.06-.59,1.65,0,.25.03.53-.14.72-.08.09-.18.14-.29.19-1.05.49-2.26.63-3.4.41.09-.04.18-.08.28-.13"/>
        <path class="cls-4" d="M43.2,27.92l.25-.44"/>
        <path class="cls-4" d="M47.43,15.35c.05.8.47,1.53.61,2.32.05.31.06.63.07.94,0,.39.01.81-.19,1.14"/>
        <path class="cls-4" d="M48.07,15.92c.09-.43.16-.84.39-1.22.14-.23.26-.47.41-.7.4-.59.92-1.1,1.45-1.57.57-.51,1.15-.98,1.78-1.41.25-.17.48-.37.74-.54.21-.14.43-.24.64-.4.6-.45,1.27-.82,1.9-1.22.52-.33,1.02-.66,1.53-1,.3-.2.63-.41.97-.55.1-.04.21-.07.32-.11.16-.06.28-.15.42-.23.28-.18.6-.28.9-.41.36-.16.69-.37,1.06-.51.45-.18.89-.36,1.33-.56.16-.07.3-.16.46-.24.2-.1.42-.15.64-.2.24-.05.47-.09.7-.17.11-.04.23-.07.35-.09.14-.03.3-.05.42-.12-.05-.07-.17-.03-.25-.03-.31.01-.63.03-.94.05-.5.03-.98.2-1.47.33-.44.12-.87.22-1.3.4-.81.35-1.61.72-2.39,1.14-.39.21-.77.42-1.11.7-.19.16-.38.32-.58.47-.12.08-.25.15-.36.24.1-.02.19-.12.28-.17.16-.09.32-.18.48-.28.45-.26.92-.47,1.38-.71.27-.14.54-.29.83-.4.18-.06.36-.12.54-.2.22-.1.46-.17.67-.28-.11.07-.25.09-.36.13-.31.1-.61.2-.91.32-.84.32-1.65.75-2.37,1.29s-1.47.92-2.16,1.45c-.63.48-1.29.94-1.91,1.44-.52.42-1.04.83-1.53,1.29-.46.43-.92.86-1.39,1.28-.53.48-1.01,1.02-1.43,1.59-.28.38-.56.85-.7,1.3.02-.22.14-.46.24-.65.12-.25.25-.49.4-.71.03.04-.29.62-.36.69.03-.03.05-.06.08-.08"/>
        <path class="cls-4" d="M48.11,18.94c.56-.52,1.39-.59,2.15-.55,2.2.1,4.36.87,6.2,2.27,1.32.99,2.51,2.16,3.53,3.45.42.54.82,1.11,1.32,1.58s1.12.85,1.8.93c.35.04.7,0,1.05-.06.59-.08,1.23-.2,1.59-.67-1.33.13-2.69-.07-3.92-.59.69.24,1.37.5,2.05.76-.4.2-.89.18-1.28-.04l1.84.16c-.24.07-.51.06-.75,0,.4-.17.84-.25,1.28-.22-.66.46-1.58.43-2.31.09s-1.31-.95-1.8-1.59c.28.59.76,1.09,1.33,1.41-.7-.56-1.41-1.12-2-1.8-.04-.05-.09-.11-.08-.18s.12-.1.15-.04"/>
        <path class="cls-4" d="M56.36,8.46c2.39-1.62,5.13-2.73,7.97-3.23.46-.08.94-.15,1.33-.39"/>
        <path class="cls-4" d="M61.29,5.94c-1.92.62-3.57,1.87-5.28,2.95-2.89,1.82-6.12,3.24-8.48,5.72"/>
        <path class="cls-4" d="M43.99,34.93c-.44-1.64-1.18-3.2-2.17-4.57"/>
        <path class="cls-4" d="M8.87,41.36c-1.74.19-3.35,1.29-4.16,2.85-.23.44-.4.93-.37,1.43s.29,1,.74,1.23c-.41-.52-.46-1.26-.27-1.89s.58-1.19,1-1.7c.27-.32.58-.66,1-.71.08.1.02.25-.03.36-.43.85-1.06,1.59-1.82,2.15.56-1.39,1.74-2.51,3.16-2.99.14-.05.36-.04.36.11,0,.05-.03.1-.06.14-.63.88-1.53,1.56-2.55,1.93.01-.36.22-.68.45-.96.53-.63,1.21-1.12,1.97-1.41.19-.07.44-.11.55.06-.3.54-.92.89-1.53.87-.08,0-.17-.02-.21-.08-.03-.05-.02-.13,0-.19.18-.51.81-.66,1.35-.69.1,0,.21,0,.29.06.11.08.11.25.04.37s-.19.19-.31.26c-.51.29-1.05.53-1.61.72.32-.49.86-.83,1.43-.92-.43.54-1.04.94-1.71,1.13.24-.59.7-1.09,1.26-1.39-.38.18-.78.31-1.18.4.31-.35.81-.47,1.28-.43s.9.24,1.32.44c-.07.23-.29.4-.53.4.06-.28.2-.55.39-.76-.64,1.34-2.8,1.3-3.51,2.6-.17.32-.24.68-.44.98-.13-.2-.19-.46-.14-.7-.09.2-.15.41-.18.62l.14-.12"/>
        <path class="cls-3" d="M42.06,21.79c.31-.02.62,0,.93.03.1.01.21.03.31.07.25.1.43.33.51.58s.1.51.1.77c0,.2.01.39.02.59,0,.04,0,.09-.03.12-.05.05-.13.03-.2,0-.49-.18-.99-.38-1.36-.74s-.51-.98-.29-1.42"/>
        <ellipse class="cls-2" cx="39.32" cy="22.04" rx=".55" ry="1.6" transform="translate(-1.84 40.41) rotate(-53.33)"/>
      </g>
    </symbol>
  </defs>
  <g id="Layer_14" data-name="Layer 14">
    <use width="83.73" height="118.94" xlink:href="#New_Symbol_11"/>
  </g>
</svg>