<?xml version="1.0" encoding="UTF-8"?>
<svg id="Layer_2" data-name="Layer 2" xmlns="http://www.w3.org/2000/svg" xmlns:xlink="http://www.w3.org/1999/xlink" viewBox="0 0 92.01 108.32">
  <defs>
    <style>
      .cls-1 {
        fill: #122540;
      }

      .cls-2 {
        fill: #fbc6bb;
      }

      .cls-3 {
        fill: #1f3453;
      }

      .cls-4 {
        fill: url(#linear-gradient);
      }

      .cls-5 {
        fill: #1a2e4b;
      }

      .cls-6 {
        fill: #fffad1;
      }

      .cls-7 {
        fill: none;
        stroke: #fbf9d2;
        stroke-dasharray: 0 0 0 0 0 0;
        stroke-linecap: round;
        stroke-linejoin: round;
        stroke-width: .5px;
      }

      .cls-8 {
        fill: #fcdc61;
      }

      .cls-9 {
        fill: #d4bc39;
      }
    </style>
    <linearGradient id="linear-gradient" x1="17260.14" y1="38.63" x2="17310.81" y2="89.31" gradientTransform="translate(16066.68) rotate(-180) scale(.93 -1)" gradientUnits="userSpaceOnUse">
      <stop offset="0" stop-color="#faf9db"/>
      <stop offset=".31" stop-color="#fdf395"/>
      <stop offset="1" stop-color="#fddc61"/>
    </linearGradient>
    <symbol id="New_Symbol_10" data-name="New Symbol 10" viewBox="0 0 92.01 108.32">
      <g>
        <ellipse class="cls-1" cx="35.86" cy="103.7" rx="31.24" ry="4.62"/>
        <path class="cls-4" d="M0,60.41c0,18.58,12.1,34.2,28.52,38.8,3.19.89,6.55,1.37,10.02,1.37,3.16,0,6.25-.4,9.19-1.16h.02c8.04-2.05,15.11-6.75,20.28-13.15-16.83-1.49-30.39-14.16-34.19-30.6.32-.31.52-.76.52-1.26,0-.39-.12-.75-.33-1.04-.17-.33-.44-.6-.76-.75-.42-2.67-.57-5.43-.45-8.24.41-9.17,3.73-17.48,9-23.99-1.08-.1-2.17-.15-3.28-.15C17.26,20.24,0,38.22,0,60.41Z"/>
        <ellipse class="cls-9" cx="11.27" cy="57.72" rx="3.96" ry="4.15"/>
        <ellipse class="cls-8" cx="11.62" cy="58.25" rx="3.96" ry="4.15"/>
        <ellipse class="cls-9" cx="14.49" cy="76.59" rx="3.11" ry="3.26"/>
        <ellipse class="cls-8" cx="14.76" cy="77" rx="3.11" ry="3.26"/>
        <ellipse class="cls-9" cx="41.86" cy="80.25" rx="3.27" ry="3.43"/>
        <ellipse class="cls-8" cx="42.15" cy="80.69" rx="3.27" ry="3.43"/>
        <path class="cls-9" d="M31.07,54.2c0,.42.14.8.38,1.1.28.37.72.6,1.19.6.44,0,.84-.19,1.14-.51h0c.28-.31.45-.73.45-1.19,0-.3-.08-.59-.2-.83-.17-.33-.44-.6-.76-.75-.19-.08-.4-.13-.62-.13-.87,0-1.58.76-1.58,1.71Z"/>
        <ellipse class="cls-9" cx="28.2" cy="44.96" rx="3.15" ry="3.4"/>
        <ellipse class="cls-8" cx="28.48" cy="45.4" rx="3.15" ry="3.4"/>
        <ellipse class="cls-9" cx="31.12" cy="89.42" rx="2.4" ry="2.51"/>
        <ellipse class="cls-8" cx="31.33" cy="89.74" rx="2.4" ry="2.51"/>
        <path class="cls-3" d="M33.27,52.62c0,.06,0,.12.03.18.13.87.3,1.73.49,2.58h0c.02.11.04.19.07.29.32-.31.52-.76.52-1.26,0-.39-.12-.75-.33-1.04-.17-.33-.44-.6-.76-.75Z"/>
        <path class="cls-8" d="M82.2,39.18l-.47,1.29c-.19.52-.68.87-1.24.87h-1.48c-.39,0-.54.51-.21.72l1.03.67c.51.33.73.98.52,1.55l-.4,1.09c-.13.36.27.67.58.46l1.32-.86c.44-.28,1-.28,1.43,0l1.32.86c.32.21.71-.11.58-.46l-.4-1.09c-.21-.58,0-1.22.52-1.55l1.03-.67c.33-.21.18-.72-.21-.72h-1.48c-.55,0-1.05-.35-1.24-.87l-.47-1.29c-.13-.35-.61-.35-.74,0Z"/>
        <path class="cls-8" d="M87.69,49.84l-.47,1.29c-.19.52-.68.87-1.24.87h-1.48c-.39,0-.54.51-.21.72l1.03.67c.51.33.73.98.52,1.55l-.4,1.09c-.13.36.27.67.58.46l1.32-.86c.44-.28,1-.28,1.43,0l1.32.86c.32.21.71-.11.58-.46l-.4-1.09c-.21-.58,0-1.22.52-1.55l1.03-.67c.33-.21.18-.72-.21-.72h-1.48c-.55,0-1.05-.35-1.24-.87l-.47-1.29c-.13-.35-.61-.35-.74,0Z"/>
        <path class="cls-8" d="M81.91,60.69l-.47,1.29c-.19.52-.68.87-1.24.87h-1.48c-.39,0-.54.51-.21.72l1.03.67c.51.33.73.98.52,1.55l-.4,1.09c-.13.36.27.67.58.46l1.32-.86c.44-.28,1-.28,1.43,0l1.32.86c.32.21.71-.11.58-.46l-.4-1.09c-.21-.58,0-1.22.52-1.55l1.03-.67c.33-.21.18-.72-.21-.72h-1.48c-.55,0-1.05-.35-1.24-.87l-.47-1.29c-.13-.35-.61-.35-.74,0Z"/>
        <path class="cls-6" d="M55.89,5.28c.11,2.55.61,3.26-1.07,5.18-.98,1.12-2.43,1.79-3.28,3.01-.73,1.05-1.02,2.34-1.68,3.43-1.58,2.57-5.53,2.52-7.81,2.11-2.33-.42-3.07-1.75-4.91-3.25-.58-.47-1.13-1.01-1.44-1.69-.33-.72.08-1.65-.3-2.34-2.59-4.65,3.23-9.03,7.48-10.85s9.63-.77,12.71,2.68c.46.52.87,1.08,1.42,1.52.43.35.94.59,1.37.94.76.6,1.25,1.46,1.71,2.31,5.01,9.24,7.51,19.82,7.16,30.33-.06,1.77-.52,3.96-2.23,4.42-1,.27-2.06-.21-2.83-.88-2.04-1.76-2.63-4.65-2.95-7.33-1.18-9.72-.54-19.8-3.78-29.04-.36,9.89-.75,19.91-3.67,29.37-.47,1.52-1.01,3.06-.94,4.65s.9,3.27,2.4,3.8c1.54.55,3.3-.3,4.31-1.58s1.45-2.91,1.86-4.49c.92-3.52,1.85-7.18,1.23-10.76"/>
        <path class="cls-6" d="M38.98,8.95c-8.58-1-20.71,4.43-24.3,12.29-.75,1.65-1.12,3.95.38,4.97,1.28.88,3.02.16,4.39-.56,5.02-2.64,10.24-5.27,15.9-5.78,1.53-.14,3.18-.15,4.43-1.04,1.34-.96,1.88-2.72,1.85-4.37"/>
        <path class="cls-6" d="M15.27,24.77c-1.96.48-3.87,1.29-5.38,2.64s-2.55,3.27-2.55,5.29c0,.64.17,1.39.75,1.67.78.39,1.64-.31,2.24-.94,2.65-2.76,5.48-5.35,8.47-7.74"/>
        <path class="cls-6" d="M36.15,19.41c1.05,1.21,1.77,2.71,2.04,4.29.11.64.16,1.31.45,1.89s.94,1.05,1.57.9c.26-.06.48-.22.69-.38.84-.64,1.62-1.42,2-2.41.5-1.3.25-2.79-.36-4.03s-1.55-2.3-2.48-3.33c-.25-.27-.5-.56-.84-.69"/>
        <path class="cls-6" d="M38.52,18.39c-.11,2.46-1.15,4.57-2.81,5.68-.27.18-.59.34-.94.21-.31-.12-.57-.43-.81-.72-.79-.98-1.64-2.09-1.78-3.3"/>
        <path class="cls-6" d="M17.47,17.87c-.22-.89.23-2.06-.5-2.61-.25-.19-.57-.23-.87-.28-.74-.1-1.55-.19-2.2.19-.46.27-.76.74-1,1.21-.36.7-.61,1.46-.76,2.23-.1.53-.14,1.09.09,1.58.22.47.66.8,1.09,1.1.55.4,1.11.8,1.76,1.01s1.4.21,1.96-.16"/>
        <ellipse class="cls-6" cx="55.5" cy="7.43" rx="2.51" ry="2.09" transform="translate(45.1 62.45) rotate(-86.91)"/>
        <path class="cls-7" d="M33.12,20.31c-4.17.64-8.12,2.27-11.91,4.11-1.68.81-3.4,1.71-4.58,3.16l14.05-8.13"/>
        <path class="cls-7" d="M29.88,21.31c1.53-.5,3.17-.47,4.78-.45-1.32-.18-2.67-.14-3.98.12"/>
        <path class="cls-7" d="M58.53,34.81c-.43-9.08-1.08-18.15-1.94-27.19"/>
        <path class="cls-7" d="M55.49,10.81c-.67,1.22-1.69,2.24-2.92,2.91-.34.18-.69.34-.96.61-.26.25-.42.58-.58.9-.67,1.29-1.47,2.51-2.38,3.63-.21.26-.43.52-.71.7-.52.34-1.18.36-1.81.35-1.45-.03-3-.23-4.08-1.19,1.39.45,2.87.63,4.32.54-.74.34-1.59.41-2.37.19,1.53.27,3.17-.12,4.42-1.05-.5.62-1.23,1.06-2.01,1.22,1.07-.56,2.17-1.15,2.89-2.12-.54.71-1.21,1.32-1.97,1.79,1-.53,1.75-1.42,2.37-2.37s1.13-1.96,1.8-2.87c.85-1.17,1.95-2.15,3.19-2.88-.42.27-.79.61-1.1,1,.45-.87,1.09-1.64,1.85-2.25-.52.58-1.06,1.19-1.34,1.92.37-.63.88-1.18,1.47-1.61-.46.97-1.23,1.78-2.18,2.28.55-.71,1.17-1.38,1.83-1.99.21.07.1.39-.05.56-.86.95-1.88,1.75-3.02,2.35.64-.66,1.41-1.18,2.25-1.54-.8.84-1.81,1.47-2.91,1.82.6-.72,1.28-1.37,2.02-1.94l-2.64,2.35c.79-.69,1.54-1.43,2.23-2.23l-2.05,1.81"/>
        <path class="cls-7" d="M14.5,24.13c-1.53-.25-3.17.24-4.31,1.29-.56.51-1.01,1.18-1.1,1.93s.23,1.58.9,1.93c-.44-.46-.47-1.18-.26-1.78s.64-1.08,1.06-1.56c.06-.07.17-.15.24-.08.03.04.03.09.03.14-.07.68-.47,1.33-1.05,1.69-.09.06-.21.11-.31.06-.1-.06-.12-.2-.11-.32.06-.89.67-1.72,1.5-2.05.12-.05.27-.08.36,0,.11.1.06.28-.01.42-.31.57-.83,1.02-1.44,1.25-.13.05-.3.08-.39-.03-.05-.05-.06-.13-.06-.21,0-.45.39-.79.77-1.03.64-.42,1.33-.78,2.04-1.06.37-.14.77-.27,1.14-.16.02.35-.26.64-.53.86-.68.56-1.44,1.02-2.25,1.37-.16.07-.34.13-.49.05.93-1.22,2.35-2.05,3.87-2.27.14.21-.14.44-.38.53-.66.25-1.33.48-2.01.68.03-.27.3-.44.54-.56.64-.32,1.33-.55,2.04-.67-.88.69-2.23.67-2.98,1.51,1-.5,2.01-1.01,3.01-1.51h-.99c.24-.13.54-.19.82-.14-1.3.48-2.55,1.1-3.72,1.83-.32.2-.65.42-.87.73s-.32.73-.16,1.08c-.02-.23.04-.47.16-.66.04.21,0,.43-.08.63l.15-.14"/>
        <path class="cls-7" d="M57.7,21.56c.18-3.75.25-7.5.19-11.26-.02,1.33-.05,2.65-.07,3.98-.27-1.28-.49-2.57-.65-3.87.19,1.79.31,3.59.36,5.38-.4-1.54-.47-3.17-.21-4.74.31,1.44.37,2.94.16,4.41-.03-.15-.07-.31-.1-.46"/>
        <path class="cls-7" d="M46.34,18.8l1.15.25c-.14-.17-.37-.26-.59-.25.07.1.14.2.24.26.17.1.43.01.47-.18s-.26-.36-.38-.2c-.02.4.46.72.82.54-.06-.01-.12-.02-.18-.03.15.04.32-.03.4-.17"/>
        <path class="cls-7" d="M59.48,19.49c.57,3.39,1.15,6.79,1.17,10.22.02,2.84-.35,5.69-.1,8.51"/>
        <path class="cls-7" d="M58.64,15.47c.43,1.94.87,3.87,1.15,5.84.63,4.43.46,8.94.11,13.4-.09,1.19-.2,2.41.1,3.57.16.64.44,1.24.75,1.81.7,1.29,1.72,2.56,3.16,2.84.35.07.73.07,1.04-.12.18-.11.32-.28.45-.45.5-.71.75-1.59.71-2.45"/>
        <path class="cls-7" d="M60.4,35.34c.06-1.21.03-2.43-.1-3.64.11.67.23,1.36.11,2.03.08-1.73.25-3.45.5-5.16"/>
        <path class="cls-5" d="M44.99,13.95c.28.49.58,1.01,1.07,1.31.26.16.57.24.87.32.76.19,1.62.3,2.25-.16-.61-.51-1.45-.61-2.22-.81-.72-.19-1.42-.5-2.05-.91"/>
        <ellipse class="cls-2" cx="42.67" cy="13.98" rx=".55" ry="1.6" transform="translate(7.05 41.32) rotate(-55.65)"/>
      </g>
    </symbol>
  </defs>
  <g id="Layer_14" data-name="Layer 14">
    <use width="92.01" height="108.32" xlink:href="#New_Symbol_10"/>
  </g>
</svg>