<?xml version="1.0" encoding="UTF-8"?>
<svg id="Layer_2" data-name="Layer 2" xmlns="http://www.w3.org/2000/svg" xmlns:xlink="http://www.w3.org/1999/xlink" viewBox="0 0 75.88 108.01">
  <defs>
    <style>
      .cls-1 {
        fill: #122540;
      }

      .cls-2 {
        stroke: #f3ddcb;
      }

      .cls-2, .cls-3, .cls-4 {
        fill: none;
        stroke-linecap: round;
        stroke-linejoin: round;
      }

      .cls-5 {
        fill: url(#linear-gradient);
      }

      .cls-6 {
        fill: #fffad1;
      }

      .cls-3 {
        stroke: #f3ddca;
      }

      .cls-7 {
        fill: #fff;
      }

      .cls-4 {
        stroke: #fbf9d2;
        stroke-dasharray: 0 0 0 0 0 0;
        stroke-width: .5px;
      }

      .cls-8 {
        fill: #fcdc61;
      }

      .cls-9 {
        fill: #f3deca;
      }

      .cls-10 {
        fill: #d4bc39;
      }
    </style>
    <linearGradient id="linear-gradient" x1="16776.24" y1="15.23" x2="16826.14" y2="65.12" gradientTransform="translate(16470.29) rotate(-180) scale(.98 -1)" gradientUnits="userSpaceOnUse">
      <stop offset="0" stop-color="#faf9db"/>
      <stop offset=".31" stop-color="#fdf395"/>
      <stop offset="1" stop-color="#fddc61"/>
    </linearGradient>
    <symbol id="New_Symbol_8" data-name="New Symbol 8" viewBox="0 0 75.88 108.01">
      <g>
        <ellipse class="cls-1" cx="42.62" cy="82.2" rx="32.7" ry="4.62"/>
        <path class="cls-5" d="M11.62,40.17c0,22.19,17.66,40.18,39.43,40.18.92,0,1.84-.03,2.74-.1V.1c-.9-.07-1.82-.1-2.74-.1C29.27,0,11.62,17.99,11.62,40.17Z"/>
        <ellipse class="cls-10" cx="23.15" cy="37.48" rx="4.05" ry="4.15"/>
        <ellipse class="cls-8" cx="23.51" cy="38.01" rx="4.05" ry="4.15"/>
        <ellipse class="cls-10" cx="26.44" cy="56.35" rx="3.18" ry="3.26"/>
        <ellipse class="cls-8" cx="26.72" cy="56.76" rx="3.18" ry="3.26"/>
        <ellipse class="cls-10" cx="45.02" cy="33.96" rx="1.61" ry="1.7"/>
        <ellipse class="cls-8" cx="45.17" cy="34.18" rx="1.61" ry="1.7"/>
        <ellipse class="cls-10" cx="40.47" cy="24.72" rx="3.22" ry="3.4"/>
        <ellipse class="cls-8" cx="40.75" cy="25.16" rx="3.22" ry="3.4"/>
        <ellipse class="cls-10" cx="43.46" cy="69.18" rx="2.45" ry="2.51"/>
        <ellipse class="cls-8" cx="43.67" cy="69.5" rx="2.45" ry="2.51"/>
        <path class="cls-7" d="M40.27,98.67c.29,0,.58-.5.87-.5-.29,0-.58.5-.87.5h0Z"/>
        <path class="cls-6" d="M27.43,63.72c-2.17,1.99-3.3,5.06-2.94,7.99.2,1.64.84,3.33.31,4.9-.21.63-.61,1.26-.45,1.9.14.6.72.99,1.27,1.27,2.19,1.11,4.7,1.44,7.15,1.55,1.75.08,3.53.06,5.21-.45s3.25-1.58,4.04-3.14c.14-.28.26-.59.22-.9-.04-.29-.21-.53-.35-.79-1.05-1.95-.05-4.32-.13-6.53-.1-2.84-2.14-5.41-4.73-6.58s-5.64-1.07-8.34-.18c-.75.25-1.61.73-1.6,1.53"/>
        <path class="cls-6" d="M29.99,64.8c-1.07-2.18-2.47-4.2-4.14-5.96-1.18-1.25-2.49-2.36-3.8-3.48-1.46-1.24-2.92-2.48-4.43-3.64-3.5-2.69-7.32-4.96-11.37-6.71-1.56-.67-3.47-1.23-4.85-.25-.93.66-1.32,1.86-1.38,3-.12,2.2.81,4.37,2.23,6.05s3.31,2.92,5.28,3.9c5.46,2.71,11.73,3.6,16.98,6.7,1.31.77,2.54,1.67,3.77,2.57"/>
        <path class="cls-6" d="M37.15,63.84c.24-7.9,2.36-15.74,6.14-22.68.66-1.22,1.59-2.55,2.97-2.64,1.75-.11,2.9,1.84,3.21,3.56.74,4.22-.96,8.47-2.88,12.3-2.54,5.08-5.53,9.93-8.91,14.5"/>
        <path class="cls-6" d="M27.94,80.57c-.19,4.58-2.24,9.05-5.58,12.2-.75.71-1.94,1.76-2.36,2.71-.34.78-1.33,2.45-1.34,3.3-.01,1.94.41,2.84,1.55,4.4.93,1.28,3.4,1.99,4.89,2.5,3.89,1.34,8.1,1.75,12.17,1.18,1.59-.22,3.15-.59,4.71-.95,1.37-.32,2.88-.73,3.64-1.92,1.04-1.63.14-3.76-.76-5.48-3.3-6.36-6.37-13.29-5.67-20.42"/>
        <path class="cls-7" d="M49.34,100.33c-1.49.58-2.49,2.21-2.35,3.8.03.34.11.69.3.98.3.46.84.71,1.36.89.86.31,1.82.52,2.69.22.95-.32,1.63-1.2,1.99-2.14.15-.39.25-.81.23-1.23-.05-1.1-.94-1.99-1.92-2.49-.51-.26-1.08-.46-1.66-.44-.68.02-1.32.31-1.93.6"/>
        <path class="cls-9" d="M56.89,84.23c2.38-3.57,5.54-8.12,9.61-9.46,2.01-.66,4.2-.66,6.16-1.45s3.72-2.84,3.09-4.85c-.43-1.38-1.87-2.25-3.31-2.43s-2.88.21-4.26.62c-1.91.57-3.83,1.21-5.52,2.29-4.43,2.84-6.5,8.14-8.15,13.16-1.71-2.13-5.26-2.42-7.29-.61-1.03-3.42-2.31-6.85-4.54-9.64s-5.58-4.88-9.15-4.85c-1.45.01-3.07.5-3.71,1.8-.48.98-.26,2.2.3,3.14s1.43,1.65,2.29,2.33c2.93,2.29,6.05,4.35,9.31,6.14,1.63.89,3.45,1.9,3.99,3.68-1.52.74-1.86,2.9-1.12,4.41s2.25,2.49,3.75,3.27c2.08,1.08,4.51,1.94,6.75,1.23,1.95-.61,3.46-2.46,3.66-4.5s-.91-4.14-2.7-5.13"/>
        <path class="cls-9" d="M46.54,90.57c-.25,2.31-1.04,4.55-2.29,6.51-.67,1.05-1.47,2.03-1.92,3.18-.72,1.83-.41,4.07.91,5.52,1.34,1.46,3.43,1.94,5.4,2.12,3.01.27,6.06.01,8.98-.77,1.05-.28,2.15-.68,2.82-1.54,1.04-1.37.57-3.39-.41-4.8s-2.41-2.46-3.45-3.83c-1.7-2.25-2.25-5.2-2.14-8.02l-3.66-3.58"/>
        <path class="cls-9" d="M43.69,98.62c.68-1.22,1.66-2.27,2.23-3.54"/>
        <circle class="cls-6" cx="50.62" cy="102.62" r="3.05"/>
        <circle class="cls-9" cx="32.13" cy="100.95" r="3.05"/>
        <path class="cls-3" d="M49.22,99.58c-.06.65-1.04.85-1.23,1.47-.04.14-.04.29-.09.43-.06.16-.19.29-.27.45-.07.16-.08.34-.09.51-.03.74.02,1.53.46,2.13.32.43.79.7,1.26.94.82.43,1.73.83,2.65.68,1.14-.18,2.04-1.24,2.19-2.39.07-.5.02-1.01-.03-1.51-.02-.24-.05-.49-.16-.7-.09-.17-.24-.32-.32-.5-.09-.2-.09-.43-.16-.64-.14-.44-.54-.75-.97-.9s-.9-.15-1.36-.16c-.61,0-1.22-.01-1.83-.02-.17,0-.34,0-.51.03-.21.05-.4.15-.57.27-.66.46-1.11,1.2-1.3,1.98s-.14,1.61.07,2.39c.19.72.52,1.41,1.03,1.95s1.21.92,1.95.96"/>
        <path class="cls-3" d="M46.89,82.73c-1.14.55-1.96,1.69-2.22,2.94s0,2.57.6,3.69c.32.59.74,1.13,1.31,1.49.6.37,1.3.51,2,.64"/>
        <path class="cls-3" d="M56.62,98c.51-.46,1.12-.95,1.79-.83.29.05.54.21.77.4.78.64,1.27,1.59,1.5,2.58s.23,2.01.18,3.02c-.02.4-.05.81-.22,1.17s-.5.68-.9.72c-.5-1.85-.99-3.69-1.49-5.54-.04-.14-.04-.33.1-.36.06-.01.13.02.18.07.12.1.2.25.22.41-.48-.33-.87-.79-1.13-1.31-.03-.07-.06-.15-.03-.21.06-.11.22-.06.33,0,.41.26.76.62.99,1.04.05.09.1.2.05.29-.08.16-.32.12-.48.02-.32-.2-.58-.49-.74-.83-.09-.18-.14-.41-.03-.57.11-.17.35-.2.54-.13s.34.22.47.36c.29.3.58.62.75,1.01s.19.86-.04,1.21c-.45-.6-.74-1.32-.84-2.06,0-.06-.01-.13.01-.18.09-.18.36-.05.49.1.69.8,1.01,1.89.87,2.93-.37-.61-.62-1.29-.74-2,.48.4.75,1.06.68,1.68-.11-.21-.19-.45-.22-.68l.16.27"/>
        <path class="cls-3" d="M45.22,98.3c-.4-.38-.85-.77-1.4-.79-.74-.02-1.3.66-1.6,1.33-.67,1.5-.64,3.27-.03,4.79.26.66.64,1.29,1.19,1.74s1.29.7,1.98.55c-2-1.04-3.26-3.35-3.06-5.6.03-.28.24-.65.48-.51.07.04.11.11.14.19.14.35,0,.78-.3,1-.12-.3-.19-.63-.21-.95-.01-.29.02-.6.2-.82s.53-.34.76-.17.17.63-.12.67c-.19.03-.37-.14-.41-.32s0-.38.07-.56c.08-.2.2-.39.39-.47s.47.03.48.24c.02.22-.29.37-.48.26s-.26-.37-.21-.58.19-.4.32-.58c.06-.07.12-.15.21-.18.07-.02.14,0,.2.02.55.16,1.2.44,1.25,1.01,0,.12-.18.24-.18.12"/>
        <path class="cls-4" d="M20.86,102.61c-2.11-1.3-3-4.27-1.95-6.51.16.54.27,1.09.31,1.65.07-.97.17-1.96.49-2.88s.88-1.79,1.71-2.32c-.29.45-.79.76-1.33.83.72-.38,1.47-.71,2.24-.98-.67.16-1.31.47-1.85.9.88.09,1.79-.25,2.4-.89-.98-.07-1.98.58-2.31,1.5.8-.21,1.54-.69,2.05-1.34-1.41.36-2.59,1.51-3,2.91-.03.1-.04.25.06.29.08.04.16-.02.23-.07.85-.64,1.45-1.59,1.66-2.63-1.39.58-2.33,2.08-2.26,3.58.73-.52,1.31-1.25,1.64-2.08.15-.37.22-.86-.1-1.11-.36-.29-.9.02-1.18.39-.27.35-.46.77-.56,1.21-.04.17-.05.37.04.51.23.36.81.11,1.02-.26.29-.52.23-1.2-.13-1.67-.84.7-1.24,1.88-1.01,2.95.03.16.13.35.29.34.11,0,.19-.11.25-.21.26-.43.41-.91.44-1.41,0-.09,0-.19-.04-.27-.17-.3-.64-.02-.8.29-.48.91-.51,2.05-.08,2.99.04.09.09.18.18.22.19.08.37-.15.44-.34.31-.82.3-1.76-.03-2.58-.03-.08-.08-.17-.16-.21-.19-.1-.38.15-.44.36-.29,1-.12,2.08.13,3.09.3,1.23.71,2.43,1.22,3.59-.66-1.21-1.33-2.43-1.71-3.75s-.45-2.78.06-4.06,1.7-2.33,3.07-2.44c.3-.02.61,0,.88-.13.25-.11.44-.33.62-.54.83-.97,1.67-1.95,2.34-3.04,1.58-2.57,2.15-5.73,2.18-8.11.11.74.14,1.49.07,2.23-.1-.66-.13-1.32-.08-1.98.04.34.09.68.13,1.02.06-.45.12-.89.18-1.34"/>
        <path class="cls-4" d="M24.17,96.96c-.15-.91-.37-1.8-.66-2.68-.34.76-.95,1.4-1.69,1.78-.06.03-.13.07-.21.06-.18,0-.28-.22-.32-.4-.1-.44-.1-.9-.02-1.35.05.3-.03.61-.21.85-.1-.38-.13-.78-.09-1.16-.27,0-.54.05-.79.12-.04.21.02.44.15.61.27-.29.62-.49.99-.6l-.27.16"/>
        <path class="cls-4" d="M19.1,94.8c-.48.91-.97,1.87-.95,2.9.02.86.39,1.67.78,2.44.3.6.62,1.19,1.07,1.68s1.05.88,1.71.96"/>
        <path class="cls-4" d="M20.36,93.02c-1.89,1.53-2.77,4.2-2.17,6.56s2.65,4.28,5.04,4.73"/>
        <path class="cls-4" d="M40.86,90.37c.32.93.72,1.94,1.6,2.37.35.17.76.23,1.09.44.23.15.41.36.57.58.35.48.61,1.02.79,1.59.04.13.08.27.06.4-.01.14-.08.27-.15.4-.25.45-.54.88-.86,1.28-.42-1.22-.84-2.44-1.26-3.66.29.46.54.95.74,1.47-.6-.7-1.22-1.47-1.28-2.39l1.38,1.66c.12.14.22.38.07.48-.36-.28-.6-.73-.62-1.19,0-.09.01-.2.1-.23.07-.02.15.03.2.08.42.41.64,1.02.58,1.6-.47-.58-.78-1.29-.89-2.02l.28.2c-.18-.09-.36-.18-.54-.26.32-.23.76.06,1,.37.6.79.82,1.84.6,2.8-.26-.49-.35-1.08-.24-1.63.22.48.21,1.06-.04,1.53-.24-.42-.39-.9-.42-1.39.29.48.47,1.02.52,1.58-.07-.38.05-.79.33-1.07.16.51.03,1.1-.32,1.5l.58-1.23c-.12.52-.35,1.01-.66,1.43v-.28"/>
        <path class="cls-2" d="M48.93,100.1c.23-.18.46-.36.74-.42.13-.03.26-.02.39-.05.25-.05.47-.19.68-.32.43-.26.9-.48,1.4-.45"/>
        <path class="cls-3" d="M57.29,103.3l-.26.14"/>
        <path class="cls-3" d="M43.55,98.36c.76-1.31,1.74-2.49,2.88-3.49-1.22,1.19-2.38,2.45-3.46,3.77.63-.83,1.36-1.57,2.18-2.22"/>
        <path class="cls-2" d="M31.04,98.35c-.58.21-1.09.61-1.44,1.12-.13.19-.24.39-.27.61-.02.19,0,.38,0,.56-.01.22-.08.44-.11.67-.09.75.35,1.51.98,1.92s1.44.51,2.19.4c.34-.05.7-.16.93-.42.12-.14.21-.32.38-.41.19-.09.42-.03.62-.08.39-.1.56-.55.62-.94.13-1.05-.21-2.16-.93-2.94-.2-.22-.43-.42-.71-.49-.13-.03-.27-.04-.4-.07-.16-.04-.31-.13-.47-.19-.34-.12-.74-.07-1.04.13s-.5.55-.53.91"/>
      </g>
    </symbol>
  </defs>
  <g id="Layer_17" data-name="Layer 17">
    <use width="75.88" height="108.01" xlink:href="#New_Symbol_8"/>
  </g>
</svg>