<?xml version="1.0" encoding="UTF-8"?>
<svg id="Layer_2" data-name="Layer 2" xmlns="http://www.w3.org/2000/svg" xmlns:xlink="http://www.w3.org/1999/xlink" viewBox="0 0 76.04 108.95">
  <defs>
    <style>
      .cls-1 {
        fill: #122540;
      }

      .cls-2 {
        fill: #fbc6bb;
      }

      .cls-3 {
        stroke: #1a2e4b;
        stroke-linecap: round;
        stroke-linejoin: round;
        stroke-width: .4px;
      }

      .cls-3, .cls-4 {
        fill: #1a2e4b;
      }

      .cls-5 {
        fill: url(#linear-gradient);
      }

      .cls-6 {
        fill: #fffad1;
      }

      .cls-7 {
        fill: #fff;
      }

      .cls-8 {
        fill: #fcdc61;
      }

      .cls-9 {
        fill: #f3deca;
      }

      .cls-10 {
        fill: #d4bc39;
      }
    </style>
    <linearGradient id="linear-gradient" x1="16782.36" y1="15.23" x2="16832.25" y2="65.12" gradientTransform="translate(16470.46) rotate(-180) scale(.98 -1)" gradientUnits="userSpaceOnUse">
      <stop offset="0" stop-color="#faf9db"/>
      <stop offset=".31" stop-color="#fdf395"/>
      <stop offset="1" stop-color="#fddc61"/>
    </linearGradient>
    <symbol id="New_Symbol_9" data-name="New Symbol 9" viewBox="0 0 76.04 108.95">
      <g>
        <ellipse class="cls-1" cx="38.22" cy="82.96" rx="32.7" ry="4.62"/>
        <path class="cls-5" d="M5.8,40.17c0,22.19,17.66,40.18,39.43,40.18.92,0,1.84-.03,2.74-.1V.1c-.9-.07-1.82-.1-2.74-.1C23.45,0,5.8,17.99,5.8,40.17Z"/>
        <ellipse class="cls-10" cx="17.33" cy="37.48" rx="4.05" ry="4.15"/>
        <ellipse class="cls-8" cx="17.69" cy="38.01" rx="4.05" ry="4.15"/>
        <ellipse class="cls-10" cx="20.62" cy="56.35" rx="3.18" ry="3.26"/>
        <ellipse class="cls-8" cx="20.9" cy="56.76" rx="3.18" ry="3.26"/>
        <ellipse class="cls-10" cx="39.21" cy="33.96" rx="1.61" ry="1.7"/>
        <ellipse class="cls-8" cx="39.35" cy="34.18" rx="1.61" ry="1.7"/>
        <ellipse class="cls-10" cx="34.65" cy="24.72" rx="3.22" ry="3.4"/>
        <ellipse class="cls-8" cx="34.93" cy="25.16" rx="3.22" ry="3.4"/>
        <ellipse class="cls-10" cx="37.64" cy="69.18" rx="2.45" ry="2.51"/>
        <ellipse class="cls-8" cx="37.85" cy="69.5" rx="2.45" ry="2.51"/>
        <path class="cls-7" d="M34.81,99.61c.29,0,.58-.5.87-.5-.29,0-.58.5-.87.5h0Z"/>
        <path class="cls-6" d="M48.55,64.65c2.17,1.99,3.31,5.06,2.94,7.99-.2,1.64-.84,3.33-.31,4.9.21.63.61,1.26.45,1.9-.14.6-.72.99-1.27,1.27-2.2,1.11-4.71,1.44-7.17,1.55-1.75.08-3.54.06-5.22-.45s-3.25-1.58-4.05-3.14c-.14-.28-.26-.59-.22-.9.04-.29.21-.53.35-.79,1.05-1.95.05-4.32.13-6.53.1-2.84,2.14-5.41,4.74-6.58,2.6-1.17,5.65-1.07,8.36-.18.75.25,1.62.73,1.61,1.53"/>
        <path class="cls-6" d="M45.98,65.73c1.07-2.18,2.48-4.2,4.15-5.96,1.18-1.25,2.5-2.36,3.81-3.48,1.46-1.24,2.92-2.48,4.44-3.64,3.51-2.69,7.34-4.96,11.4-6.71,1.56-.67,3.48-1.23,4.86-.25.93.66,1.32,1.86,1.39,3,.12,2.2-.81,4.37-2.23,6.05s-3.31,2.92-5.29,3.9c-5.47,2.71-11.76,3.6-17.02,6.7-1.31.77-2.54,1.67-3.77,2.57"/>
        <path class="cls-6" d="M38.81,64.77c-.24-7.9-2.36-15.74-6.15-22.68-.66-1.22-1.59-2.55-2.98-2.64-1.75-.11-2.91,1.84-3.21,3.56-.74,4.22.97,8.47,2.89,12.3,2.55,5.08,5.54,9.93,8.93,14.5"/>
        <path class="cls-6" d="M48.03,81.5c.19,4.58,2.24,9.05,5.59,12.2.75.71,1.59,1.38,2,2.32.34.78.35,1.65.36,2.5.01,1.94-.02,4.03-1.17,5.6-.93,1.28-2.45,1.98-3.95,2.49-3.9,1.34-8.11,1.75-12.2,1.18-1.59-.22-3.16-.59-4.72-.95-1.37-.32-2.88-.73-3.65-1.92-1.05-1.63-.14-3.76.76-5.48,3.31-6.36,6.38-13.29,5.68-20.42"/>
        <path class="cls-6" d="M44.49,98.51c1.49.58,2.5,2.21,2.35,3.8-.03.34-.11.69-.31.98-.31.46-.84.71-1.36.89-.86.31-1.82.52-2.69.22-.96-.32-1.63-1.2-1.99-2.14-.15-.39-.25-.81-.23-1.23.05-1.1.94-1.99,1.92-2.49.51-.26,1.08-.46,1.66-.44.68.02,1.32.31,1.94.6"/>
        <path class="cls-7" d="M26.59,101.26c1.49.58,2.5,2.21,2.35,3.8-.03.34-.11.69-.31.98-.31.46-.84.71-1.36.89-.86.31-1.82.52-2.69.22-.96-.32-1.63-1.2-1.99-2.14-.15-.39-.25-.81-.23-1.23.05-1.1.94-1.99,1.92-2.49.51-.26,1.08-.46,1.66-.44.68.02,1.32.31,1.94.6"/>
        <path class="cls-9" d="M19.03,85.27c-2.38-3.57-5.54-8.22-9.62-9.57-2.41-.8-5.1-.64-7.33-2.03-.89-.55-1.6-1.38-1.91-2.38-.76-2.46,1.27-4.07,3.28-4.32,1.44-.18,2.88.21,4.27.62,1.92.57,3.84,1.21,5.53,2.29,4.44,2.84,6.52,8.14,8.17,13.16,1.71-2.13,5.27-2.42,7.31-.61,1.03-3.42,2.31-6.85,4.55-9.64,2.24-2.79,5.59-4.88,9.17-4.85,1.45.01,3.07.5,3.71,1.8.49.98.26,2.2-.3,3.14s-1.43,1.65-2.3,2.33c-2.94,2.29-6.06,4.35-9.33,6.14-1.63.89-3.16,1.34-3.7,3.12,1.52.74,2.15,4.49,1.41,6.01-.75,1.51-1.19,2.01-2.69,2.79-2.09,1.08-6.17,1.38-8.41.68-1.96-.61-3.46-2.46-3.67-4.5-.2-2.04.91-4.14,2.7-5.13"/>
        <path class="cls-9" d="M29.4,91.51c.26,2.31,1.05,4.55,2.29,6.51.67,1.05,1.47,2.03,1.92,3.18.72,1.83.42,4.07-.91,5.52-1.34,1.46-3.43,1.94-5.41,2.12-3.01.27-6.08.01-9-.77-1.06-.28-2.16-.68-2.82-1.54-1.04-1.37-.58-3.39.41-4.8s2.41-2.46,3.46-3.83c1.71-2.25,2.25-5.2,2.14-8.02l3.67-3.58"/>
        <path class="cls-6" d="M39.23,66.98c-1.91,1.05-3.31,2.99-3.72,5.13s.19,4.45,1.58,6.13c.41.5.91.95,1.51,1.19.44.18.93.23,1.4.28,1.25.13,2.56.26,3.73-.19,1.22-.47,2.15-1.52,2.72-2.69s.84-2.47,1.07-3.76c.22-1.24.4-2.55-.05-3.73s-1.74-2.12-2.94-1.74"/>
        <path class="cls-6" d="M38.16,96.15c1.66,1.13,2.36,3.22,3.69,4.71.57.63,1.24,1.15,1.91,1.67.68.52,1.35,1.04,2.03,1.56.1.08.21.16.34.18.18.03.35-.06.51-.16,1.73-1.08,3-2.86,3.47-4.84.18-.77.23-1.64-.19-2.31-.53-.84-1.59-1.13-2.56-1.35-1.78-.4-3.55-.8-5.33-1.2-.68-.15-1.38-.31-2.06-.16-.66.14-1.23.55-1.72,1.01-.99.94-1.74,2.13-2.14,3.44"/>
        <path class="cls-6" d="M36.17,100.16c-.26,2.1,1.29,4.14,3.25,4.95s4.21.6,6.23-.01c.6-.18,1.2-.41,1.65-.83.71-.66.94-1.68,1.05-2.64.1-.91.11-1.87-.3-2.68-.39-.78-1.11-1.33-1.8-1.85-1.57-1.18-3.15-2.37-4.72-3.55"/>
        <path class="cls-6" d="M40.03,81.05c-2.32.38-5-.2-6.32-2.46-.82-1.4-.96-3.21-.71-4.87s.87-3.22,1.49-4.74c.28-.68,1.94-1.1,2.38-1.66"/>
        <path class="cls-3" d="M19.22,89.4c.24-.27.52-.52.81-.73.08-.06.17-.12.27-.14.29-.07.55.18.74.41.41.5.8,1.06.83,1.71-.51-.36-.84-1-1.44-1.18-.35-.11-.8-.13-1.16-.06"/>
        <path class="cls-3" d="M48.67,74.98c-.4-.2-.81-.37-1.24-.5-.14-.04-.29-.08-.44-.09-.38-.01-.75.2-1,.48s-.41.63-.57.97c-.12.26-.24.52-.35.78-.03.06-.05.12-.03.18.03.1.16.12.26.13.74.04,1.51.06,2.19-.21s1.21-1.03,1.18-1.75"/>
        <path class="cls-3" d="M35.86,73.77c.41-.14.83-.23,1.25-.29.14-.02.29-.03.43-.01.36.05.67.32.86.64s.28.69.36,1.05c.07.28.13.55.2.83.01.06.03.13,0,.18-.05.09-.17.09-.27.08-.7-.08-1.43-.19-2.03-.57s-.96-1.21-.8-1.92"/>
        <path class="cls-3" d="M30.13,88.07c-.28-.22-.58-.41-.89-.57-.09-.04-.18-.09-.28-.09-.28-.01-.48.27-.61.53-.29.56-.55,1.19-.46,1.83.41-.45.6-1.13,1.13-1.42.31-.17.72-.27,1.07-.27"/>
        <ellipse class="cls-2" cx="18.32" cy="91.45" rx="1.6" ry=".55" transform="translate(-.55 .11) rotate(-.35)"/>
        <ellipse class="cls-2" cx="31.98" cy="89.18" rx="1.6" ry=".55" transform="translate(-18.65 9.1) rotate(-12.57)"/>
        <ellipse class="cls-2" cx="33.79" cy="75.87" rx=".55" ry="1.6" transform="translate(-49.14 80.49) rotate(-69.19)"/>
        <ellipse class="cls-2" cx="50.47" cy="77.54" rx="1.6" ry=".55" transform="translate(-9.89 7.42) rotate(-7.66)"/>
        <ellipse class="cls-4" cx="41.64" cy="78.28" rx=".4" ry="1.66" transform="translate(-45.64 62.7) rotate(-51.87)"/>
        <ellipse class="cls-4" cx="41.65" cy="78.3" rx="1.66" ry=".4" transform="translate(-32.74 30.01) rotate(-29)"/>
        <ellipse class="cls-4" cx="24.96" cy="91.2" rx=".28" ry="1.14" transform="translate(-69 80.63) rotate(-68.27)"/>
        <ellipse class="cls-4" cx="24.97" cy="91.22" rx="1.14" ry=".28" transform="translate(-57.51 44.95) rotate(-45.4)"/>
      </g>
    </symbol>
  </defs>
  <g id="Layer_14" data-name="Layer 14">
    <use width="76.04" height="108.95" xlink:href="#New_Symbol_9"/>
  </g>
</svg>