<?xml version="1.0" encoding="UTF-8"?>
<svg id="Layer_2" data-name="Layer 2" xmlns="http://www.w3.org/2000/svg" xmlns:xlink="http://www.w3.org/1999/xlink" viewBox="0 0 96.08 86.06">
  <defs>
    <style>
      .cls-1 {
        fill: #122540;
      }

      .cls-2 {
        fill: #fbc6bb;
      }

      .cls-3 {
        stroke: #1a2e4b;
        stroke-width: .4px;
      }

      .cls-3, .cls-4 {
        fill: #1a2e4b;
      }

      .cls-3, .cls-5 {
        stroke-linecap: round;
        stroke-linejoin: round;
      }

      .cls-6 {
        fill: url(#linear-gradient);
      }

      .cls-7 {
        fill: #fffad1;
      }

      .cls-5 {
        fill: none;
        stroke: #fbf9d2;
      }

      .cls-8 {
        fill: #fcdc61;
      }

      .cls-9 {
        fill: #d4bc39;
      }
    </style>
    <linearGradient id="linear-gradient" x1="16814.98" y1="24.93" x2="16857.09" y2="67.04" gradientTransform="translate(16975.82) rotate(-180) scale(1.01 -1)" gradientUnits="userSpaceOnUse">
      <stop offset="0" stop-color="#faf9db"/>
      <stop offset=".31" stop-color="#fdf395"/>
      <stop offset="1" stop-color="#fddc61"/>
    </linearGradient>
    <symbol id="New_Symbol_6" data-name="New Symbol 6" viewBox="0 0 96.08 86.06">
      <g>
        <path class="cls-7" d="M55.61,33.28c1.78-5.57,3.77-11.46,8.32-15.13,2.59-2.09,5.78-3.26,8.97-4.19,1.5-.43,3.05-.83,4.6-.65s3.11,1.03,3.72,2.47c.27.64.33,1.38.08,2.03-.18.47-.52.87-.85,1.26-3.6,4.12-7.9,7.63-12.66,10.33-3.38,1.92-7.09,3.51-9.67,6.42-.13.14-.31.3-.48.22s.06-.42.13-.24"/>
        <path class="cls-7" d="M51.41,33.36c.93-5.29,1.92-10.61,3.84-15.62s4.86-9.76,9.09-13.06c1.1-.86,2.66-1.63,3.83-.86.87.58,1.08,1.75,1.11,2.8.23,6.74-3.42,13.06-7.94,18.06-1.27,1.41-2.63,2.75-3.65,4.35s-1.7,3.5-1.44,5.38"/>
        <path class="cls-7" d="M60.2,32.74c2.06,1.31,3.19,3.93,2.73,6.33-.19.99-.61,2.07-.11,2.94.22.38.58.65.81,1.01.56.89.19,2.14-.57,2.87s-1.81,1.07-2.83,1.35c-1.74.48-3.54.87-5.34.8s-3.64-.67-4.95-1.92c-.73-.7-1.27-1.59-1.7-2.51-1.12-2.39-1.58-5.19-.73-7.69s3.2-4.56,5.83-4.59"/>
        <path class="cls-7" d="M50.59,46.84c-1.04,1.3-1.51,2.97-1.96,4.58-.41,1.48-.82,2.98-.82,4.52,0,2.11.78,4.13,1.55,6.1.55,1.4,1.11,2.82,2.08,3.97.92,1.08,2.14,1.84,3.41,2.48,3.32,1.67,4.51,2.62,8.22,2.66.63,0,.09-.31.68-.52,1.25-.45,1.4-3.58,4.18-3.28,2.09.23,2.08-3.76.84-5.46s-3.26-2.78-5.35-2.86c1.61-3.85.85-10.56-2.81-12.51"/>
        <path class="cls-7" d="M49.49,60.98c-.8-1.02-2.38-1.16-3.56-.63-1.04.47-1.87,1.39-2.16,2.49s-.03,2.34.73,3.19c.55.61,1.3.99,2.06,1.28,1.71.64,3.81.83,5.24-.3"/>
        <path class="cls-7" d="M59.52,46.93c1.85.2,5.27,1.38,6.68,2.58.26.22.51.46.65.77s.14.7-.08.96c-.17.2-.43.29-.67.37-.85.28-1.69.56-2.54.84"/>
        <ellipse class="cls-1" cx="38.22" cy="81.44" rx="32.91" ry="4.62"/>
        <path class="cls-6" d="M0,38.58c0,18.12,12.12,33.42,28.76,38.44,3.74,1.12,7.72,1.73,11.83,1.73,3.85,0,7.58-.53,11.11-1.52h.01c7.79-2.2,14.63-6.64,19.75-12.57-4.19,1.22-8.64,1.77-13.24,1.56-22.39-1.03-39.71-19.84-38.67-42,.43-9.28,4.02-17.67,9.68-24.22C12.34,4.87,0,20.3,0,38.58Z"/>
        <ellipse class="cls-9" cx="11.88" cy="35.88" rx="4.17" ry="4.15"/>
        <ellipse class="cls-8" cx="12.24" cy="36.42" rx="4.17" ry="4.15"/>
        <ellipse class="cls-9" cx="15.26" cy="54.75" rx="3.28" ry="3.26"/>
        <ellipse class="cls-8" cx="15.55" cy="55.17" rx="3.28" ry="3.26"/>
        <ellipse class="cls-9" cx="32.78" cy="67.59" rx="2.52" ry="2.51"/>
        <ellipse class="cls-8" cx="33" cy="67.91" rx="2.52" ry="2.51"/>
        <polyline class="cls-7" points="66.91 50.63 90.59 29.45 89.97 28.89 66.29 50.08"/>
        <polygon class="cls-7" points="90.59 29.45 90.26 29.45 90.26 73.87 90.59 73.87 90.59 29.45"/>
        <path class="cls-8" d="M90.01,73.75l-.88,2.43c-.19.52-.68.87-1.24.87h-2.82c-.39,0-.54.51-.21.72l2.11,1.37c.51.33.73.98.52,1.55l-.81,2.23c-.13.36.27.67.58.46l2.4-1.56c.44-.28,1-.28,1.43,0l2.4,1.56c.32.21.71-.11.58-.46l-.81-2.23c-.21-.58,0-1.22.52-1.55l2.11-1.37c.33-.21.18-.72-.21-.72h-2.82c-.55,0-1.05-.35-1.24-.87l-.88-2.43c-.13-.35-.61-.35-.74,0Z"/>
        <path class="cls-5" d="M52.41,31.57c-2.97,2-4.78,5.6-4.62,9.17.03.71.14,1.42.41,2.08.32.78.86,1.45,1.47,2.02.78.73,1.69,1.32,2.68,1.72"/>
        <path class="cls-5" d="M49.75,50.05c-.42,1.85-1.03,3.65-1.84,5.37-.48,1.03-1.04,2.03-1.41,3.1s-.56,2.24-.29,3.35c.46-1.67.99-3.33,1.58-4.96-.4,1.38-.56,2.83-.46,4.26.11-1.52.36-3.04.75-4.51.1,1.48.2,2.98.69,4.38-.05-1-.1-1.99-.14-2.99"/>
        <path class="cls-5" d="M63.96,51.89c-.27,1.55-.13,3.17.38,4.65.23.64.52,1.26.71,1.92s.26,1.37.03,2.01c-.2-1.22-.66-2.4-1.34-3.44.11.82.06,1.67-.14,2.48-.11-.6,0-1.25.29-1.78.08.43.01.89-.19,1.28-.13-.13-.04-.39.14-.44s.38.08.44.25.03.38-.06.54l-.06-.45"/>
        <path class="cls-5" d="M63.89,51.06l-.94-2.43c-.13-.33-.26-.67-.45-.98-.42-.69-1.13-1.2-1.43-1.95.31.77.62,1.54.92,2.31-.08-.28-.22-.54-.42-.75"/>
        <path class="cls-5" d="M62.79,47.88c1.25.18,2.31,1.32,3.56,1.16.34-.04.69-.18,1.02-.06.46.17.59.79.47,1.27-.18.77-.78,1.39-1.48,1.75s-1.49.5-2.28.57c1.43-.38,2.62-1.52,3.07-2.92.18.28.06.7-.25.83s-.7-.13-.7-.46c0-.34.46-.58.75-.39s.23.71-.09.84c-.34-.18-.38-.73-.08-.97"/>
        <path class="cls-5" d="M60.96,33.07c1.25,1.49,1.96,3.44,1.95,5.39,0,1.18-.25,2.41.19,3.5.19.46.5.89.54,1.39.04.49-.2.96-.46,1.37-.47.74-1.04,1.4-1.7,1.97"/>
        <path class="cls-3" d="M57.78,40.72c.43.55,1.07.93,1.75,1.08s1.41.08,2.07-.13c0-.22-.27-.31-.48-.35-.67-.14-1.29-.46-1.93-.72-.24-.1-.5-.2-.76-.22s-.54.05-.73.24"/>
        <ellipse class="cls-2" cx="56.22" cy="42.52" rx=".55" ry="1.6" transform="translate(4.1 89.98) rotate(-79.42)"/>
        <ellipse class="cls-4" cx="63.9" cy="44.58" rx=".4" ry=".78" transform="translate(6.42 97.17) rotate(-77.36)"/>
      </g>
    </symbol>
  </defs>
  <g id="Layer_18" data-name="Layer 18">
    <use width="96.08" height="86.06" xlink:href="#New_Symbol_6"/>
  </g>
</svg>