<?xml version="1.0" encoding="UTF-8"?>
<svg id="Layer_2" data-name="Layer 2" xmlns="http://www.w3.org/2000/svg" xmlns:xlink="http://www.w3.org/1999/xlink" viewBox="0 0 97.5 88.28">
  <defs>
    <style>
      .cls-1 {
        fill: #122540;
      }

      .cls-2 {
        fill: #fbc6bb;
      }

      .cls-3 {
        stroke: #1a2e4b;
        stroke-width: .4px;
      }

      .cls-3, .cls-4 {
        fill: #1a2e4b;
      }

      .cls-3, .cls-5 {
        stroke-linecap: round;
        stroke-linejoin: round;
      }

      .cls-6 {
        fill: url(#linear-gradient);
      }

      .cls-7 {
        fill: #fffad1;
      }

      .cls-5 {
        fill: none;
        stroke: #fbf9d2;
      }

      .cls-8 {
        fill: #fcdc61;
      }

      .cls-9 {
        fill: #d4bc39;
      }
    </style>
    <linearGradient id="linear-gradient" x1="16816.41" y1="24.94" x2="16858.51" y2="67.03" gradientTransform="translate(16977.25) rotate(-180) scale(1.01 -1)" gradientUnits="userSpaceOnUse">
      <stop offset="0" stop-color="#faf9db"/>
      <stop offset=".31" stop-color="#fdf395"/>
      <stop offset="1" stop-color="#fddc61"/>
    </linearGradient>
    <symbol id="New_Symbol_7" data-name="New Symbol 7" viewBox="0 0 97.5 88.28">
      <g>
        <path class="cls-7" d="M65.76,34c.06-.12-.22-.06-.16.06s.23.1.36.05c3.43-1.25,5.51-4.81,7.3-8.12.8-1.48,1.61-2.98,2.1-4.61.78-2.63,1.14-5.46.97-8.2-.1-1.71-.12-3.42-.24-5.13-.09-1.25-.9-2.72-2.24-2.99-.74-.15-1.52.17-2.04.75-3.3,3.63-5.41,8.26-6.73,13.05-1.22,4.45-2.64,8.2-3.11,12.8-1.06-.68-1.31-.47-2.54-.66s-3.36.13-4.07,1.19c.13-3.59-.16-7.01-1.47-10.34s-2.86-6.55-4.5-9.71c-.99-1.91-2.69-4.19-5.28-4.12-.71.02-.87.38-1.47.77-2.25,1.44-2.11,3.98-2.2,6.55-.08,2.2.81,4.25,1.75,6.23,2.33,4.92,4.52,9.09,8.66,12.31.31.24.62.48.72.71.39,2.56.13,5.22-.76,7.63-.21.57-.45,1.23-.16,1.76.14.27.4.45.65.61,3.91,2.55,8.89,3.23,13.3,1.82.8-.26,1.64-.63,2.05-1.39.6-1.09.08-2.44-.3-3.63-.81-2.54-.95-5.31-.4-7.92"/>
        <path class="cls-7" d="M53.37,44.76c-.4,2.14-1.68,5.92-2.8,7.79-1.39,2.32-3.34,4.49-3.58,7.18-.13,1.49.3,2.97.88,4.34.57,1.34,1.3,2.64,2.36,3.64,1.69,1.59,4.03,2.29,6.33,2.61,3.79.52,5.65.16,9.26-1.1.57-.2,1.09-.65,1.56-1.04.82-.69,2.63-1.66,2.6-2.73-.09-2.65-2-4.92-4.64-4.71.29-2.47-.06-5.02-.99-7.33-.88-2.18-.83-4.58-1.44-6.85"/>
        <path class="cls-7" d="M62.96,48.21c1.27.96,2.58,1.95,4.11,2.39.53.15,1.12.27,1.46.69.46.58.21,1.5-.36,1.98s-1.35.61-2.09.68c-.7.07-1.4.09-2.09,0-.13-.02-.3-.12-.23-.23"/>
        <path class="cls-7" d="M47.77,59.64c-.53-.54-1.07-1.09-1.73-1.46s-1.46-.56-2.18-.32c-1.18.39-1.73,1.73-2.09,2.92-.2.66-.38,1.39-.1,2.02.13.29.35.54.58.77.94.94,2.14,1.68,3.46,1.88s2.77-.22,3.63-1.24"/>
        <ellipse class="cls-1" cx="37.78" cy="83.66" rx="32.91" ry="4.62"/>
        <path class="cls-6" d="M0,38.57c0,20.86,16.06,38.01,36.63,39.98.02,0,.03,0,.05,0h.05c1.27.12,2.56.18,3.85.18.82,0,1.62-.02,2.43-.08h.06c11.35-.67,21.44-5.97,28.39-14.01-4.19,1.22-8.64,1.77-13.24,1.56-22.39-1.03-39.71-19.84-38.67-42,.43-9.27,4.01-17.66,9.67-24.21C12.33,4.87,0,20.29,0,38.57Z"/>
        <ellipse class="cls-9" cx="11.87" cy="35.87" rx="4.17" ry="4.15"/>
        <ellipse class="cls-8" cx="12.23" cy="36.4" rx="4.17" ry="4.15"/>
        <ellipse class="cls-9" cx="15.25" cy="54.74" rx="3.28" ry="3.26"/>
        <ellipse class="cls-8" cx="15.54" cy="55.16" rx="3.28" ry="3.26"/>
        <ellipse class="cls-9" cx="32.77" cy="67.58" rx="2.52" ry="2.51"/>
        <ellipse class="cls-8" cx="32.99" cy="67.9" rx="2.52" ry="2.51"/>
        <polyline class="cls-7" points="68.33 52.05 92.01 30.86 91.39 30.3 67.71 51.49"/>
        <polygon class="cls-7" points="92.02 30.87 91.69 30.87 91.69 75.28 92.02 75.28 92.02 30.87"/>
        <path class="cls-8" d="M91.43,75.17l-.88,2.43c-.19.52-.68.87-1.24.87h-2.82c-.39,0-.54.51-.21.72l2.11,1.37c.51.33.73.98.52,1.55l-.81,2.23c-.13.36.27.67.58.46l2.4-1.56c.44-.28,1-.28,1.43,0l2.4,1.56c.32.21.71-.11.58-.46l-.81-2.23c-.21-.58,0-1.22.52-1.55l2.11-1.37c.33-.21.18-.72-.21-.72h-2.82c-.55,0-1.05-.35-1.24-.87l-.88-2.43c-.13-.35-.61-.35-.74,0Z"/>
        <ellipse class="cls-4" cx="59.04" cy="43.3" rx=".4" ry="1.66" transform="translate(-8.64 71.23) rotate(-58.68)"/>
        <ellipse class="cls-4" cx="59.05" cy="43.32" rx="1.66" ry=".4" transform="translate(-14.19 42.74) rotate(-35.81)"/>
        <path class="cls-5" d="M53.85,45.91c-.9-.31-1.78-.73-2.44-1.42s-1.04-1.69-.8-2.61c.13-.5.43-.93.68-1.38,1.09-1.9,1.45-4.21,1-6.36"/>
        <path class="cls-5" d="M66.19,34c-.27,1.4-.54,2.85-.26,4.25.2.98.66,1.88,1.01,2.82s.59,1.97.32,2.93c-.27.97-1.03,1.75-1.93,2.2s-1.92.6-2.92.61"/>
        <path class="cls-5" d="M66.59,44.26c.23-.67.1-1.42-.12-2.09s-.53-1.32-.68-2.02c.28.67.5,1.36.67,2.07-.21-.72-.5-1.43-.84-2.1"/>
        <path class="cls-5" d="M63.41,46.29c.44,1.22.89,2.45,1.16,3.72.22,1.05.31,2.12.59,3.15.41,1.55,1.2,2.98,1.62,4.53s.4,3.36-.65,4.57c.18-2.87-.77-5.67-1.72-8.38.79,1.77,1.31,3.66,1.56,5.58.06.45.08.96-.22,1.3.06-.92.2-1.84.42-2.74-.06,1.01-.29,2.02-.67,2.96.39-1.1.79-2.24.65-3.4-.11-.88-.53-1.69-.91-2.49-1.2-2.52-2.12-5.27-1.95-8.05.26.7.4,1.43.43,2.17-.22-.88-.54-1.73-.94-2.54l-2.9,15.11"/>
        <path class="cls-5" d="M53.74,22.75c-.88-3.75-2.91-7.12-4.94-10.39-.72-1.16-1.45-2.33-2.46-3.25s-2.34-1.57-3.7-1.47c-.21.02-.42.05-.59.17-.16.11-.27.28-.36.45-.73,1.31-.91,2.85-.99,4.34-.11,2.15.05,4.52,1.5,6.1.21-3.18.3-6.36.28-9.55.07.29-.3.57-.57.45s-.35-.53-.16-.77c.2-.25.58-.28.9-.25.09,0,.18.02.25.07.21.17-.02.5-.23.66-.21.16-.55.29-.68.07-.04-.07-.04-.14-.03-.22.05-.55.63-.98,1.17-.87,0,.2-.22.37-.41.32.65-.41,1.65-.03,1.85.71"/>
        <path class="cls-5" d="M54.77,32.84c1.17-1.07,2.65-1.84,4.23-1.99s3.25.41,4.29,1.61"/>
        <path class="cls-5" d="M62.9,31.55c-.54-1.58-.35-3.3-.16-4.96.34-2.9.69-5.83,1.7-8.57.28-.77.62-1.52.96-2.27,1.34-2.9,2.97-5.84,5.64-7.58-3.91,4.18-6.39,9.68-6.94,15.37.08-2.73.73-5.44,1.9-7.91-1.15,2.89-1.92,5.93-2.28,9.02"/>
        <path class="cls-5" d="M68.38,11.13c.75-1.82,2.1-3.38,3.78-4.39"/>
        <path class="cls-5" d="M50.8,41.87c1.01-2.49,1.38-5.24,1.07-7.9-.08-.65-.2-1.33-.59-1.86"/>
        <path class="cls-5" d="M53.97,46.22c-.29-.02-.58-.04-.85-.15-.23-.1-.42-.26-.6-.43-.82-.79-1.38-1.83-1.59-2.95-.12.98.35,1.97,1.09,2.61s1.75.94,2.73.95"/>
        <path class="cls-3" d="M65.92,40.17c-.39-.22-.8-.4-1.22-.54-.14-.05-.29-.09-.44-.1-.38-.03-.75.17-1.02.45s-.43.62-.6.95c-.13.26-.25.51-.38.77-.03.06-.06.12-.04.18.03.1.16.13.26.14.74.07,1.5.12,2.2-.13s1.25-.98,1.24-1.71"/>
        <path class="cls-3" d="M52.18,39.96c.4-.22.81-.4,1.24-.54.14-.05.29-.09.44-.1.39-.03.77.17,1.03.45s.44.62.61.95c.13.26.26.51.39.77.03.06.06.12.04.18-.03.1-.16.13-.26.14-.75.07-1.53.12-2.24-.13s-1.27-.98-1.26-1.71"/>
        <ellipse class="cls-2" cx="50.66" cy="42.58" rx="1.6" ry=".55" transform="translate(-.26 .31) rotate(-.35)"/>
        <ellipse class="cls-2" cx="67.28" cy="43.15" rx="1.6" ry=".55" transform="translate(-.26 .41) rotate(-.35)"/>
      </g>
    </symbol>
  </defs>
  <g id="Layer_14" data-name="Layer 14">
    <use width="97.5" height="88.28" xlink:href="#New_Symbol_7"/>
  </g>
</svg>