<?xml version="1.0" encoding="UTF-8"?>
<svg id="Layer_2" data-name="Layer 2" xmlns="http://www.w3.org/2000/svg" xmlns:xlink="http://www.w3.org/1999/xlink" viewBox="0 0 84.97 39.57">
  <defs>
    <style>
      .cls-1 {
        fill: #122540;
      }

      .cls-2 {
        fill: #fbc6bb;
      }

      .cls-3 {
        fill: #1a2e4b;
        stroke: #1a2e4b;
        stroke-dasharray: 0 0 0 0 0 0;
        stroke-linecap: round;
        stroke-linejoin: round;
        stroke-width: .4px;
      }

      .cls-4 {
        fill: #fffad1;
      }

      .cls-5, .cls-6 {
        fill: #fdd6bc;
      }

      .cls-6 {
        stroke: #fdd6bc;
        stroke-miterlimit: 10;
        stroke-width: .25px;
      }
    </style>
    <symbol id="New_Symbol_4" data-name="New Symbol 4" viewBox="0 0 84.97 39.57">
      <g>
        <ellipse class="cls-1" cx="52.07" cy="34.95" rx="32.91" ry="4.62"/>
        <path class="cls-5" d="M33.15,17.37c-.12.72-.43,1.47-1,1.92-4.36,3.45-8.22,10.47-12,15.06-2.24,2.72-4.82,5.19-8.41,3.71-.43-.18-1.01-.62-1.37-.92-.6-.49-.55-1.42-.38-2.17.96-4.19,3.71-7.77,6.85-10.71s6.71-5.36,9.93-8.19c0,0,0,0,0,0-3.73,1.93-7.49,3.88-11.53,5.01-4.22,1.18-8.83,1.42-12.91-.21-.28-.11-.55-.25-.81-.41-.22-.14-.45-.3-.59-.52-.47-.76.2-1.7.88-2.29,2.94-2.56,6.61-4.09,10.24-5.5,1.7-.66,3.36-1.05,5.15-1.38,2.76-.51,5.64-.49,8.44-.22h0c.47-1.88.88-2.88,1.43-3.78,1.93-3.21,5.99-5.26,9.57-4.13,1.4.44,2.65,1.32,4.1,1.59,1.04.2,2.15.05,3.11-.4.38-.18.85,0,1.01.38.91,2.13.71,4.68-.27,6.8-1.09,2.37-3.06,4.25-5.24,5.68-1.96,1.28-4.53,2.24-6.68,1.19h0c-1.25,2.01-2.84,5.32-1.83,7.67.52,1.21.52,1.25,1.17,2.45.89,1.66,2.36,2.95,4.14,3.57,4.12,1.46,8.48,1.91,12.81,2.16,4.6.27,9.44.26,13.5-1.91,1.54-.83,2.91-1.95,4.14-3.2,1.23-1.26,2.33-2.68,2.94-4.33s.67-3.55-.11-5.12c-1.11-2.21-3.61-3.35-6-3.97-2.76-.71-5.69-.97-8.46-.33-1.36.32-2.68.85-4.07.98-3.27.31-6.39-1.66-8.5-4.19"/>
        <path class="cls-5" d="M68.02,25.88c1,.02,2.02-.53,2.97-.2,1.06.37,1.47,1.64,1.66,2.75.18,1.02.27,2.15-.32,3-.69,1-2.04,1.23-3.25,1.35-1.26.13-2.56.22-3.74-.23-.77-.29-1.43-.78-2.09-1.27-.5-.38-1-.75-1.51-1.13"/>
        <path class="cls-5" d="M43.28,16.27c-1.23,2.95-3.01,5.79-6.73,5.79s-6.73-2.59-6.73-5.79,6.19-6.99,9.91-6.99,4.5,4.72,3.56,6.99Z"/>
        <path class="cls-6" d="M40.66,15.11c.31-.07.61.11.9.26.88.46,1.89.66,2.88.6.83-.05,1.68-.28,2.3-.84-.11.1-1.12-.52-1.26-.6-.41-.24-.8-.52-1.17-.84-.27-.23-.67-.85-1.07-.66-.21.1-.4.36-.57.52-.19.17-.39.34-.59.51-.45.37-.93.72-1.42,1.05Z"/>
        <path class="cls-6" d="M45.99,14.45h.02"/>
        <path class="cls-4" d="M32.38,15.06c-.12.72-.43,1.47-1,1.92-4.36,3.45-8.22,10.47-12,15.06-2.24,2.72-4.82,5.19-8.41,3.71-.43-.18-1.01-.62-1.37-.92-.6-.49-.55-1.42-.38-2.17.96-4.19,3.71-7.77,6.85-10.71s6.71-5.36,9.93-8.19c0,0,0,0,0,0-3.73,1.93-7.49,3.88-11.53,5.01s-8.83,1.42-12.91-.21c-.28-.11-.55-.25-.81-.41-.22-.14-.45-.3-.59-.52-.47-.76.2-1.7.88-2.29,2.94-2.56,6.61-4.09,10.24-5.5,1.7-.66,3.36-1.05,5.15-1.38,2.76-.51,5.64-.49,8.44-.22h0c.47-1.88.88-2.88,1.43-3.78,1.93-3.21,5.99-5.26,9.57-4.13,1.4.44,2.65,1.32,4.1,1.59,1.04.2,2.15.05,3.11-.4.38-.18.85,0,1.01.38.91,2.13.71,4.68-.27,6.8-1.09,2.37-3.06,4.25-5.24,5.68-1.96,1.28-4.53,2.24-6.68,1.19h0c-1.25,2.01-2.84,5.32-1.83,7.67.52,1.21.52,1.25,1.17,2.45.89,1.66,2.36,2.95,4.14,3.57,4.12,1.46,8.48,1.91,12.81,2.16,4.6.27,9.44.26,13.5-1.91,1.54-.83,2.91-1.95,4.14-3.2,1.23-1.26,2.33-2.68,2.94-4.33s.67-3.55-.11-5.12c-1.11-2.21-3.61-3.35-6-3.97-2.76-.71-5.69-.97-8.46-.33-1.36.32-2.68.85-4.07.98-3.27.31-6.39-1.66-8.5-4.19"/>
        <path class="cls-4" d="M67.25,23.57c1,.02,2.02-.53,2.97-.2,1.06.37,1.47,1.64,1.66,2.75.18,1.02.27,2.15-.32,3-.69,1-2.04,1.23-3.25,1.35-1.26.13-2.56.22-3.74-.23-.77-.29-1.43-.78-2.09-1.27-.5-.38-1-.75-1.51-1.13"/>
        <path class="cls-4" d="M42.52,13.96c-1.23,2.95-3.01,5.79-6.73,5.79s-6.73-2.59-6.73-5.79,6.19-6.99,9.91-6.99,4.5,4.72,3.56,6.99Z"/>
        <path class="cls-3" d="M34.43,5.45c.05-.39.1-.81.36-1.11.13-.16.31-.28.49-.38.23-.14.48-.26.75-.3.54-.1,1.08.11,1.57.34-.26.2-.63.19-.95.26-.72.14-1.28.67-1.91,1.05-.05.03-.14.04-.16.09s-.17,0-.13.02"/>
        <ellipse class="cls-2" cx="35.2" cy="7.09" rx="1.6" ry=".55" transform="translate(1.32 18.98) rotate(-30.72)"/>
      </g>
    </symbol>
  </defs>
  <g id="Layer_14" data-name="Layer 14">
    <use width="84.97" height="39.57" xlink:href="#New_Symbol_4"/>
  </g>
</svg>