<?xml version="1.0" encoding="UTF-8"?>
<svg id="Layer_2" data-name="Layer 2" xmlns="http://www.w3.org/2000/svg" xmlns:xlink="http://www.w3.org/1999/xlink" viewBox="0 0 94.58 129.28">
  <defs>
    <style>
      .cls-1 {
        fill: #122540;
      }

      .cls-2 {
        fill: #fbc6bb;
      }

      .cls-3 {
        fill: #1a2e4b;
        stroke: #1a2e4b;
        stroke-dasharray: 0 0 0 0 0 0;
        stroke-linecap: round;
        stroke-linejoin: round;
        stroke-width: .4px;
      }

      .cls-4 {
        fill: #fffad1;
      }

      .cls-5 {
        fill: #937332;
      }

      .cls-6 {
        stroke: #5f4b19;
      }

      .cls-6, .cls-7, .cls-8 {
        stroke-miterlimit: 10;
      }

      .cls-6, .cls-8 {
        fill: none;
      }

      .cls-9, .cls-7 {
        fill: #fdd6bc;
      }

      .cls-10 {
        fill: #755c24;
      }

      .cls-7, .cls-8 {
        stroke: #fdd6bc;
        stroke-width: .25px;
      }

      .cls-11 {
        fill: #9baed9;
      }
    </style>
    <symbol id="New_Symbol_5" data-name="New Symbol 5" viewBox="0 0 94.58 129.28">
      <g>
        <path class="cls-10" d="M44.77,14.1c4.52-7.82-11.88-7.82-7.37,0-4.52-7.82-12.71,6.38-3.68,6.38-9.03,0-.83,14.2,3.68,6.38-4.52,7.82,11.88,7.82,7.37,0,4.52,7.82,12.71-6.38,3.68-6.38,9.03,0,.83-14.2-3.68-6.38Z"/>
        <path class="cls-11" d="M47.04,79.85h12.72c2.58,0,4.67-2.09,4.67-4.67h0c0-2.58-2.09-4.67-4.67-4.67h-12.72c-2.58,0-4.67,2.09-4.67,4.67h0c0,2.58,2.09,4.67,4.67,4.67Z"/>
        <path class="cls-11" d="M53.01,76.17h1.74c2.58,0,4.67-2.09,4.67-4.67h0c0-2.58-2.09-4.67-4.67-4.67h-1.74c-2.58,0-4.67,2.09-4.67,4.67h0c0,2.58,2.09,4.67,4.67,4.67Z"/>
        <path class="cls-11" d="M50.98,74.42h0c2.44,0,4.41-1.97,4.41-4.41v-.53c0-2.44-1.97-4.41-4.41-4.41h0c-2.44,0-4.41,1.97-4.41,4.41v.53c0,2.44,1.97,4.41,4.41,4.41Z"/>
        <rect class="cls-11" x="62.03" y="46.6" width="32.55" height="12.38" rx="6.1" ry="6.1"/>
        <rect class="cls-11" x="69.43" y="41.73" width="16.36" height="12.38" rx="6.1" ry="6.1"/>
        <rect class="cls-11" x="75.38" y="39.41" width="13" height="12.38" rx="5.84" ry="5.84"/>
        <path class="cls-11" d="M28.11,34.31h30.26c5.8,0,10.51-4.71,10.51-10.51v-.7c0-5.8-4.71-10.51-10.51-10.51h-30.26c-5.8,0-10.51,4.71-10.51,10.51v.7c0,5.8,4.71,10.51,10.51,10.51Z"/>
        <path class="cls-11" d="M41.96,25.77h4.75c5.8,0,10.51-4.71,10.51-10.51v-.7c0-5.8-4.71-10.51-10.51-10.51h-4.75c-5.8,0-10.51,4.71-10.51,10.51v.7c0,5.8,4.71,10.51,10.51,10.51Z"/>
        <path class="cls-11" d="M40.73,21.24h0c5.42-1.62,8.5-7.33,6.87-12.75l-.35-1.18c-1.62-5.42-7.33-8.5-12.75-6.87h0c-5.42,1.62-8.5,7.33-6.87,12.75l.35,1.18c1.62,5.42,7.33,8.5,12.75,6.87Z"/>
        <path class="cls-5" d="M46.05,12.73c4.52-7.82-11.88-7.82-7.37,0-4.52-7.82-12.71,6.38-3.68,6.38-9.03,0-.83,14.2,3.68,6.38-4.52,7.82,11.88,7.82,7.37,0,4.52,7.82,12.71-6.38,3.68-6.38,9.03,0,.83-14.2-3.68-6.38Z"/>
        <ellipse class="cls-1" cx="49.84" cy="124.66" rx="32.91" ry="4.62"/>
        <path class="cls-9" d="M33.15,107.66c-.12.72-.43,1.47-1,1.92-4.36,3.45-8.22,10.47-12,15.06-2.24,2.72-4.82,5.19-8.41,3.71-.43-.18-1.01-.62-1.37-.92-.6-.49-.55-1.42-.38-2.17.96-4.19,3.71-7.77,6.85-10.71s6.71-5.36,9.93-8.19c0,0,0,0,0,0-3.73,1.93-7.49,3.88-11.53,5.01s-8.83,1.42-12.91-.21c-.28-.11-.55-.25-.81-.41-.22-.14-.45-.3-.59-.52-.47-.76.2-1.7.88-2.29,2.94-2.56,6.61-4.09,10.24-5.5,1.7-.66,3.36-1.05,5.15-1.38,2.76-.51,5.64-.49,8.44-.22h0c.47-1.88.88-2.88,1.43-3.78,1.93-3.21,5.99-5.26,9.57-4.13,1.4.44,2.65,1.32,4.1,1.59,1.04.2,2.15.05,3.11-.4.38-.18.85,0,1.01.38.91,2.13.71,4.68-.27,6.8-1.09,2.37-3.06,4.25-5.24,5.68-1.96,1.28-4.53,2.24-6.68,1.19h0c-1.25,2.01-2.84,5.32-1.83,7.67.52,1.21.52,1.25,1.17,2.45.89,1.66,2.36,2.95,4.14,3.57,4.12,1.46,8.48,1.91,12.81,2.16,4.6.27,9.44.26,13.5-1.91,1.54-.83,2.91-1.95,4.14-3.2,1.23-1.26,2.33-2.68,2.94-4.33s.67-3.55-.11-5.12c-1.11-2.21-3.61-3.35-6-3.97-2.76-.71-5.69-.97-8.46-.33-1.36.32-2.68.85-4.07.98-3.27.31-6.39-1.66-8.5-4.19"/>
        <path class="cls-9" d="M68.02,116.17c1,.02,2.02-.53,2.97-.2,1.06.37,1.47,1.64,1.66,2.75.18,1.02.27,2.15-.32,3-.69,1-2.04,1.23-3.25,1.35-1.26.13-2.56.22-3.74-.23-.77-.29-1.43-.78-2.09-1.27-.5-.38-1-.75-1.51-1.13"/>
        <path class="cls-9" d="M43.28,106.56c-1.23,2.95-3.01,5.79-6.73,5.79s-6.73-2.59-6.73-5.79,6.19-6.99,9.91-6.99,4.5,4.72,3.56,6.99Z"/>
        <path class="cls-7" d="M40.66,105.4c.31-.07.61.11.9.26.88.46,1.89.66,2.88.6.83-.05,1.68-.28,2.3-.84-.11.1-1.12-.52-1.26-.6-.41-.24-.8-.52-1.17-.84-.27-.23-.67-.85-1.07-.66-.21.1-.4.36-.57.52-.19.17-.39.34-.59.51-.45.37-.93.72-1.42,1.05Z"/>
        <path class="cls-7" d="M45.99,104.74h.02"/>
        <path class="cls-4" d="M32.38,105.35c-.12.72-.43,1.47-1,1.92-4.36,3.45-8.22,10.47-12,15.06-2.24,2.72-4.82,5.19-8.41,3.71-.43-.18-1.01-.62-1.37-.92-.6-.49-.55-1.42-.38-2.17.96-4.19,3.71-7.77,6.85-10.71s6.71-5.36,9.93-8.19c0,0,0,0,0,0-3.73,1.93-7.49,3.88-11.53,5.01-4.22,1.18-8.83,1.42-12.91-.21-.28-.11-.55-.25-.81-.41-.22-.14-.45-.3-.59-.52-.47-.76.2-1.7.88-2.29,2.94-2.56,6.61-4.09,10.24-5.5,1.7-.66,3.36-1.05,5.15-1.38,2.76-.51,5.64-.49,8.44-.22h0c.47-1.88.88-2.88,1.43-3.78,1.93-3.21,5.99-5.26,9.57-4.13,1.4.44,2.65,1.32,4.1,1.59,1.04.2,2.15.05,3.11-.4.38-.18.85,0,1.01.38.91,2.13.71,4.68-.27,6.8-1.09,2.37-3.06,4.25-5.24,5.68-1.96,1.28-4.53,2.24-6.68,1.19h0c-1.25,2.01-2.84,5.32-1.83,7.67.52,1.21.52,1.25,1.17,2.45.89,1.66,2.36,2.95,4.14,3.57,4.12,1.46,8.48,1.91,12.81,2.16,4.6.27,9.44.26,13.5-1.91,1.54-.83,2.91-1.95,4.14-3.2,1.23-1.26,2.33-2.68,2.94-4.33s.67-3.55-.11-5.12c-1.11-2.21-3.61-3.35-6-3.97-2.76-.71-5.69-.97-8.46-.33-1.36.32-2.68.85-4.07.98-3.27.31-6.39-1.66-8.5-4.19"/>
        <path class="cls-4" d="M67.25,113.86c1,.02,2.02-.53,2.97-.2,1.06.37,1.47,1.64,1.66,2.75.18,1.02.27,2.15-.32,3-.69,1-2.04,1.23-3.25,1.35-1.26.13-2.56.22-3.74-.23-.77-.29-1.43-.78-2.09-1.27-.5-.38-1-.75-1.51-1.13"/>
        <path class="cls-4" d="M42.52,104.24c-1.23,2.95-3.01,5.79-6.73,5.79s-6.73-2.59-6.73-5.79,6.19-6.99,9.91-6.99,4.5,4.72,3.56,6.99Z"/>
        <path class="cls-8" d="M45.22,102.43h.02"/>
        <path class="cls-3" d="M34.75,95.39c.36.15.74.31,1.13.24.2-.03.39-.13.57-.23.24-.13.46-.29.64-.49.36-.41.46-.98.51-1.51-.31.13-.48.44-.71.69-.49.54-1.23.77-1.87,1.12-.05.03-.11.1-.16.1s-.08.15-.09.1"/>
        <ellipse class="cls-2" cx="35.32" cy="97.63" rx="1.6" ry=".55" transform="translate(-44.92 31.75) rotate(-30.72)"/>
        <path class="cls-10" d="M45.4,13.81c3.73-6.46-9.81-6.46-6.08,0-3.73-6.46-10.5,5.27-3.04,5.27-7.45,0-.69,11.72,3.04,5.27-3.73,6.46,9.81,6.46,6.08,0,3.73,6.46,10.5-5.27,3.04-5.27,7.45,0,.69-11.72-3.04-5.27Z"/>
        <path class="cls-5" d="M44.54,15.34c2.62-4.53-6.89-4.53-4.27,0-2.62-4.53-7.37,3.7-2.14,3.7-5.24,0-.48,8.23,2.14,3.7-2.62,4.53,6.89,4.53,4.27,0,2.62,4.53,7.37-3.7,2.14-3.7,5.24,0,.48-8.23-2.14-3.7Z"/>
        <g>
          <path class="cls-5" d="M43.12,16.39c.9-3.22-2.37-3.22-1.47,0-1.97-3.22-2.97-2.64-1.17.67-2.33-2.39-3.97.45-.74,1.27-3.77.1-3.77,1.25,0,1.35-3.24.83-1.6,3.66.74,1.27-1.8,3.32-.81,3.89,1.17.67-.9,3.22,2.37,3.22,1.47,0,1.97,3.22,2.97,2.64,1.17-.67,2.33,2.39,3.97-.45.74-1.27,3.77-.1,3.77-1.25,0-1.35,3.24-.83,1.6-3.66-.74-1.27,1.8-3.32.81-3.89-1.17-.67Z"/>
          <path class="cls-6" d="M43.12,16.39c.9-3.22-2.37-3.22-1.47,0-1.97-3.22-2.97-2.64-1.17.67-2.33-2.39-3.97.45-.74,1.27-3.77.1-3.77,1.25,0,1.35-3.24.83-1.6,3.66.74,1.27-1.8,3.32-.81,3.89,1.17.67-.9,3.22,2.37,3.22,1.47,0,1.97,3.22,2.97,2.64,1.17-.67,2.33,2.39,3.97-.45.74-1.27,3.77-.1,3.77-1.25,0-1.35,3.24-.83,1.6-3.66-.74-1.27,1.8-3.32.81-3.89-1.17-.67Z"/>
        </g>
      </g>
    </symbol>
  </defs>
  <g id="Layer_28" data-name="Layer 28">
    <use width="94.58" height="129.28" xlink:href="#New_Symbol_5"/>
  </g>
</svg>